<svg width="498" height="341" viewBox="0 0 498 341" fill="none" xmlns="http://www.w3.org/2000/svg">
<g filter="url(#filter0_dd_520_86534)">
<path d="M479.122 132.313C472.511 126.282 463.531 123.237 453.842 123.745L431.94 124.893C435.623 115.499 437.156 104.536 436.507 92.1638C436.373 87.2399 435.056 82.4204 432.668 78.1126C431.951 76.8362 431.127 75.6227 430.206 74.485C429.603 68.5079 427.786 62.7168 424.869 57.4656C421.951 52.2144 417.993 47.6134 413.236 43.9441C404.05 36.614 392.564 32.9707 379.939 33.3912C379.095 26.2821 375.64 19.74 370.245 15.0335C366.373 11.6067 359.328 7.35627 348.69 7.91378L313.511 9.75743C298.406 10.5491 287.179 22.8833 287.963 37.8434L287.992 38.3813C286.417 38.3623 284.819 38.3826 283.205 38.4672C271.131 39.1 260.175 42.3076 250.644 47.9979C247.196 50.0262 243.952 52.3807 240.954 55.0291C229.768 46.0968 215.188 42.0318 197.589 42.9541C190.088 43.273 182.67 44.6552 175.557 47.0595L175.54 46.7495C175.097 38.2822 171.58 30.877 165.601 25.7585C161.741 22.3311 154.696 18.0806 144.058 18.6381L108.215 20.5166C104.259 20.6861 100.389 21.7264 96.8805 23.5632C93.3725 25.4001 90.3129 27.9882 87.9198 31.1431C87.472 30.7097 87.0244 30.2826 86.5459 29.8699C82.6558 26.4757 75.6114 22.2252 64.9735 22.7828L29.7945 24.6264C14.6888 25.4181 3.46244 37.7523 4.24647 52.7124L4.3317 54.3388C4.58215 59.2706 6.17965 64.0395 8.95056 68.127C10.1267 69.872 11.5101 71.4679 13.0705 72.8798L16.9253 146.434C17.0369 148.758 17.4089 151.063 18.0342 153.305C17.3916 153.878 16.7756 154.475 16.174 155.103C13.33 158.101 11.1317 161.65 9.71531 165.531C8.2989 169.413 7.69451 173.544 7.93958 177.668L8.06759 180.111C8.2547 184.238 9.28745 188.282 11.1018 191.993C12.9162 195.705 15.4735 199.004 18.6153 201.686C19.0735 202.074 19.5437 202.449 20.0196 202.812L21.9892 240.395C22.0287 241.148 22.0675 241.889 22.1756 242.619L25.8682 313.079C25.9629 314.9 26.4159 316.686 27.2015 318.332C27.9871 319.979 29.0897 321.454 30.4463 322.674C31.8029 323.894 33.3867 324.834 35.1072 325.441C36.8276 326.048 38.6509 326.309 40.4725 326.21L62.2925 325.067C64.3191 325.268 66.358 325.314 68.3916 325.204C70.3727 325.101 72.343 324.845 74.2846 324.438L81.9672 324.036C82.5999 324.002 83.1936 323.719 83.6176 323.248C84.0415 322.778 84.2611 322.158 84.2279 321.525V321.525C94.6632 324.961 106.03 324.165 115.885 319.307C121.152 321.254 126.758 322.119 132.367 321.853C137.977 321.586 143.475 320.192 148.534 317.755C153.208 319.406 158.168 320.096 163.115 319.783L179.752 318.911C181.836 319.109 183.932 319.151 186.022 319.039C188.112 318.929 190.192 318.667 192.244 318.256L192.909 318.221L192.904 318.133C195.338 317.599 197.716 316.837 200.006 315.857V315.857C200.034 316.386 200.271 316.882 200.664 317.236C201.057 317.59 201.575 317.774 202.104 317.746L210.154 317.324C212.119 317.526 214.097 317.575 216.069 317.471C218.093 317.368 220.105 317.11 222.089 316.699L264.128 314.495C265.336 314.432 266.52 314.851 267.42 315.661C268.319 316.471 268.86 317.605 268.923 318.813V318.813C269.048 321.172 270.105 323.385 271.861 324.966C273.616 326.547 275.928 327.366 278.287 327.244L317.953 325.165C320.393 325.038 322.683 323.945 324.318 322.129C325.953 320.313 326.8 317.922 326.672 315.482L326.288 308.154C333.764 304.146 339.684 297.75 343.104 289.987C345.449 284.562 346.662 278.715 346.666 272.805C346.671 266.894 345.467 261.046 343.13 255.617L343.838 255.32C349.258 257.028 354.916 257.856 360.598 257.773C363.983 266.097 369.868 273.165 377.44 278.002L377.545 278.073L377.657 278.143C387.18 284.276 398.551 287.049 411.429 286.374C420.529 285.897 428.783 283.561 435.974 279.485C443.578 275.279 450.058 269.006 455.232 260.815C459.104 254.774 462.591 247.199 465.886 237.666C472.911 217.455 478.533 200.509 482.562 187.296C488.922 166.504 489.859 160.401 489.555 154.598C489.163 146.082 485.412 138.068 479.122 132.313V132.313Z" fill="white"/>
</g>
<path fill-rule="evenodd" clip-rule="evenodd" d="M60.0732 272.304C58.5932 273.158 57.3483 274.366 56.45 275.819L55.737 262.214L48.605 262.587L50.5836 300.342L57.6903 299.97L57.4794 295.945C58.5501 297.255 59.9076 298.302 61.4472 299.005C63.4047 299.8 65.5281 300.1 67.6294 299.88C69.7307 299.659 71.7452 298.924 73.4947 297.739C75.4347 296.383 76.9548 294.509 77.8817 292.331C78.9471 289.881 79.4037 287.21 79.2124 284.545C79.1334 281.906 78.4009 279.328 77.0805 277.042C75.9561 275.008 74.276 273.336 72.2365 272.221C70.197 271.106 67.8824 270.595 65.5632 270.748C63.6339 270.813 61.7496 271.347 60.0732 272.304ZM70.6039 280.598C71.4141 281.898 71.8626 283.391 71.9029 284.922C72.029 286.491 71.7418 288.066 71.0699 289.49C70.4982 290.725 69.5987 291.779 68.4693 292.539C67.3997 293.271 66.1471 293.69 64.8523 293.75C63.5727 293.803 62.3012 293.524 61.1611 292.941C59.9721 292.285 58.9718 291.334 58.256 290.18C57.5122 288.835 57.0839 287.339 57.0034 285.804C56.923 284.269 57.1926 282.736 57.7917 281.321C58.3633 280.108 59.2518 279.073 60.3633 278.324C61.4362 277.598 62.6868 277.18 63.9803 277.113C65.2677 277.036 66.5523 277.303 67.7015 277.889C68.9097 278.494 69.9176 279.435 70.6039 280.598ZM90.76 296.866C93.0778 297.953 95.6337 298.432 98.1877 298.26C100.784 298.164 103.316 297.418 105.549 296.091C107.694 294.78 109.434 292.901 110.576 290.662C111.811 288.275 112.363 285.593 112.169 282.913C112.084 280.233 111.274 277.626 109.825 275.37C108.505 273.272 106.609 271.598 104.363 270.548C102.023 269.465 99.4538 268.969 96.8787 269.104C94.3036 269.239 91.8004 270.001 89.5863 271.323C87.4548 272.611 85.7275 274.471 84.6008 276.692C83.4312 279.097 82.9146 281.768 83.103 284.436C83.1885 287.102 83.9584 289.702 85.3388 291.985C86.6616 294.08 88.5377 295.769 90.76 296.866ZM101.434 290.938C100.357 291.606 99.1276 291.987 97.862 292.045L97.8607 292.02C96.912 292.095 95.9581 291.97 95.0612 291.652C94.1643 291.334 93.3447 290.83 92.6557 290.173C91.2584 288.779 90.4874 286.74 90.3425 284.057C90.1977 281.374 90.7693 279.284 92.0572 277.786C92.6865 277.057 93.4568 276.463 94.3217 276.039C95.1867 275.615 96.1284 275.371 97.0902 275.32C98.0521 275.27 99.0142 275.415 99.9187 275.746C100.823 276.077 101.651 276.587 102.353 277.247C103.854 278.598 104.675 280.615 104.815 283.298C104.946 284.886 104.679 286.481 104.037 287.94C103.476 289.169 102.572 290.21 101.434 290.938ZM131.196 296.53C128.64 296.702 126.082 296.222 123.762 295.136C121.543 294.038 119.669 292.349 118.347 290.255C116.967 287.972 116.197 285.373 116.111 282.706C115.923 280.038 116.439 277.368 117.609 274.962C118.736 272.741 120.463 270.881 122.595 269.593C124.809 268.271 127.312 267.509 129.887 267.374C132.462 267.24 135.031 267.735 137.371 268.818C139.617 269.868 141.513 271.542 142.834 273.64C144.277 275.899 145.085 278.505 145.171 281.183C145.366 283.863 144.817 286.545 143.584 288.932C142.442 291.171 140.702 293.051 138.558 294.361C136.324 295.689 133.793 296.434 131.196 296.53ZM130.87 290.316C132.136 290.257 133.365 289.876 134.442 289.208C135.58 288.48 136.484 287.439 137.045 286.21C137.687 284.752 137.954 283.156 137.824 281.569C137.683 278.885 136.862 276.868 135.362 275.517C134.66 274.857 133.831 274.347 132.927 274.016C132.022 273.685 131.06 273.54 130.099 273.591C129.137 273.641 128.195 273.885 127.33 274.309C126.465 274.733 125.695 275.327 125.066 276.056C123.782 277.554 123.21 279.644 123.351 282.327C123.491 285.01 124.263 287.049 125.664 288.444C126.353 289.1 127.173 289.604 128.07 289.922C128.966 290.24 129.92 290.366 130.869 290.29L130.87 290.316ZM159.497 285.852L158.781 272.195L165.111 271.883L164.803 266.016L158.475 266.348L158.11 259.387L150.921 259.764L151.286 266.725L147.926 266.901L148.233 272.767L151.593 272.591L152.306 286.197C152.608 292.04 155.77 294.804 161.79 294.489L166.245 294.255L165.93 288.243L162.62 288.417C161.792 288.526 160.951 288.346 160.239 287.907C159.732 287.346 159.465 286.608 159.497 285.852ZM169.971 279.884C169.769 277.229 170.246 274.566 171.355 272.146C172.365 269.948 173.989 268.089 176.031 266.792C178.176 265.425 180.65 264.659 183.193 264.577C186.695 264.393 189.631 265.126 192.002 266.774C194.457 268.471 196.231 270.984 197.006 273.866L189.298 274.27C188.878 273.132 188.091 272.166 187.06 271.526C185.712 270.728 184.117 270.451 182.579 270.75C181.04 271.048 179.664 271.899 178.712 273.143C177.598 274.665 177.115 276.785 177.262 279.502C177.408 282.218 178.111 284.278 179.369 285.68C179.986 286.367 180.756 286.9 181.617 287.236C182.477 287.572 183.405 287.702 184.324 287.616C187.219 287.464 189.037 286.074 189.779 283.446L197.487 283.042C196.968 285.964 195.469 288.621 193.237 290.575C191.015 292.494 188.172 293.544 184.708 293.725C182.186 293.904 179.661 293.422 177.382 292.326C175.229 291.228 173.425 289.551 172.172 287.485C170.813 285.175 170.057 282.562 169.971 279.884ZM202.418 270.467C201.382 272.888 200.941 275.522 201.133 278.149C201.229 280.811 201.953 283.412 203.244 285.742C204.408 287.787 206.101 289.48 208.146 290.644C210.166 291.762 212.463 292.281 214.767 292.137C216.697 292.08 218.583 291.545 220.257 290.581C221.724 289.713 222.965 288.51 223.88 287.072L224.096 291.198L231.26 290.822L229.78 262.586L222.591 262.962L222.802 266.993C221.723 265.704 220.368 264.674 218.837 263.978C217.091 263.189 215.175 262.853 213.265 263.001C210.949 263.096 208.705 263.833 206.783 265.13C204.865 266.473 203.355 268.32 202.418 270.467ZM222.106 272.709C222.89 274.037 223.321 275.544 223.357 277.086C223.483 278.649 223.214 280.219 222.574 281.651C222.01 282.851 221.125 283.872 220.018 284.601C218.911 285.331 217.625 285.742 216.299 285.788C215.006 285.853 213.719 285.568 212.576 284.961C211.387 284.307 210.388 283.356 209.677 282.2C208.9 280.849 208.469 279.326 208.423 277.767C208.301 276.246 208.572 274.719 209.212 273.334C209.788 272.117 210.686 271.08 211.809 270.336C212.891 269.635 214.141 269.234 215.429 269.176C216.739 269.1 218.044 269.385 219.203 270C220.413 270.602 221.421 271.544 222.106 272.709ZM272.324 259.956C275.787 259.775 278.628 260.698 280.845 262.727C283.063 264.756 284.289 267.653 284.524 271.418L285.392 287.979L278.254 288.353L277.437 272.773C277.322 270.562 276.674 268.904 275.495 267.798C274.868 267.226 274.126 266.793 273.319 266.528C272.512 266.263 271.658 266.172 270.814 266.261C269.957 266.264 269.111 266.446 268.329 266.794C267.546 267.142 266.845 267.648 266.268 268.282C265.207 269.501 264.734 271.218 264.85 273.433L265.668 289.026L258.536 289.399L257.718 273.807C257.603 271.596 256.953 269.938 255.77 268.832C255.142 268.259 254.401 267.826 253.594 267.561C252.787 267.296 251.933 267.205 251.088 267.294C250.224 267.295 249.369 267.476 248.578 267.824C247.787 268.173 247.077 268.681 246.492 269.318C245.431 270.537 244.96 272.254 245.081 274.469L245.898 290.062L238.76 290.436L237.28 262.199L244.418 261.825L244.597 265.242C245.465 263.992 246.619 262.968 247.962 262.255C249.429 261.489 251.047 261.056 252.7 260.985C254.758 260.839 256.819 261.225 258.685 262.105C260.443 262.907 261.92 264.218 262.925 265.868C263.773 264.167 265.078 262.737 266.693 261.736C268.384 260.664 270.324 260.051 272.324 259.956ZM302.172 259.686C300.711 260.523 299.468 261.693 298.544 263.1L298.329 258.999L291.191 259.374L293.376 301.064L300.565 300.688L299.65 283.234C300.742 284.509 302.094 285.535 303.615 286.244C305.361 287.025 307.273 287.361 309.181 287.221C311.489 287.133 313.722 286.377 315.609 285.044C317.541 283.692 319.054 281.825 319.978 279.656C321.043 277.206 321.5 274.535 321.309 271.87C321.23 269.231 320.497 266.653 319.177 264.367C318.051 262.333 316.369 260.661 314.329 259.546C312.288 258.432 309.973 257.921 307.653 258.073C305.72 258.142 303.835 258.697 302.172 259.686ZM312.694 267.93C313.506 269.226 313.954 270.716 313.993 272.244C313.993 272.241 313.992 272.237 313.992 272.234L313.993 272.253C313.993 272.25 313.993 272.247 313.993 272.244C314.118 273.806 313.83 275.374 313.158 276.79C312.591 278.027 311.69 279.083 310.558 279.839C309.488 280.571 308.236 280.99 306.941 281.05C305.656 281.119 304.376 280.852 303.226 280.274C302.034 279.622 301.033 278.67 300.321 277.513C299.577 276.168 299.149 274.672 299.068 273.137C298.988 271.602 299.257 270.069 299.857 268.654C300.433 267.434 301.333 266.397 302.46 265.655C303.53 264.929 304.779 264.51 306.071 264.444C307.358 264.366 308.643 264.634 309.792 265.22C311.001 265.823 312.01 266.765 312.694 267.93Z" fill="#2EB77D"/>
<path fill-rule="evenodd" clip-rule="evenodd" d="M314.828 39.8368C317.347 41.1558 319.104 42.6522 320.102 44.326C321.094 45.9112 321.674 48.2879 321.84 51.4563L325.853 128.029C326.005 130.927 327.62 132.296 330.7 132.134L355.134 130.854C356.767 130.768 357.927 130.39 358.615 129.719C359.307 128.951 359.61 127.8 359.526 126.264L358.139 99.8118C357.769 93.8102 358.421 87.7892 360.068 82.0062C361.766 76.3754 364.169 72.019 367.277 68.937C370.2 65.9488 374.15 64.1834 378.326 63.9985C378.959 63.9352 379.593 64.095 380.12 64.4502C380.383 64.5537 380.609 64.7344 380.767 64.9685C380.926 65.2026 381.01 65.4791 381.008 65.7617C381.054 66.352 380.891 66.9397 380.549 67.4229C374.482 67.7408 369.778 70.8007 366.435 76.6023C363.105 82.3188 361.68 89.7502 362.159 98.8967C362.704 109.305 365.304 117.34 369.958 123.001C374.612 128.57 380.83 131.151 388.614 130.743C396.208 130.345 402.018 126.867 406.045 120.311C410.053 113.653 411.763 104.711 411.175 93.485C411.099 92.0359 410.916 91.0936 410.62 90.6522C410.505 90.4286 410.32 90.2482 410.093 90.1377C409.867 90.0273 409.611 89.9927 409.364 90.0391L407.731 90.1247C407.348 90.1236 406.973 90.2384 406.657 90.4538C406.275 90.7484 405.929 91.086 405.624 91.4598C400.917 97.0538 394.678 100.054 386.907 100.462C383.977 100.625 381.044 100.225 378.266 99.2837C375.856 98.5416 373.62 97.3206 371.694 95.6938C370.069 94.2369 369.22 92.695 369.135 91.0623C369.049 89.4296 369.772 88.5794 371.317 88.4985C374.695 94.1256 380.098 96.7467 387.523 96.3618C392.961 96.0768 397.308 94.2604 400.563 90.9128C403.819 87.5651 405.322 83.3552 405.073 78.2833C404.984 75.4604 404.258 72.6943 402.947 70.1924C401.637 67.6905 399.777 65.5178 397.507 63.8372C392.864 60.0828 387.064 58.3879 380.107 58.7524C375.107 58.9473 370.25 60.4724 366.036 63.1704C361.996 65.8371 358.794 69.5933 356.799 74.0043L354.878 37.3317C354.797 35.7919 354.377 34.7245 353.618 34.1297C352.939 33.4377 351.739 33.1368 350.017 33.227L314.838 35.0706C313.75 35.1277 313.23 35.6118 313.277 36.5168L313.362 38.1432C313.373 38.481 313.488 38.8073 313.69 39.0778C314.007 39.4139 314.396 39.6734 314.828 39.8368ZM109.5 50.5977C112.027 51.9163 113.797 53.412 114.811 55.0849C115.8 56.6703 116.377 59.0472 116.543 62.2155L119.675 121.98C120.06 129.317 122.213 134.879 126.134 138.667C130.135 142.358 135.624 144.023 142.602 143.661C149.846 143.281 155.313 141.043 159.003 136.944C162.693 132.846 164.348 127.175 163.969 119.932C163.974 118.826 163.779 117.729 163.393 116.694C163.176 116.071 162.798 115.767 162.254 115.795L159.944 115.916C159.729 115.901 159.514 115.95 159.326 116.057C159.139 116.164 158.987 116.324 158.891 116.517C158.615 117.405 158.48 118.331 158.489 119.261C158.24 121.545 157.954 123.014 157.628 123.665C157.508 123.983 157.29 124.255 157.006 124.441C156.721 124.627 156.385 124.718 156.045 124.7C155.765 124.733 155.481 124.679 155.232 124.547C154.983 124.416 154.779 124.211 154.648 123.961C154.252 122.975 154.056 121.919 154.073 120.856L150.259 48.0808C150.179 46.5409 149.761 45.4735 149.006 44.8784C148.314 44.1702 147.106 43.8612 145.385 43.9514L109.542 45.8299C108.46 45.8866 107.939 46.3707 107.987 47.2757L108.072 48.9021C108.08 49.2394 108.193 49.5659 108.394 49.837C108.701 50.1698 109.079 50.4296 109.5 50.5977ZM383.479 197.754C384.352 198.335 385.014 199.182 385.367 200.17C385.922 201.57 386.213 203.061 386.226 204.567C386.657 212.794 384.678 219.478 380.48 224.368C376.282 229.259 370.09 231.95 362.072 232.37C353.712 232.808 347.012 230.405 342.08 225.169C340.55 227.248 338.671 229.047 336.527 230.485C333.108 232.809 328.754 234.142 323.635 234.41C316.528 234.782 310.553 233.249 305.883 229.864C302.779 227.68 300.424 224.593 299.137 221.023C298.22 223.901 296.737 226.568 294.776 228.866C290.578 233.756 284.386 236.448 276.368 236.868C268.065 237.303 261.363 234.862 256.385 229.603C252.108 235.284 245.929 238.463 238.335 238.861C229.102 239.345 221.55 235.946 215.899 228.748C214.407 226.769 213.125 224.639 212.076 222.393C211.335 226.532 209.472 230.388 206.689 233.54C202.318 238.401 195.891 241.086 187.664 241.517C179.659 241.936 173.189 239.94 168.415 235.545L168.355 235.485C163.737 231.025 161.176 224.553 160.742 216.263L159.65 195.437C158.666 197.411 157.344 199.198 155.745 200.718C151.734 204.45 146.53 206.493 140.201 206.825C138.869 206.898 137.533 206.885 136.202 206.787C136.589 207.957 136.805 209.177 136.842 210.409L138.095 234.311C138.358 239.335 135.294 242.624 130.105 242.896L102.532 244.341C97.5962 244.6 94.3635 241.641 94.1001 236.616L91.5875 188.673C91.4157 185.395 90.7872 183.937 90.4273 183.365L90.379 183.292C89.7795 182.399 88.9931 181.648 88.0744 181.09L86.853 181.154C86.9994 182.006 87.0932 182.865 87.1339 183.728L89.9178 236.848C90.0528 239.424 89.3409 241.581 88.0343 243.045C86.7277 244.51 84.7251 245.287 81.928 245.434L56.1781 246.783C53.4823 246.925 51.4304 246.398 49.9148 245.208L49.7097 245.047L49.5352 244.866C48.1943 243.496 47.4576 241.548 47.3276 239.068L44.4091 183.378L39.0743 183.658C35.8849 183.825 33.5399 181.822 33.3807 178.785L33.2527 176.342C33.0935 173.304 35.2416 171.066 38.4057 170.9L43.7405 170.621L43.5906 167.76C43.119 158.761 45.9434 151.265 52.0427 145.475C53.7518 143.834 55.6464 142.397 57.6881 141.194C55.7817 139.87 53.9763 138.405 52.2868 136.813C51.5654 136.851 51.0054 137.426 50.6068 138.539C50.2961 139.553 49.8238 141.801 49.1898 145.282C49.1831 145.783 49.0199 146.268 48.7232 146.671C48.3151 146.909 47.8488 147.028 47.3768 147.014L43.9785 147.193C43.4941 147.262 43.0014 147.143 42.603 146.858C42.3572 146.308 42.2328 145.71 42.2384 145.107L38.1097 66.3261C37.9394 63.1579 37.3601 60.7811 36.3716 59.1958C35.3744 57.522 33.6165 56.0256 31.0979 54.7065C30.6702 54.5385 30.2842 54.2794 29.9666 53.9472C29.7687 53.6746 29.6566 53.349 29.6448 53.0122L29.5596 51.3859C29.5121 50.4809 30.0325 49.9968 31.1209 49.9397L66.3 48.0961C68.0213 48.0058 69.1526 48.4034 69.9072 48.9985C70.6618 49.5935 71.0859 50.6627 71.1665 52.2005L72.6523 80.5513C76.2503 76.5553 81.3569 74.384 87.9721 74.0373C96.0092 73.6203 102.499 76.3685 107.441 82.2817C112.375 88.1065 115.121 96.3601 115.681 107.042C116.317 119.18 113.644 128.718 107.662 135.656C105.288 138.396 102.422 140.666 99.2114 142.35C101.041 143.836 102.535 145.692 103.597 147.796C104.659 149.9 105.264 152.205 105.372 154.56C105.563 157.07 105.121 159.588 104.086 161.883C103.051 164.178 101.456 166.176 99.4482 167.695L99.3753 167.756C105.709 167.652 110.736 169.134 114.377 172.116C116.39 170.221 118.68 168.644 121.169 167.438C125.117 165.514 129.425 164.438 133.815 164.282C140.359 163.939 146.076 165.27 150.857 168.23C151.49 166.262 153.303 164.898 155.752 164.769L167.105 164.174C165.552 163.64 164.073 162.911 162.702 162.006L162.643 161.971C160.622 160.555 158.95 158.697 157.754 156.538C156.558 154.379 155.87 151.976 155.741 149.512C155.611 147.047 156.045 144.586 157.009 142.313C157.973 140.041 159.441 138.019 161.303 136.399C163.315 134.713 165.633 133.43 168.13 132.621C166.947 130.455 166.284 128.043 166.193 125.577C165.956 121.135 167.313 117.567 170.265 114.874C173.312 112.083 178.071 110.063 184.542 108.815C201.093 105.773 209.095 99.0436 208.55 88.6272C208.478 86.6325 208.006 84.6726 207.162 82.8637C206.319 81.0548 205.12 79.4338 203.638 78.0969C202.268 76.7066 200.617 75.6243 198.796 74.9221C196.974 74.2198 195.024 73.9139 193.075 74.0245C191.172 74.1242 190.254 74.8069 190.32 76.0725C190.353 76.5543 190.518 77.0178 190.797 77.4119C194.602 77.2125 197.785 78.1794 200.347 80.3127C201.606 81.3494 202.627 82.6459 203.339 84.1133C204.051 85.5808 204.438 87.1847 204.473 88.8154C204.691 92.9795 203.106 96.5125 199.717 99.4145C196.434 102.311 192.075 103.902 186.641 104.186C181.114 104.476 176.651 103.348 173.252 100.801C169.848 98.1624 168.027 94.5815 167.79 90.0589C167.471 83.9753 170.16 78.9694 175.855 75.0411C181.529 71.021 189.218 68.7566 198.921 68.2481C210.511 67.645 219.446 69.9921 225.726 75.2894C232.087 80.5826 235.552 88.6631 236.122 99.5309L237.012 116.51C236.994 117.573 237.19 118.628 237.587 119.614C237.718 119.864 237.921 120.069 238.17 120.201C238.42 120.333 238.703 120.386 238.984 120.353C239.354 120.352 239.715 120.24 240.02 120.03C240.324 119.821 240.559 119.524 240.692 119.179C241.139 117.799 241.387 116.363 241.427 114.914C241.421 113.985 241.554 113.06 241.823 112.171C241.921 111.978 242.074 111.818 242.262 111.711C242.451 111.604 242.667 111.555 242.883 111.57L245.193 111.449C245.737 111.42 246.114 111.724 246.331 112.347C246.71 113.336 246.903 114.387 246.9 115.446C247.241 122.049 245.934 127.38 242.979 131.439L261.964 130.444C258.114 127.953 254.814 124.701 252.268 120.888C248.727 115.642 246.769 109.433 246.393 102.261C245.937 95.7699 247.286 89.2797 250.29 83.5079C253.323 77.746 257.938 72.9693 263.592 69.7387C269.581 66.1547 276.558 64.154 284.523 63.7365C289.697 63.3779 294.893 63.9835 299.846 65.5225C304.48 66.9169 308.191 69.1274 310.981 72.154C313.729 74.9976 315.331 78.7546 315.481 82.7058C315.656 85.0426 315.332 87.3897 314.532 89.5921C313.732 91.7945 312.473 93.8019 310.84 95.4818C307.58 98.9185 303.236 100.779 297.806 101.064C293.039 101.426 288.319 99.9159 284.647 96.8545C282.902 95.374 281.485 93.5463 280.485 91.4879C279.486 89.4295 278.926 87.1855 278.842 84.8989C278.707 83.2734 278.924 81.6378 279.479 80.104C280.033 78.5701 280.913 77.1741 282.057 76.0114C284.389 73.6216 287.454 72.3273 291.251 72.1283C291.485 71.706 291.6 71.2287 291.585 70.7465C291.519 69.4808 290.534 68.8978 288.631 68.9975C286.682 69.0912 284.774 69.5994 283.036 70.4882C281.298 71.3769 279.769 72.6259 278.552 74.1518C277.215 75.6523 276.192 77.4052 275.543 79.3071C274.894 81.2091 274.632 83.2217 274.773 85.2264C274.929 88.8938 276.055 92.4543 278.036 95.5448C280.031 98.6371 282.785 101.167 286.036 102.893C289.581 104.634 293.521 105.412 297.462 105.149C300.807 105.057 304.101 104.297 307.149 102.916C310.302 101.241 313.097 98.9674 315.377 96.2212C315.682 95.8451 316.031 95.5072 316.416 95.2149C316.733 94.9995 317.107 94.8848 317.49 94.8858L319.256 94.7933C320.252 94.7411 320.797 95.6199 320.892 97.4298C321.303 103.937 320 110.438 317.114 116.284C314.295 121.986 309.982 126.818 304.635 130.264C299.233 133.672 293.064 135.675 286.69 136.091C286.774 136.48 286.795 136.885 286.818 137.309L290.219 202.206C290.925 201.828 291.708 201.614 292.508 201.578L294.818 201.457C295.865 201.4 296.903 201.684 297.776 202.264C298.649 202.845 299.311 203.693 299.664 204.68C299.784 204.952 299.887 205.23 299.974 205.514C300.842 203.951 301.96 202.54 303.283 201.337C305.952 198.999 309.074 197.236 312.454 196.16C310.318 195.494 308.31 194.471 306.515 193.134C302.163 189.764 299.83 185.203 299.533 179.539C299.143 172.097 302.405 165.929 309.234 161.218C315.463 156.818 323.897 154.295 334.269 153.751C346.799 153.094 356.705 155.767 363.71 161.689C370.87 167.646 374.823 176.717 375.447 188.633L375.922 197.695C376.629 197.317 377.411 197.103 378.212 197.067L380.521 196.946C381.569 196.89 382.606 197.173 383.479 197.754ZM200.702 110.106C199.163 110.187 198.44 111.132 198.535 112.942L198.991 121.637C199.09 123.447 199.907 124.311 201.443 124.231C201.867 124.221 202.282 124.106 202.651 123.896C203.02 123.686 203.331 123.388 203.556 123.029L202.93 111.074C202.667 110.743 202.326 110.481 201.937 110.312C201.549 110.143 201.125 110.072 200.702 110.106ZM74.0136 87.0369C73.6206 87.2479 73.2858 87.5525 73.0387 87.9238L75.5639 136.108L76.1018 136.079C77.5953 136.001 79.0541 135.988 80.4589 136.035L78.0379 89.8384C77.9198 87.6659 77.0043 86.6245 75.2915 86.7143C74.8454 86.7151 74.4065 86.8259 74.0136 87.0369ZM207.604 206.078C207.348 204.099 207.165 202.053 207.053 199.92L207.034 199.921C206.405 187.929 208.429 178.228 213.106 171.085C217.991 163.551 225.227 159.478 234.625 158.986C238.729 158.693 242.849 159.279 246.708 160.707L246.244 151.847C246.072 148.569 245.437 147.118 245.077 146.54L245.035 146.466C244.416 145.432 243.111 144.371 241.264 143.402C240.526 143.065 239.837 142.629 239.216 142.107L238.55 141.507L238.221 140.668C237.962 139.986 237.813 139.268 237.779 138.54L237.694 136.907C237.688 136.803 237.692 136.696 237.696 136.59C237.7 136.483 237.704 136.377 237.698 136.272C234.649 138.057 230.879 139.066 226.391 139.302C217.248 139.781 210.531 136.363 206.239 129.05C204.359 133.053 201.928 136.04 198.948 138.011C198.072 138.601 197.142 139.107 196.171 139.521C197.629 141.855 198.453 144.528 198.564 147.277C198.722 149.745 198.282 152.214 197.283 154.476C196.284 156.737 194.754 158.725 192.823 160.269C191.519 161.377 190.074 162.306 188.526 163.033L191.627 162.87C194.367 162.727 196.422 163.437 197.956 164.74C199.49 166.043 200.335 168.004 200.47 170.574L202.369 206.81C203.076 206.432 203.858 206.218 204.659 206.182L206.969 206.061C207.181 206.052 207.393 206.058 207.604 206.078ZM455.169 149.058L416.731 151.073C413.851 151.224 411.841 153.062 411.596 155.651C409.934 154.569 408.101 153.776 406.175 153.308C402.787 152.356 397.929 152.058 391.335 152.404L370.148 153.514C366.984 153.68 364.83 155.919 364.989 158.956L365.074 160.583C365.135 161.741 365.667 163.915 368.5 165.416C369.78 166.057 370.968 166.865 372.034 167.82L372.167 167.946C372.846 168.59 373.371 169.378 373.703 170.252L393.844 216.859C395.298 220.381 396.625 222.576 398.097 223.914C394.6 224.704 391.348 226.336 388.625 228.669C386.659 230.328 385.112 232.426 384.107 234.793C383.102 237.161 382.668 239.732 382.841 242.298C383.163 248.443 386.001 253.313 391.317 256.798C396.301 259.995 402.62 261.415 410.1 261.023C414.823 260.88 419.444 259.616 423.582 257.334C427.482 255.226 430.944 251.783 433.836 247.164C436.63 242.829 439.275 236.999 441.919 229.334C448.845 209.414 454.356 192.766 458.306 179.855C463.727 162.215 464.33 157.849 464.228 155.907C464.056 152.387 461.58 148.723 455.169 149.058ZM47.7367 174.219L47.3878 167.561C46.9743 159.672 49.3974 153.235 54.6569 148.251C59.9322 143.165 67.1409 140.38 76.283 139.896C83.5226 139.517 89.4863 140.704 94.1741 143.458C98.862 146.212 101.329 149.979 101.575 154.759C101.727 156.657 101.391 158.563 100.6 160.296C99.8094 162.028 98.5894 163.531 97.0557 164.66C93.9221 167.185 89.554 168.594 83.9514 168.888C78.6061 169.168 74.3854 168.346 71.2895 166.423C69.8248 165.573 68.6025 164.362 67.7396 162.905C66.8767 161.448 66.4019 159.795 66.3606 158.102C66.2508 156.859 66.4327 155.608 66.8919 154.448C67.3511 153.288 68.0749 152.252 69.0056 151.421C70.899 149.608 73.5648 148.612 77.0032 148.432C77.087 148.337 77.1511 148.226 77.1917 148.107C77.2323 147.987 77.2485 147.86 77.2395 147.734C77.3069 147.512 77.3398 147.282 77.3369 147.05C77.2706 145.784 76.286 145.201 74.3833 145.301C72.6866 145.368 71.0216 145.782 69.4908 146.517C67.96 147.252 66.5959 148.293 65.4822 149.575C64.3548 150.801 63.4899 152.245 62.9405 153.818C62.3911 155.391 62.1689 157.06 62.2874 158.721C62.6341 165.337 66.9637 170.013 75.2762 172.75L93.7485 171.782C93.8964 171.774 94.0348 171.775 94.1635 171.785L98.0594 171.581C105.843 171.173 111.261 173.206 114.313 177.678C116.609 174.789 119.522 172.449 122.838 170.828C126.323 169.131 130.127 168.188 134.001 168.06C140.608 167.714 146.134 169.242 150.581 172.642C152.717 174.207 154.467 176.237 155.699 178.58C156.932 180.922 157.613 183.515 157.692 186.161C157.868 188.346 157.549 190.544 156.76 192.59C155.971 194.636 154.731 196.478 153.134 197.98C149.847 201.055 145.493 202.734 140.072 203.018C134.731 203.298 130.268 202.172 126.683 199.639C125.032 198.514 123.669 197.018 122.702 195.27C121.735 193.522 121.193 191.571 121.117 189.575C120.981 187.951 121.198 186.317 121.752 184.784C122.305 183.251 123.184 181.856 124.326 180.694C126.654 178.3 129.719 177.004 133.52 176.805C133.759 176.384 133.877 175.906 133.86 175.423C133.794 174.157 132.809 173.574 130.906 173.674C128.956 173.767 127.047 174.275 125.309 175.165C123.571 176.055 122.043 177.306 120.827 178.834C119.487 180.336 118.462 182.092 117.813 183.998C117.164 185.903 116.904 187.92 117.049 189.928C117.176 193.381 118.399 196.704 120.541 199.416C123.032 202.197 126.203 204.283 129.743 205.469C131.037 205.947 131.886 206.537 132.291 207.24C132.696 207.942 133.061 208.97 133.146 210.602L134.399 234.504C134.551 237.403 133.087 238.933 130.007 239.094L102.353 240.543C99.547 240.69 98.0683 239.315 97.9164 236.416L95.4038 188.473C95.2377 185.305 94.6584 182.928 93.6658 181.343C92.7602 179.823 91.2178 178.445 89.0385 177.207L80.4386 177.658C81.3624 178.281 82.1106 179.131 82.6113 180.126C83.1004 181.323 83.3528 182.602 83.3545 183.895L86.1377 237.002C86.2186 238.546 85.9152 239.698 85.2273 240.457C84.6277 241.123 83.4672 241.501 81.7459 241.592L55.9391 242.944C54.2178 243.034 52.9798 242.782 52.2252 242.187C51.5717 241.502 51.2049 240.396 51.1249 238.869L48.0073 179.383L38.8819 179.861C37.7934 179.918 37.2253 179.491 37.1779 178.586L37.0499 176.143C37.0025 175.238 37.5228 174.754 38.6113 174.697L47.7367 174.219ZM160.426 143.755C159.686 145.501 159.381 147.401 159.536 149.291C159.58 151.187 160.083 153.045 161.001 154.705C161.919 156.365 163.225 157.779 164.807 158.825C168.095 161.017 172.411 161.971 177.756 161.687C183.102 161.403 187.294 159.956 190.335 157.347C191.822 156.184 192.999 154.672 193.763 152.945C194.527 151.218 194.854 149.33 194.715 147.447C194.666 145.539 194.148 143.672 193.207 142.011C192.265 140.351 190.929 138.948 189.317 137.926C186.02 135.641 181.699 134.64 176.354 134.925C171.009 135.209 166.818 136.655 163.782 139.264C162.317 140.468 161.165 142.009 160.426 143.755ZM195.363 167.573C194.692 166.881 193.496 166.58 191.775 166.67L155.95 168.547C154.862 168.604 154.342 169.089 154.389 169.994L154.474 171.62C154.483 171.957 154.595 172.284 154.796 172.555C155.112 172.889 155.498 173.149 155.927 173.314C158.446 174.642 160.204 176.138 161.201 177.803C162.194 179.389 162.773 181.765 162.939 184.934L164.569 216.037C164.949 223.37 167.102 228.932 171.028 232.724C175.033 236.419 180.523 238.084 187.497 237.718C194.719 237.336 200.175 235.097 203.866 231.003C207.556 226.909 209.211 221.239 208.831 213.991C208.835 212.885 208.638 211.788 208.249 210.753C208.198 210.492 208.056 210.258 207.846 210.094C207.637 209.93 207.376 209.847 207.111 209.861L204.807 209.982C204.591 209.965 204.376 210.013 204.187 210.119C203.998 210.224 203.845 210.384 203.747 210.576C203.474 211.467 203.339 212.395 203.345 213.326C203.105 215.606 202.818 217.074 202.485 217.731C202.367 218.049 202.15 218.321 201.866 218.507C201.582 218.693 201.247 218.784 200.908 218.765C200.626 218.796 200.342 218.741 200.092 218.609C199.841 218.476 199.637 218.271 199.505 218.02C199.11 217.033 198.917 215.978 198.936 214.915L196.623 170.775C196.542 169.238 196.118 168.168 195.363 167.573ZM248.408 215.051C248.521 217.22 249.439 218.261 251.16 218.175C251.606 218.174 252.045 218.062 252.438 217.852C252.831 217.641 253.166 217.336 253.413 216.965L251.214 174.996C250.929 174.653 250.564 174.385 250.151 174.217C249.738 174.048 249.29 173.983 248.847 174.029C247.125 174.119 246.322 175.25 246.436 177.423L248.408 215.051ZM249.989 151.632C249.823 148.459 249.244 146.085 248.251 144.508C247.254 142.834 245.496 141.338 242.978 140.019C242.531 139.812 242.108 139.56 241.714 139.266C241.598 138.965 241.535 138.647 241.525 138.324L241.439 136.692C241.392 135.787 241.912 135.303 243 135.246L278.179 133.402C279.894 133.312 281.091 133.617 281.768 134.305C282.445 134.993 282.94 135.97 283.021 137.508L286.835 210.283C286.817 211.346 287.012 212.402 287.41 213.388C287.54 213.639 287.744 213.844 287.993 213.977C288.242 214.11 288.526 214.164 288.807 214.133C289.178 214.133 289.54 214.019 289.845 213.808C290.15 213.597 290.384 213.299 290.515 212.952C290.964 211.576 291.212 210.141 291.25 208.694C291.244 207.763 291.377 206.836 291.646 205.944C291.745 205.752 291.898 205.593 292.086 205.488C292.275 205.382 292.49 205.334 292.706 205.35L295.016 205.228C295.56 205.2 295.937 205.497 296.154 206.121C296.533 207.112 296.726 208.164 296.723 209.226C297.102 216.465 295.498 222.178 291.91 226.364C288.397 230.448 283.156 232.675 276.187 233.045C267.129 233.52 260.411 230.102 256.035 222.793C252.446 230.52 246.486 234.601 238.153 235.038C230.184 235.456 223.767 232.568 218.904 226.376C214.128 220.09 211.439 211.197 210.836 199.696C210.248 188.47 212.053 179.612 216.252 173.122C220.451 166.633 226.627 163.177 234.778 162.754C241.477 162.402 246.829 164.026 250.834 167.623L249.989 151.632ZM337.477 199.62C337.866 199.79 338.208 200.054 338.472 200.387L339.098 212.342C338.869 212.699 338.557 212.995 338.187 213.203C337.817 213.412 337.402 213.527 336.978 213.538C335.438 213.618 334.621 212.754 334.526 210.944L334.07 202.249C333.975 200.439 334.698 199.494 336.238 199.413C336.662 199.379 337.087 199.45 337.477 199.62ZM341.722 218.328C346.01 225.642 352.727 229.059 361.874 228.58L361.886 228.579C368.86 228.213 374.119 225.968 377.664 221.844C381.252 217.658 382.856 211.946 382.477 204.706C382.48 203.645 382.287 202.592 381.908 201.601C381.691 200.978 381.314 200.68 380.77 200.709L378.46 200.83C378.245 200.813 378.03 200.861 377.842 200.966C377.655 201.072 377.503 201.232 377.406 201.425C377.13 202.315 376.995 203.242 377.005 204.174C376.966 205.622 376.718 207.056 376.27 208.433C376.138 208.779 375.904 209.078 375.599 209.289C375.294 209.5 374.932 209.613 374.561 209.614C374.28 209.645 373.996 209.59 373.747 209.457C373.498 209.324 373.294 209.119 373.164 208.868C372.766 207.882 372.571 206.827 372.589 205.764L371.699 188.785C371.134 177.921 367.669 169.841 361.303 164.543C355.031 159.241 346.102 156.894 334.517 157.501C324.827 158.013 317.136 160.278 311.445 164.294C305.75 168.235 303.062 173.241 303.38 179.312C303.422 181.4 303.935 183.45 304.881 185.312C305.827 187.173 307.181 188.797 308.842 190.061C312.25 192.603 316.712 193.729 322.231 193.44C327.648 193.156 332.006 191.567 335.307 188.674C338.696 185.772 340.281 182.237 340.062 178.069C340.028 176.439 339.642 174.836 338.929 173.369C338.217 171.902 337.196 170.607 335.937 169.572C333.367 167.435 330.183 166.466 326.386 166.665C326.106 166.272 325.942 165.808 325.91 165.326C325.844 164.06 326.762 163.377 328.665 163.278C330.614 163.167 332.565 163.473 334.387 164.176C336.209 164.88 337.859 165.964 339.228 167.357C340.711 168.693 341.91 170.313 342.754 172.122C343.598 173.931 344.069 175.892 344.14 177.887C344.685 188.299 336.683 195.03 320.132 198.08C313.645 199.33 308.886 201.35 305.855 204.14C302.908 206.837 301.551 210.402 301.783 214.837C302.045 219.908 304.157 223.884 308.119 226.764C312.082 229.645 317.187 230.921 323.435 230.594C327.874 230.361 331.539 229.262 334.431 227.295C337.416 225.324 339.846 222.335 341.722 218.328ZM377.212 168.799C376.66 167.402 375.803 166.146 374.703 165.123C373.384 163.921 371.912 162.899 370.324 162.084C369.391 161.588 368.904 161.023 368.871 160.39L368.786 158.764C368.738 157.859 369.259 157.375 370.347 157.318L391.534 156.207C397.694 155.884 402.247 156.145 405.193 156.989C408.041 157.62 410.581 159.221 412.379 161.518C414.224 163.781 416.035 167.181 417.812 171.716L432.913 210.42C433.135 210.627 433.397 210.786 433.683 210.888C433.968 210.99 434.272 211.032 434.575 211.012C435.937 210.941 436.576 210.135 436.491 208.595C436.268 207.065 435.825 205.575 435.174 204.172L420.991 167.475C419.624 163.913 418.459 161.611 417.495 160.57C416.633 159.619 416.055 159.015 415.769 158.757C415.563 158.387 415.447 157.973 415.433 157.55L415.369 156.329C415.321 155.424 415.842 154.94 416.924 154.883L455.362 152.868C458.627 152.697 460.32 153.789 460.439 156.143C460.552 158.312 458.634 165.858 454.683 178.782C450.732 191.706 445.282 208.154 438.334 228.126C435.81 235.429 433.247 241.101 430.646 245.142C428.045 249.276 425.068 252.247 421.715 254.056C418.464 255.952 414.526 257.022 409.903 257.264C403.199 257.615 397.689 256.407 393.372 253.638C389.14 250.86 386.896 247.026 386.64 242.137C386.487 240.143 386.814 238.141 387.594 236.299C388.375 234.458 389.585 232.83 391.123 231.552C394.335 228.748 398.612 227.208 403.953 226.933C408.936 226.671 413.073 227.635 416.365 229.823C417.91 230.807 419.195 232.151 420.108 233.74C421.021 235.329 421.536 237.115 421.609 238.946C421.76 241.845 420.881 244.114 418.97 245.754C417.157 247.486 414.483 248.445 410.948 248.63C410.783 249.02 410.712 249.443 410.74 249.866C410.806 251.131 411.881 251.709 413.965 251.6C415.619 251.56 417.246 251.172 418.739 250.46C420.233 249.749 421.559 248.731 422.633 247.472C423.741 246.236 424.584 244.786 425.11 243.212C425.637 241.638 425.835 239.973 425.694 238.32C425.641 236.334 425.164 234.382 424.296 232.596C423.428 230.809 422.187 229.229 420.658 227.961C417.529 225.4 413.084 223.772 407.324 223.075C404.034 222.702 401.87 222.09 400.831 221.239C399.793 220.388 398.635 218.444 397.359 215.405L377.212 168.799Z" fill="#2EB77D"/>
<defs>
<filter id="filter0_dd_520_86534" x="3.01944" y="4.29916" width="487.774" height="326.522" filterUnits="userSpaceOnUse" color-interpolation-filters="sRGB">
<feFlood flood-opacity="0" result="BackgroundImageFix"/>
<feColorMatrix in="SourceAlpha" type="matrix" values="0 0 0 0 0 0 0 0 0 0 0 0 0 0 0 0 0 0 127 0" result="hardAlpha"/>
<feOffset dy="-2.37665"/>
<feGaussianBlur stdDeviation="0.594162"/>
<feColorMatrix type="matrix" values="0 0 0 0 0 0 0 0 0 0 0 0 0 0 0 0 0 0 0.06 0"/>
<feBlend mode="normal" in2="BackgroundImageFix" result="effect1_dropShadow_520_86534"/>
<feColorMatrix in="SourceAlpha" type="matrix" values="0 0 0 0 0 0 0 0 0 0 0 0 0 0 0 0 0 0 127 0" result="hardAlpha"/>
<feOffset dy="2.37665"/>
<feGaussianBlur stdDeviation="0.594162"/>
<feColorMatrix type="matrix" values="0 0 0 0 0 0 0 0 0 0 0 0 0 0 0 0 0 0 0.2 0"/>
<feBlend mode="normal" in2="effect1_dropShadow_520_86534" result="effect2_dropShadow_520_86534"/>
<feBlend mode="normal" in="SourceGraphic" in2="effect2_dropShadow_520_86534" result="shape"/>
</filter>
</defs>
</svg>
