<svg width="216" height="70" viewBox="0 0 216 70" fill="none" xmlns="http://www.w3.org/2000/svg">
<g opacity="0.5">
<path d="M1.88764 69.2979C1.88764 69.2979 1.94165 69.2979 1.94165 69.2439C2.26564 69.2439 2.53565 69.1359 2.64364 68.8659C2.96765 68.3799 3.23765 67.8399 3.56165 67.1379C10.2576 53.5299 18.3576 37.5459 27.7536 22.8039L27.8616 22.5879H28.0776C28.8336 22.5879 29.5356 22.5879 30.2916 22.5879H31.7496H32.3436C36.3396 22.6419 40.4436 22.6959 44.4396 22.9659C45.6816 23.0739 47.0316 23.1279 48.3276 23.1279H49.5696H49.8396C50.1096 23.0739 50.3796 23.0739 50.6496 23.0199C50.9196 22.9659 51.2436 22.6419 51.2436 22.3179C51.2436 22.0479 50.9736 21.6159 50.7036 21.5619C50.5416 21.5079 50.2716 21.4539 50.1096 21.4539C49.4076 21.3999 48.7056 21.3999 48.0036 21.3459C46.2216 21.2379 44.3856 21.1839 42.6036 21.1299C41.1456 21.0759 39.6876 21.0219 38.2296 21.0219C35.8536 20.9139 33.4236 20.8599 30.9936 20.8599H29.7516H28.9956L29.3736 20.2119L32.7216 15.1899C32.9376 14.9199 33.0996 14.5959 33.3156 14.3259C33.3696 14.1639 33.4236 13.9479 33.2616 13.6239C33.0996 13.2999 32.8296 13.1379 32.5056 13.1379C32.3436 13.1379 32.1816 13.1919 32.0196 13.3539C31.6416 13.6779 31.3716 14.1099 31.1016 14.4339C29.7516 16.4319 28.3476 18.5379 26.9976 20.6439L26.8356 20.8599H25.3776H23.9196C22.6776 20.8599 21.4356 20.9139 20.1936 20.9679H19.7076L14.9556 21.1299C14.0916 21.1299 13.2276 21.1839 12.3636 21.2379C10.8516 21.2919 9.33965 21.3999 7.88165 21.4539C7.50365 21.4539 7.17964 21.4539 6.80164 21.5079C6.36964 21.5619 5.93765 21.6159 5.50565 21.6159C4.85765 21.6159 2.15765 21.6699 1.45565 21.9399C1.29365 21.9939 1.13164 22.1019 0.969645 22.2099C0.861645 22.2639 0.591645 22.5339 0.753644 23.0739C0.807645 23.3979 1.02364 23.5599 1.34765 23.6139H1.67164C1.72564 23.6139 1.83364 23.6139 1.94165 23.6679C2.10365 23.6139 2.26564 23.6139 2.42765 23.6139L3.93965 23.4519C5.77565 23.3439 7.61164 23.1819 9.50165 23.1279C12.0396 22.9659 14.3616 22.8579 16.6296 22.8039C17.8716 22.7499 19.0596 22.7499 20.2476 22.7499L21.3816 22.6959C22.4616 22.6959 23.5416 22.6959 24.6216 22.6419H25.7016L25.3236 23.2899C16.8456 36.7899 9.60965 50.7759 1.34765 67.6239V67.7319C1.18564 67.9479 1.07764 68.1639 1.07764 68.3799C1.07764 68.6499 1.13164 68.8659 1.29365 69.0279C1.45564 69.1899 1.67164 69.2979 1.88764 69.2979Z" fill="#252B33"/>
<path d="M38.3891 42.9999H38.4431C38.7671 42.9999 39.0911 42.9459 39.5231 42.7839C40.2791 42.5679 41.0351 42.2439 41.8991 41.8659L44.5991 40.5699C46.3271 39.7059 48.1631 38.7879 49.9991 38.0319L50.3231 37.8699C50.8631 37.6539 51.3491 37.4379 51.9431 37.3839C52.3211 37.3839 52.6451 37.2219 52.9691 36.8979C53.2931 36.6279 53.4551 36.1419 53.2391 35.7099C53.0771 35.3319 52.6451 35.2779 52.3751 35.2779H52.2671C51.9431 35.2779 51.5651 35.4399 51.2411 35.6019L51.0791 35.6559C50.6471 35.8179 50.2691 36.0339 49.8371 36.1959C48.0551 36.9519 46.2191 37.7619 44.4911 38.6259C43.5191 39.1119 42.5471 39.5979 41.6291 40.0299L40.9811 40.3539L40.8191 40.4079C40.5491 40.5159 40.2791 40.6779 39.9011 40.6779H39.6311L39.4151 40.6239L39.3071 40.4079C39.1451 39.9219 39.2531 39.4359 39.3611 39.0039C39.4151 38.9499 39.4151 38.8959 39.4151 38.8419C39.6311 38.1939 39.6851 37.5999 39.5771 37.0599C39.4691 36.0339 38.6591 35.2779 37.6871 35.2779C37.5251 35.2779 37.4171 35.2779 37.3091 35.3319C36.9311 35.3859 36.6071 35.4939 36.2291 35.6559L36.0131 35.7099C34.7171 36.1419 33.4751 36.7899 32.2331 37.3839L28.8851 39.0039L28.6151 39.1659C28.1831 39.3279 27.8051 39.4899 27.3191 39.4899C27.0491 39.4899 26.8331 39.3819 26.6711 39.1659C26.5631 38.9499 26.5091 38.7339 26.6171 38.5179L26.6711 38.3559C26.8331 37.8699 26.9951 37.3839 27.2651 36.8979C30.3971 30.7419 34.7171 25.1799 40.0091 20.4819L40.2251 20.2659C40.4951 20.1039 40.7111 19.8879 40.8191 19.6719C40.9811 19.4019 40.9811 19.1319 40.8191 18.9159C40.7111 18.6459 40.4411 18.4839 40.1711 18.4839H40.1171C39.8471 18.4839 39.5771 18.5379 39.4151 18.7539L38.9291 19.1319C38.4431 19.5639 37.9031 19.9959 37.4171 20.4819C35.5271 22.2099 33.6911 24.2079 31.6391 26.8539C28.9931 30.2559 26.9411 33.3879 25.4831 36.5199C25.2131 37.1679 24.9431 37.8159 24.7271 38.5719C24.4571 39.3819 24.7271 39.9759 24.9971 40.3539C25.4291 40.9479 26.0771 41.3259 26.7791 41.3259H26.9411C27.5891 41.3259 28.1831 41.2179 28.7771 40.9479L31.8011 39.5979C32.3411 39.3279 32.8811 39.0579 33.3671 38.7879C34.0151 38.4639 34.6631 38.1939 35.3111 37.8699C35.7431 37.6539 36.2291 37.4919 36.6611 37.3839C36.7691 37.3299 36.9311 37.3299 36.9851 37.3299C37.2551 37.3299 37.4171 37.3839 37.5791 37.5459C37.6871 37.6539 37.7951 37.8699 37.7411 38.1939C37.6871 38.5179 37.6331 38.7879 37.5251 39.0039V39.2199L37.3091 39.9219C37.2011 40.4079 37.0391 40.8939 36.9851 41.3259C36.8771 41.8119 36.9851 42.1899 37.2551 42.5139C37.4711 42.7839 37.9031 42.9459 38.3891 42.9999Z" fill="#252B33"/>
<path d="M55.8024 41.1639C55.9104 41.1639 56.0724 41.1639 56.2344 41.1639H56.6124C56.9364 41.1639 57.2604 41.1099 57.5844 41.0559C58.8804 40.8399 60.2844 40.4619 61.6344 40.0839C62.7684 39.7599 63.9024 39.4899 64.9824 39.1659C66.1704 38.7879 67.3584 38.5179 68.4924 38.1939C69.9504 37.7619 71.4084 37.4919 72.8664 37.1139L73.5144 36.9519C74.0004 36.8439 74.3244 36.7359 74.5944 36.4659C74.8644 36.1959 74.9184 35.9259 74.8104 35.6019C74.7024 35.2779 74.3784 35.0619 74.0544 35.0619C73.8924 35.0619 73.7304 35.1159 73.5684 35.1159C72.4884 35.1159 71.4624 35.6559 70.4364 35.9259C68.2224 36.5199 65.9544 36.9519 63.7404 37.6539C61.7964 38.2479 59.6364 38.8419 56.9364 39.3819C56.6664 39.4359 56.3964 39.4899 56.1264 39.4899C55.5864 39.4899 55.0464 39.3279 54.5064 39.0579C54.2904 38.9499 54.1824 38.6259 54.2364 38.4099C54.2904 38.1939 54.3984 37.9239 54.6684 37.8699C54.8844 37.8159 55.1004 37.7619 55.2624 37.7619H55.4244C57.0984 37.7619 58.6104 36.8439 59.6904 35.4399C59.8524 35.2239 60.0144 35.0619 60.1224 34.8459C60.5004 34.1439 60.5544 33.4419 60.2304 32.9019C59.9064 32.3619 59.3124 31.9839 58.5564 31.9839H58.2324C57.4764 31.9839 56.7744 32.0919 56.1804 32.4159C54.9384 33.0639 54.0204 33.8739 53.2104 34.8459C52.6704 35.4939 52.3464 36.1419 52.1844 36.8439C51.9144 37.9239 52.0224 38.8959 52.5084 39.6519C52.9944 40.4079 53.9124 40.8939 54.9384 41.1099C55.2084 41.1639 55.4784 41.1639 55.8024 41.1639ZM56.4504 35.6019C56.2884 35.6019 56.1264 35.4939 56.0184 35.4399L55.8564 35.3319L55.8024 35.1159C55.8024 35.0079 55.8564 34.7919 55.9644 34.6839C56.3964 34.2519 56.7744 33.9819 57.2604 33.9819H57.3144C57.5304 33.9819 57.6384 34.1439 57.6924 34.1979L57.8544 34.3599L57.8004 34.5759C57.8004 34.6299 57.8004 34.7379 57.6924 34.8459C57.3684 35.1699 57.0444 35.4399 56.5584 35.6019H56.4504Z" fill="#252B33"/>
<path d="M82.0414 50.9379C82.2574 50.9379 82.5274 50.8299 82.6354 50.7219C82.8514 50.5059 83.0134 50.2359 83.1754 49.9659C84.4714 47.7519 85.9294 45.6999 87.7654 43.2699C88.3054 42.5679 88.8454 41.9199 89.4934 41.2719C89.7094 41.0559 89.9794 40.7859 90.1954 40.5159C90.4654 40.1919 90.7894 40.0299 91.1674 40.0299C91.3834 40.0299 91.5994 40.0839 91.8154 40.1919C93.1114 40.8399 94.5694 41.1639 96.3514 41.1639C96.7834 41.1639 97.2154 41.1099 97.7014 41.1099C99.6994 41.1099 101.697 40.5699 103.641 39.9759C105.801 39.3279 107.961 38.6259 110.067 38.0859C110.877 37.8699 111.795 37.7079 112.605 37.3299C112.713 37.2759 112.767 37.2759 112.875 37.2759C112.983 37.2759 113.145 37.2219 113.253 37.1679C113.577 37.0059 113.739 36.6279 113.685 36.2499C113.631 35.9259 113.307 35.6019 112.929 35.6019H112.713C112.389 35.6019 112.011 35.6559 111.579 35.8179C109.689 36.5199 107.691 36.8979 105.693 37.4919C104.181 37.9239 102.615 38.1939 101.157 38.7879L100.887 38.8959C100.725 38.9499 100.617 38.9499 100.455 38.9499C100.239 38.9499 100.077 38.8419 99.8614 38.7339L99.6994 38.6259V38.4639C99.6994 37.9779 99.9154 37.7079 100.131 37.4919L100.239 37.3839C100.725 36.8979 100.941 36.2499 101.211 35.6559C101.427 35.1699 101.427 34.6299 101.373 34.0359C101.319 33.2259 100.779 32.7399 99.9694 32.5239C99.7534 32.4699 99.5914 32.5239 99.4294 32.5239C98.7814 32.5239 98.0794 32.6859 97.3774 33.0639C95.9194 33.8739 94.1374 34.4679 92.4634 36.1419C92.4094 36.1959 92.3014 36.2499 92.1934 36.3579C91.8694 36.6819 91.5454 37.0059 91.0054 37.0059H90.5734V36.6279C90.5734 36.0879 90.6814 35.6559 90.9514 35.3859C91.0054 35.3319 91.0594 35.2239 91.1134 35.1159C91.3834 34.5759 91.7074 34.0359 92.0314 33.4959C92.3014 33.0099 92.5174 32.4699 92.8414 31.9299C93.0034 31.6599 93.1654 31.3359 93.2194 31.0119C93.2734 30.7959 93.2194 30.5259 93.1114 30.3639C92.9494 30.1479 92.6794 30.0399 92.4094 30.0399H92.3014C91.9774 30.0399 91.7614 30.2559 91.5994 30.6339C91.4914 30.9039 91.3294 31.0659 91.2214 31.2819L90.2494 33.1179C87.4954 38.1399 84.4174 43.5399 81.6634 49.0479C81.5014 49.3719 81.3394 49.6419 81.2314 49.9659C81.1234 50.2899 81.3394 50.6679 81.6094 50.8299C81.7174 50.8839 81.8794 50.9379 82.0414 50.9379ZM95.4334 38.0319C95.3794 38.0319 95.3254 37.9779 95.2714 37.9779C95.1634 37.9779 95.0554 37.9239 94.8934 37.9239C94.7314 37.9239 94.5694 37.7079 94.4614 37.4919C94.3534 37.2759 94.4614 36.9519 94.6234 36.7899C95.7574 35.6559 97.0534 34.5219 98.4034 34.5219C98.4574 34.5219 98.5654 34.4679 98.6734 34.4679C98.8354 34.4679 99.1054 34.5759 99.2674 34.7919C99.4294 35.0079 99.3754 35.3859 99.2674 35.6019C98.5654 37.0599 97.2154 38.0319 95.5414 38.0319H95.4334Z" fill="#252B33"/>
<path d="M114.028 41.3799C114.19 41.3799 114.406 41.3259 114.568 41.1639C114.784 40.9479 115 40.7319 115.27 40.4079C116.08 39.4359 116.836 38.2479 117.484 37.1139C117.7 36.7359 117.916 36.3579 118.132 36.0339L118.618 35.2239C118.726 35.0619 118.78 34.9539 118.834 34.7919C118.888 34.6299 119.212 34.3059 119.59 34.3059C119.914 34.3059 120.184 34.5759 120.346 34.7919C121.588 36.4659 123.316 37.2219 125.26 37.2219H126.124C127.906 37.2219 129.742 37.2219 131.577 36.9519C132.333 36.8439 133.036 36.7359 133.738 36.7359C134.062 36.7359 134.764 36.6279 134.764 36.6279H134.818C134.98 36.6279 135.141 36.6819 135.303 36.6819C135.735 36.6819 136.059 36.5199 136.329 36.0339C136.491 35.7639 136.491 35.4399 136.383 35.1699C136.275 34.8999 136.006 34.7379 135.736 34.7379H135.357C135.195 34.7379 135.034 34.7379 134.872 34.7919C133.036 35.3859 131.038 35.2779 128.824 35.3859C127.636 35.4399 126.556 35.4939 125.476 35.4939H125.206C124.126 35.4939 123.154 35.1159 122.29 34.3059C121.534 33.6039 121.426 32.6859 121.426 31.8219V31.6599C121.426 30.9579 121.048 30.6879 120.778 30.5799C120.67 30.5259 120.562 30.5259 120.4 30.5259C120.13 30.5259 119.86 30.6339 119.59 30.9039C119.374 31.1199 119.212 31.2819 119.05 31.4979C118.834 31.7679 118.618 32.0379 118.456 32.3079C118.294 32.5779 118.078 32.9019 117.808 33.1719C117.754 33.2259 117.7 33.3339 117.646 33.4419C117.484 33.7659 117.268 34.2519 116.782 34.2519C116.728 34.2519 116.674 34.1979 116.674 34.1979C115.972 34.0899 116.026 33.3879 116.026 33.1719L115.972 32.4699C115.972 32.0919 115.54 31.9299 115.162 31.9299C114.784 31.9299 114.514 32.0919 114.406 32.4699C114.352 32.6859 114.244 32.9559 114.244 33.1179C114.244 34.2519 113.812 35.2239 113.812 36.3039V36.4119C113.812 37.2759 113.434 38.0319 113.218 38.8419C113.056 39.3819 113.056 39.9219 113.056 40.5159C113.056 40.8939 113.218 41.1639 113.542 41.2719C113.704 41.3259 113.866 41.3799 114.028 41.3799Z" fill="#252B33"/>
<path d="M134.977 42.0279C136.273 42.1359 137.353 41.5959 138.379 40.7319C138.811 40.3539 139.135 39.9219 139.567 39.4899L139.675 39.3819C140.053 39.0039 140.431 38.7879 140.917 38.7879C143.455 38.7879 145.939 38.0859 148.315 37.4919C149.179 37.2759 150.097 37.1139 150.961 36.8979C151.447 36.7899 151.717 36.6819 151.987 36.5199C152.311 36.3039 152.419 35.8719 152.365 35.6559C152.257 35.2239 151.987 34.9539 151.609 34.9539H151.339C151.015 34.9539 150.745 35.0079 150.475 35.1159C149.989 35.3319 149.611 35.4399 149.179 35.5479C147.505 35.9799 145.885 36.2499 144.049 36.6819C143.563 36.7899 143.131 36.8979 142.645 36.8979C142.483 36.8979 142.321 36.9519 142.213 36.9519C141.403 36.9519 141.241 36.1959 141.241 35.8719C141.241 35.8179 141.241 35.7639 141.241 35.7099V35.6019C141.025 34.0899 140.053 33.0639 138.757 33.0639C138.217 33.0639 137.623 33.2799 137.083 33.7119C135.355 35.1159 134.221 36.4659 133.357 37.9239C133.141 38.3019 132.979 38.6799 132.871 39.1119C132.655 39.8679 132.763 40.6239 133.195 41.1639C133.627 41.7039 134.275 41.9739 134.977 42.0279ZM138.487 36.6819C138.271 36.6819 137.623 36.6279 137.623 35.9799C137.623 35.7639 137.677 35.5479 137.839 35.3859C138.109 35.1159 138.325 35.0079 138.649 35.0079C138.865 35.0079 139.027 35.1159 139.189 35.2779C139.351 35.4399 139.405 35.7099 139.405 35.9799C139.405 36.4119 139.027 36.6819 138.541 36.6819H138.487ZM135.355 40.1919C135.139 40.1919 134.923 40.0839 134.815 39.8679C134.707 39.6519 134.599 39.4899 134.653 39.3279C134.707 39.1119 134.761 38.9499 134.869 38.7339C135.193 38.0859 135.571 37.7619 136.057 37.7619C136.435 37.7619 136.705 38.0859 137.245 38.3559C137.353 38.4099 137.353 38.5179 137.353 38.6259L137.407 38.7339V38.8419V38.8959C137.407 39.0039 137.407 39.1659 137.245 39.3279C136.759 39.8139 136.165 40.0839 135.409 40.1919H135.355Z" fill="#252B33"/>
<path d="M151.139 42.0279C152.435 42.1359 153.515 41.5959 154.541 40.7319C154.973 40.3539 155.297 39.9219 155.729 39.4899L155.837 39.3819C156.215 39.0039 156.593 38.7879 157.079 38.7879C159.617 38.7879 162.101 38.0859 164.477 37.4919C165.341 37.2759 166.259 37.1139 167.123 36.8979C167.609 36.7899 167.879 36.6819 168.149 36.5199C168.473 36.3039 168.581 35.8719 168.527 35.6559C168.419 35.2239 168.149 34.9539 167.771 34.9539H167.501C167.177 34.9539 166.907 35.0079 166.637 35.1159C166.151 35.3319 165.773 35.4399 165.341 35.5479C163.667 35.9799 162.047 36.2499 160.211 36.6819C159.725 36.7899 159.293 36.8979 158.807 36.8979C158.645 36.8979 158.483 36.9519 158.375 36.9519C157.565 36.9519 157.403 36.1959 157.403 35.8719C157.403 35.8179 157.403 35.7639 157.403 35.7099V35.6019C157.187 34.0899 156.215 33.0639 154.919 33.0639C154.379 33.0639 153.785 33.2799 153.245 33.7119C151.517 35.1159 150.383 36.4659 149.519 37.9239C149.303 38.3019 149.141 38.6799 149.033 39.1119C148.817 39.8679 148.925 40.6239 149.357 41.1639C149.789 41.7039 150.437 41.9739 151.139 42.0279ZM154.649 36.6819C154.433 36.6819 153.785 36.6279 153.785 35.9799C153.785 35.7639 153.839 35.5479 154.001 35.3859C154.271 35.1159 154.487 35.0079 154.811 35.0079C155.027 35.0079 155.189 35.1159 155.351 35.2779C155.513 35.4399 155.567 35.7099 155.567 35.9799C155.567 36.4119 155.189 36.6819 154.703 36.6819H154.649ZM151.517 40.1919C151.301 40.1919 151.085 40.0839 150.977 39.8679C150.869 39.6519 150.761 39.4899 150.815 39.3279C150.869 39.1119 150.923 38.9499 151.031 38.7339C151.355 38.0859 151.733 37.7619 152.219 37.7619C152.597 37.7619 152.867 38.0859 153.407 38.3559C153.515 38.4099 153.515 38.5179 153.515 38.6259L153.569 38.7339V38.8419V38.8959C153.569 39.0039 153.569 39.1659 153.407 39.3279C152.921 39.8139 152.327 40.0839 151.571 40.1919H151.517Z" fill="#252B33"/>
<path d="M167.193 49.1559C167.571 49.1559 167.949 49.0479 168.381 48.8859C169.245 48.5079 170.001 47.8599 170.649 46.9959C172.755 44.1339 173.781 41.3259 173.727 38.3019V38.1939V37.7619C173.727 36.9519 174.213 36.7899 174.537 36.7899C174.645 36.7899 174.753 36.8439 174.969 36.8439C175.077 36.8979 175.185 36.9519 175.293 36.9519L175.347 37.0059C176.859 37.4919 178.371 37.7079 180.315 37.7079H180.801H180.855C180.963 37.7079 181.125 37.7619 181.287 37.7619C182.205 37.7619 183.177 37.5459 184.257 37.3299C184.743 37.2219 185.283 37.1679 185.769 37.0599C185.931 37.0599 186.039 36.9519 186.201 36.8979C186.525 36.7359 186.633 36.5199 186.633 36.1419C186.633 35.8179 186.471 35.6019 186.147 35.4399C185.931 35.3319 185.769 35.3319 185.607 35.3319C185.499 35.3319 185.391 35.3319 185.283 35.3319L184.635 35.4939C184.311 35.5479 183.987 35.6559 183.609 35.6559L183.123 35.7639C182.151 35.8719 181.125 36.0339 180.099 36.0339C179.613 36.0339 179.127 35.9799 178.641 35.9259C177.291 35.7099 176.049 35.3859 174.915 35.0079L174.159 34.6839C173.457 34.4679 172.755 34.1979 172.053 33.8199C171.405 33.4959 171.243 33.0099 171.567 32.4159C171.621 32.1999 171.729 32.0379 171.837 31.8759C173.781 28.5819 176.157 24.8019 178.911 21.4539L179.019 21.3459C179.181 21.0759 179.397 20.8599 179.451 20.6439C179.559 20.4279 179.505 20.2119 179.397 19.9959C179.289 19.7799 179.073 19.6179 178.857 19.6179H178.641C178.371 19.6179 178.155 19.7259 177.939 19.9419C177.453 20.4819 176.967 21.0219 176.535 21.6159C172.431 27.1239 169.191 32.5239 166.653 38.1399C165.843 39.8139 165.249 41.5959 164.763 43.4319C164.547 44.2959 164.493 45.2139 164.601 46.4019C164.655 47.0499 164.925 47.6979 165.411 48.2379C165.951 48.8319 166.545 49.1559 167.193 49.1559ZM167.355 47.2119C167.139 47.2119 166.491 47.1039 166.275 46.0779C166.167 45.4839 166.275 44.9439 166.329 44.5119C166.599 43.1619 167.031 41.8119 167.517 40.5699C168.111 38.9499 168.867 37.3839 169.461 36.2499C169.515 36.1959 169.515 36.1419 169.515 36.1419C169.677 35.8719 169.839 35.4399 170.379 35.4399H170.433C170.919 35.4399 171.189 35.8179 171.297 36.0879L171.405 36.2499C171.945 37.0599 171.945 37.9779 171.945 38.8959C171.783 41.5959 170.811 44.0799 168.975 46.2399C168.759 46.5099 168.543 46.6719 168.327 46.8879C167.949 47.1039 167.679 47.2119 167.355 47.2119Z" fill="#252B33"/>
<path d="M190.637 37.8159C190.907 37.8159 191.285 37.7619 191.501 37.4379C191.717 37.2219 191.771 36.8439 191.717 36.4119C191.663 35.8179 191.771 35.3859 192.041 34.9539L193.067 33.6039C195.659 30.2559 198.467 27.0699 200.573 24.6399C202.409 22.4799 204.353 20.3739 206.189 18.2679L209.915 14.0559C211.103 12.7059 212.453 11.0859 213.587 9.35789C214.451 8.00789 215.045 6.87389 215.369 5.68589C215.801 4.01189 215.423 1.90589 212.939 0.933887C211.967 0.501886 210.941 0.285889 209.969 0.285889H209.861C204.839 0.393887 200.249 1.85189 196.253 4.71389C195.713 5.09189 195.227 5.57789 194.741 6.06389L194.363 6.38789C194.039 6.76589 193.769 7.14389 193.607 7.62989C193.499 7.95389 193.499 8.33189 193.661 8.60189C193.823 8.92589 194.093 9.08789 194.417 9.19589C194.525 9.24989 194.633 9.24989 194.741 9.24989C195.389 9.24989 196.091 8.87189 196.091 8.38589C196.091 7.25189 196.793 6.65789 197.387 6.22589C200.735 3.84989 204.569 2.49989 209.051 2.22989H209.159H209.753C210.401 2.28389 211.103 2.28389 211.805 2.55389C213.479 3.14789 213.911 4.01189 213.371 5.63189C213.155 6.22589 212.939 6.76589 212.615 7.25189C212.183 8.00789 211.643 8.87189 210.995 9.68189C210.077 10.8699 209.105 12.0579 208.079 13.1919C206.621 14.9199 205.109 16.6479 203.597 18.3219C202.031 20.1039 200.519 21.8319 198.953 23.5599C196.469 26.3679 193.877 29.4459 191.339 32.7399C190.745 33.4959 190.205 34.3599 189.719 35.0619C189.449 35.5479 189.287 35.9799 189.287 36.4119C189.287 36.7899 189.395 37.1679 189.665 37.4379C189.935 37.6539 190.259 37.8159 190.637 37.8159ZM189.125 45.3759C189.449 45.3759 189.665 45.2139 189.881 44.9439C190.205 44.5119 190.475 44.0799 190.745 43.6479L191.501 42.5679C191.717 42.2439 191.663 41.9199 191.555 41.7579C191.393 41.4339 191.015 41.2719 190.583 41.2179H190.529C190.205 41.2179 189.881 41.4339 189.665 41.7579C189.179 42.4599 188.747 43.2699 188.369 43.9179C188.261 44.1339 188.261 44.3499 188.261 44.6739C188.369 45.0519 188.693 45.3759 189.125 45.3759Z" fill="#252B33"/>
</g>
</svg>
