<svg width="146" height="74" viewBox="0 0 146 74" fill="none" xmlns="http://www.w3.org/2000/svg">
<path d="M48.6013 71.7349C50.5213 68.9749 49.3613 65.7349 45.7613 63.4949L41.7213 60.9749C38.2413 58.7749 38.5213 55.0149 42.3213 55.0149C46.9613 55.0149 48.0813 58.2949 48.3613 60.6549H48.8413V55.7749C48.8413 55.7749 46.9213 54.4949 42.3213 54.4949C38.2413 54.4949 37.0413 56.7749 37.0413 56.7749C35.4413 59.5349 36.3213 61.9349 40.1613 64.4949L44.2013 66.9349C47.2413 68.9349 47.7613 73.1749 43.5213 73.1749C38.3213 73.1749 37.3213 69.2949 37.0413 66.6549H36.5213V72.0949C36.5213 72.0949 38.6813 73.6949 43.5213 73.6949C47.2413 73.6949 48.6013 71.7349 48.6013 71.7349Z" fill="#252B33"/>
<path d="M69.5609 68.2149C68.8409 69.8549 66.361 71.7349 63.441 71.4949C60.601 71.2149 57.601 69.0149 57.601 63.6949C57.601 56.2149 62.0009 55.0149 63.601 55.0149C66.281 55.0149 67.361 56.1349 67.001 56.2149C66.601 56.2549 66.161 56.5749 65.881 57.0549C65.361 57.8949 65.641 59.0549 66.561 59.5749C67.401 60.0949 68.6009 59.7349 69.1209 58.8949C69.4809 58.2549 69.4009 57.4949 69.0809 56.9349C68.7209 56.2949 67.5209 54.4949 63.601 54.4949C57.4809 54.4949 53.8809 59.2149 53.8809 64.1349C53.8809 70.0149 58.121 73.6949 62.601 73.6949C67.521 73.6949 69.5609 70.4149 70.0009 68.4149L69.5609 68.2149Z" fill="#252B33"/>
<path d="M90.9556 72.8549C89.5556 72.4949 89.3156 71.8149 89.3156 69.6149V60.9349C89.3156 56.1349 87.0756 54.4949 83.7956 54.4949C81.1956 54.4949 78.1956 56.7349 77.5956 59.0149V43.8149L72.0756 45.0149V45.5349C73.7156 45.8149 74.0756 46.2949 74.0756 47.6949V69.6149C74.0756 71.6549 73.9956 72.3749 72.4756 72.8149V73.3349H79.2356V72.8149C77.7956 72.4549 77.5956 71.8149 77.5956 69.6149V59.7349C78.2356 58.3749 79.7156 56.5349 81.7156 56.5349C84.5156 56.5349 85.8756 58.2149 85.8756 61.0949V69.6149C85.8756 71.6549 85.7956 72.4149 84.2756 72.8549V73.3349H90.9556V72.8549Z" fill="#252B33"/>
<path d="M108.429 64.0949C108.429 71.3349 106.389 73.1749 103.349 73.1749C100.269 73.1749 98.1891 71.3349 98.1891 64.0949C98.1891 56.8549 100.269 55.0149 103.349 55.0149C106.389 55.0149 108.429 56.8549 108.429 64.0949ZM112.549 64.0949C112.549 58.8149 109.469 54.4949 103.349 54.4949C97.2691 54.4949 94.1091 58.8149 94.1091 64.0949C94.1091 69.3349 97.2691 73.6949 103.349 73.6949C109.469 73.6949 112.549 69.3349 112.549 64.0949Z" fill="#252B33"/>
<path d="M130.909 64.0949C130.909 71.3349 128.869 73.1749 125.829 73.1749C122.749 73.1749 120.669 71.3349 120.669 64.0949C120.669 56.8549 122.749 55.0149 125.829 55.0149C128.869 55.0149 130.909 56.8549 130.909 64.0949ZM135.029 64.0949C135.029 58.8149 131.949 54.4949 125.829 54.4949C119.749 54.4949 116.589 58.8149 116.589 64.0949C116.589 69.3349 119.749 73.6949 125.829 73.6949C131.949 73.6949 135.029 69.3349 135.029 64.0949Z" fill="#252B33"/>
<path d="M145.508 72.8149C144.108 72.4549 143.908 71.8549 143.908 69.6549V43.8149L138.388 44.8949V45.4149C140.028 45.7349 140.388 46.2949 140.388 47.6949V69.6549C140.388 71.6949 140.308 72.3749 138.788 72.8149V73.3349H145.508V72.8149Z" fill="#252B33"/>
<path d="M3.29985 34.2341C4.42185 34.3661 5.41185 34.3001 6.26985 34.0361C9.76785 32.9141 11.8799 31.1321 13.0679 28.3601C13.3319 27.5681 13.9259 27.1061 14.6519 26.9741C14.7839 26.9741 14.8499 26.9081 14.9819 26.9081L15.3119 26.7761L17.4899 26.3141C20.6579 25.5881 23.8259 24.7961 26.9939 24.0701C27.7859 23.9381 28.4459 23.8061 29.2379 23.8721C29.5679 23.9381 29.8979 23.8721 30.2939 23.7401C30.7559 23.5421 31.0859 23.0801 31.0199 22.6181C30.9539 22.0901 30.5579 21.6941 30.0299 21.6281C29.8319 21.5621 29.6339 21.6281 29.5019 21.6281C29.3039 21.6281 29.1059 21.6941 28.9079 21.6941C28.3799 21.7601 27.8519 21.8261 27.3239 21.9581C24.4199 22.6181 21.5819 23.2121 18.7439 23.8721L15.9719 24.5321L14.2559 24.9281C14.0579 24.9941 13.7939 24.9941 13.5959 24.9281C13.2659 24.9281 13.0019 24.7301 12.8039 24.4661C12.1439 23.7401 10.8239 23.1461 9.96585 22.3541C9.70185 22.0901 9.70185 21.6941 9.89985 21.3641C10.2959 20.7041 11.4839 20.9681 12.2099 20.9681C12.5399 20.9021 12.8039 20.7701 13.0019 20.4401C13.1339 20.1761 13.1339 19.7801 12.9359 19.4501C12.7379 19.1201 12.4739 18.9221 12.1439 18.8561C12.0119 18.8561 11.9459 18.8561 11.8799 18.7901C10.0319 18.5261 8.18385 18.9221 6.20385 20.0441C6.13785 20.1101 6.00585 20.1761 5.93985 20.3081C5.34585 20.8361 5.54385 22.2221 6.07185 22.7501C6.33585 23.0141 6.66585 23.2121 6.92985 23.4101C7.12785 23.4761 7.32585 23.5421 7.58985 23.6741C7.78785 23.7401 7.98585 23.8061 8.18385 23.9381L8.31585 24.0041C9.56985 24.4661 10.0319 24.4001 10.3619 25.3901C10.2959 25.6541 10.1639 26.0501 9.50385 26.3141L8.38185 26.7101C8.18385 26.7761 7.91985 26.8421 7.72185 26.9741C5.80785 27.6341 4.28985 28.2941 2.96985 29.0861C2.24385 29.4821 1.51785 29.9441 1.05585 30.6701C0.659852 31.1981 0.527852 31.7921 0.659852 32.3201C0.791852 32.8481 1.12185 33.3101 1.71585 33.7061C2.17785 33.9701 2.70585 34.1021 3.16785 34.1681L3.29985 34.2341ZM4.55385 32.1221L4.35585 31.9241C4.28985 31.8581 4.09185 31.7261 4.02585 31.4621C4.02585 31.1321 4.15785 30.8021 4.42185 30.6701C5.67585 29.8781 6.99585 29.3501 8.31585 29.0201C8.44785 28.9541 8.51385 28.9541 8.57985 28.9541C8.84385 29.0201 9.10785 29.2181 9.23985 29.4821C9.37185 29.8121 9.17385 30.2081 8.97585 30.3401C7.85385 31.3301 6.53385 31.9241 5.21385 32.1221C5.08185 32.1221 4.94985 32.1221 4.81785 32.1221H4.55385Z" fill="#252B33"/>
<path d="M27.4481 29.2841C27.7121 29.2841 27.9761 29.2181 28.3061 29.1521C29.0981 28.9541 30.0221 28.6901 31.0121 28.3601C32.5961 27.8321 34.1141 27.0401 35.6321 26.2481L35.8301 26.1161L36.1601 25.9181C36.5561 25.6541 37.0181 25.3901 37.8101 25.3241H38.2061L38.2721 25.7201C38.4701 26.5781 38.6681 27.1721 38.9981 27.7001C39.5261 28.4261 40.3181 28.6901 41.4401 28.6901C42.9581 28.6901 44.4761 28.4261 46.2581 27.7661C48.2381 27.0401 50.1521 26.0501 51.9341 25.0601C53.1881 24.4001 54.4421 23.7401 55.7621 23.1461C56.2241 22.9481 56.3561 22.4201 56.2901 22.0901C56.0921 21.5621 55.6961 21.2321 55.1681 21.2321H54.9701C54.7061 21.2981 54.3761 21.4301 53.9801 21.6281C53.0561 22.0901 52.0661 22.5521 50.8121 23.2121C49.2281 24.1361 47.4461 25.0601 45.5321 25.7201C44.4761 26.1161 43.2881 26.3801 42.1001 26.5781H41.9021C41.4401 26.5781 41.1101 26.4461 40.9121 26.1161C40.6481 25.8521 40.5821 25.4561 40.7141 25.0601C40.9121 24.3341 41.1761 23.5421 41.5061 22.8821C41.7041 22.4861 41.7041 22.0241 41.4401 21.6941C41.2421 21.3641 40.9781 21.1661 40.5821 21.1661C40.5161 21.1661 40.4501 21.1661 40.3841 21.2321H39.9881C39.2621 21.2321 38.7341 20.9681 38.1401 20.5721C37.3481 20.0441 36.4241 19.7801 35.4341 19.7801C31.4741 19.7801 27.9761 21.9581 25.4681 25.8521C25.2041 26.2481 25.0721 26.7101 25.0721 27.2381C25.0721 28.0961 25.4021 28.6241 26.2601 29.0201C26.5901 29.1521 27.0521 29.2841 27.4481 29.2841ZM29.0321 26.6441C28.8341 26.6441 28.5701 26.5121 28.4381 26.3141C28.3721 26.1161 28.3061 25.9841 28.3061 25.8521C28.3061 25.6541 28.3721 25.4561 28.5041 25.3241C30.4181 23.2781 32.4641 22.1561 34.9061 21.9581H35.1701C35.3021 21.9581 35.5001 22.0241 35.6981 22.0241C35.8961 22.0901 36.1601 22.2881 36.2261 22.5521C36.3581 22.8161 36.2921 23.1461 36.1601 23.3441L35.7641 23.6741C33.5201 24.9281 31.6721 25.8521 29.8901 26.5121C29.6261 26.5781 29.4281 26.6441 29.2301 26.6441H29.0321Z" fill="#252B33"/>
<path d="M56.2272 31.0661H56.5572C56.6892 31.0661 56.8212 31.0661 56.8872 31.0001H57.2172C58.9992 30.7361 60.5832 30.1421 61.7712 29.6141C64.1472 28.5581 66.5232 27.5681 68.8992 26.5781L71.3412 25.5221L72.0672 25.1921C72.4632 25.0601 72.8592 24.8621 73.2552 24.7301C73.5192 24.5981 73.8492 24.4661 74.0472 24.2681C74.5752 23.8721 74.7072 23.0801 74.3112 22.5521C74.1132 22.2221 73.9152 22.0901 73.5852 22.0901C73.3872 22.0901 73.0572 22.2221 72.7932 22.4201C72.6612 22.4201 72.5952 22.4861 72.4632 22.5521C72.1992 22.7501 71.8692 22.9481 71.5392 23.0801C68.8332 24.2681 66.1272 25.4561 63.4212 26.5781L60.2532 27.8981C59.1972 28.3601 58.2072 28.6901 57.1512 28.8221C56.8212 28.8881 56.5572 28.8881 56.3592 28.8881C55.8312 28.8881 55.5012 28.7561 55.2372 28.4921C54.8412 28.0961 54.8412 27.5021 54.9072 26.6441C55.0392 25.5881 55.4352 24.6641 55.8972 23.6081C57.4152 20.3081 59.3952 17.4701 61.3092 14.8301C64.8732 9.88005 68.3052 6.11805 72.0012 2.95005C72.1992 2.81805 72.3312 2.68605 72.3972 2.55405C72.5952 2.35605 72.7272 2.02605 72.6612 1.76205C72.5952 1.49805 72.4632 1.30005 72.1992 1.10205C72.0012 0.970053 71.8032 0.904053 71.6712 0.904053C71.4732 0.904053 71.2752 0.970053 71.0772 1.10205C70.2852 1.43205 69.6912 2.02605 69.0972 2.62005L69.0312 2.68605C64.0152 7.43805 59.6592 12.9161 55.9632 18.8561C55.0392 20.4401 54.1812 22.0241 53.5212 23.6741C52.9932 24.9941 52.7292 26.2481 52.6632 27.7001C52.5972 28.6901 52.8612 29.4821 53.4552 30.0761C54.0492 30.7361 55.1052 31.0661 56.2272 31.0661Z" fill="#252B33"/>
<path d="M76.8893 28.7561C77.0213 28.7561 77.2193 28.7561 77.4173 28.7561H77.8793C78.2753 28.7561 78.6713 28.6901 79.0673 28.6241C80.6513 28.3601 82.3673 27.8981 84.0173 27.4361C85.4033 27.0401 86.7893 26.7101 88.1093 26.3141C89.5613 25.8521 91.0133 25.5221 92.3993 25.1261C94.1813 24.5981 95.9633 24.2681 97.7453 23.8061L98.5373 23.6081C99.1313 23.4761 99.5273 23.3441 99.8573 23.0141C100.187 22.6841 100.253 22.3541 100.121 21.9581C99.9893 21.5621 99.5933 21.2981 99.1973 21.2981C98.9993 21.2981 98.8013 21.3641 98.6033 21.3641C97.2833 21.3641 96.0293 22.0241 94.7753 22.3541C92.0693 23.0801 89.2973 23.6081 86.5913 24.4661C84.2153 25.1921 81.5753 25.9181 78.2753 26.5781C77.9453 26.6441 77.6153 26.7101 77.2853 26.7101C76.6253 26.7101 75.9653 26.5121 75.3053 26.1821C75.0413 26.0501 74.9093 25.6541 74.9753 25.3901C75.0413 25.1261 75.1733 24.7961 75.5033 24.7301C75.7673 24.6641 76.0313 24.5981 76.2293 24.5981H76.4273C78.4733 24.5981 80.3213 23.4761 81.6413 21.7601C81.8393 21.4961 82.0373 21.2981 82.1693 21.0341C82.6313 20.1761 82.6973 19.3181 82.3013 18.6581C81.9053 17.9981 81.1793 17.5361 80.2553 17.5361H79.8593C78.9353 17.5361 78.0773 17.6681 77.3513 18.0641C75.8333 18.8561 74.7113 19.8461 73.7213 21.0341C73.0613 21.8261 72.6653 22.6181 72.4673 23.4761C72.1373 24.7961 72.2693 25.9841 72.8633 26.9081C73.4573 27.8321 74.5793 28.4261 75.8333 28.6901C76.1633 28.7561 76.4933 28.7561 76.8893 28.7561ZM77.6813 21.9581C77.4833 21.9581 77.2853 21.8261 77.1533 21.7601L76.9553 21.6281L76.8893 21.3641C76.8893 21.2321 76.9553 20.9681 77.0873 20.8361C77.6153 20.3081 78.0773 19.9781 78.6713 19.9781H78.7373C79.0013 19.9781 79.1333 20.1761 79.1993 20.2421L79.3973 20.4401L79.3313 20.7041C79.3313 20.7701 79.3313 20.9021 79.1993 21.0341C78.8033 21.4301 78.4073 21.7601 77.8133 21.9581H77.6813Z" fill="#252B33"/>
<path d="M95.0811 34.2341C96.2031 34.3661 97.1931 34.3001 98.0511 34.0361C101.549 32.9141 103.661 31.1321 104.849 28.3601C105.113 27.5681 105.707 27.1061 106.433 26.9741C106.565 26.9741 106.631 26.9081 106.763 26.9081L107.093 26.7761L109.271 26.3141C112.439 25.5881 115.607 24.7961 118.775 24.0701C119.567 23.9381 120.227 23.8061 121.019 23.8721C121.349 23.9381 121.679 23.8721 122.075 23.7401C122.537 23.5421 122.867 23.0801 122.801 22.6181C122.735 22.0901 122.339 21.6941 121.811 21.6281C121.613 21.5621 121.415 21.6281 121.283 21.6281C121.085 21.6281 120.887 21.6941 120.689 21.6941C120.161 21.7601 119.633 21.8261 119.105 21.9581C116.201 22.6181 113.363 23.2121 110.525 23.8721L107.753 24.5321L106.037 24.9281C105.839 24.9941 105.575 24.9941 105.377 24.9281C105.047 24.9281 104.783 24.7301 104.585 24.4661C103.925 23.7401 102.605 23.1461 101.747 22.3541C101.483 22.0901 101.483 21.6941 101.681 21.3641C102.077 20.7041 103.265 20.9681 103.991 20.9681C104.321 20.9021 104.585 20.7701 104.783 20.4401C104.915 20.1761 104.915 19.7801 104.717 19.4501C104.519 19.1201 104.255 18.9221 103.925 18.8561C103.793 18.8561 103.727 18.8561 103.661 18.7901C101.813 18.5261 99.9651 18.9221 97.9851 20.0441C97.9191 20.1101 97.7871 20.1761 97.7211 20.3081C97.1271 20.8361 97.3251 22.2221 97.8531 22.7501C98.1171 23.0141 98.4471 23.2121 98.7111 23.4101C98.9091 23.4761 99.1071 23.5421 99.3711 23.6741C99.5691 23.7401 99.7671 23.8061 99.9651 23.9381L100.097 24.0041C101.351 24.4661 101.813 24.4001 102.143 25.3901C102.077 25.6541 101.945 26.0501 101.285 26.3141L100.163 26.7101C99.9651 26.7761 99.7011 26.8421 99.5031 26.9741C97.5891 27.6341 96.0711 28.2941 94.7511 29.0861C94.0251 29.4821 93.2991 29.9441 92.8371 30.6701C92.4411 31.1981 92.3091 31.7921 92.4411 32.3201C92.5731 32.8481 92.9031 33.3101 93.4971 33.7061C93.9591 33.9701 94.4871 34.1021 94.9491 34.1681L95.0811 34.2341ZM96.3351 32.1221L96.1371 31.9241C96.0711 31.8581 95.8731 31.7261 95.8071 31.4621C95.8071 31.1321 95.9391 30.8021 96.2031 30.6701C97.4571 29.8781 98.7771 29.3501 100.097 29.0201C100.229 28.9541 100.295 28.9541 100.361 28.9541C100.625 29.0201 100.889 29.2181 101.021 29.4821C101.153 29.8121 100.955 30.2081 100.757 30.3401C99.6351 31.3301 98.3151 31.9241 96.9951 32.1221C96.8631 32.1221 96.7311 32.1221 96.5991 32.1221H96.3351Z" fill="#252B33"/>
</svg>
