<svg width="145" height="34" viewBox="0 0 145 34" fill="none" xmlns="http://www.w3.org/2000/svg">
<path d="M79.3915 23.3221C78.5061 23.4328 77.2443 24.0748 76.4252 25.5801V23.2557L73.3704 23.8977V24.1633C74.278 24.4068 74.4772 24.7167 74.4772 25.4915V31.6234C74.4772 32.7745 74.4329 33.1508 73.5917 33.3943V33.6821H77.3328V33.3943C76.5359 33.1951 76.4252 32.863 76.4252 31.6234V26.1113C77.1115 24.6282 78.5946 24.0969 78.5282 24.4732C78.4618 24.761 78.5725 25.0709 78.7717 25.3144C79.2366 25.8457 79.9892 25.89 80.4984 25.4694C81.0296 25.0266 81.0961 24.274 80.6533 23.7427C80.3434 23.3885 79.79 23.2778 79.3915 23.3221Z" fill="#F5F5F5"/>
<path d="M90.377 28.5685C90.377 32.5752 89.2481 33.5935 87.5657 33.5935C85.8611 33.5935 84.71 32.5752 84.71 28.5685C84.71 24.5618 85.8611 23.5435 87.5657 23.5435C89.2481 23.5435 90.377 24.5618 90.377 28.5685ZM92.6571 28.5685C92.6571 25.6465 90.9526 23.2557 87.5657 23.2557C84.2009 23.2557 82.4521 25.6465 82.4521 28.5685C82.4521 31.4684 84.2009 33.8813 87.5657 33.8813C90.9526 33.8813 92.6571 31.4684 92.6571 28.5685Z" fill="#F5F5F5"/>
<path d="M102.995 28.967C102.995 32.4867 101.556 33.5935 100.073 33.5935C98.5895 33.5935 97.372 32.5088 97.372 30.2066V26.864C97.372 25.1595 98.3018 23.9862 99.9177 23.9862C101.844 23.9862 102.995 25.4915 102.995 28.967ZM105.319 28.657C105.319 25.6243 103.615 23.2557 100.67 23.2557C99.5414 23.2557 98.0361 23.8313 97.372 25.0266V17.3452L94.3172 17.9429V18.2307C95.2469 18.4078 95.4461 18.7177 95.4461 19.4703V33.5714C95.4461 33.9256 96.4423 33.3943 97.04 32.7745C97.7705 33.4607 98.833 33.8813 100.139 33.8813C103.083 33.8813 105.319 32.0661 105.319 28.657Z" fill="#F5F5F5"/>
<path d="M115.608 28.967C115.608 32.4867 114.169 33.5935 112.686 33.5935C111.203 33.5935 109.986 32.5088 109.986 30.2066V26.864C109.986 25.1595 110.915 23.9862 112.531 23.9862C114.457 23.9862 115.608 25.4915 115.608 28.967ZM117.933 28.657C117.933 25.6243 116.228 23.2557 113.284 23.2557C112.155 23.2557 110.65 23.8313 109.986 25.0266V17.3452L106.931 17.9429V18.2307C107.86 18.4078 108.06 18.7177 108.06 19.4703V33.5714C108.06 33.9256 109.056 33.3943 109.654 32.7745C110.384 33.4607 111.447 33.8813 112.753 33.8813C115.697 33.8813 117.933 32.0661 117.933 28.657Z" fill="#F5F5F5"/>
<path d="M121.736 21.4184C122.356 21.4184 122.865 20.9092 122.865 20.2894C122.865 19.6474 122.356 19.1604 121.736 19.1604C121.094 19.1604 120.607 19.6474 120.607 20.2894C120.607 20.9092 121.094 21.4184 121.736 21.4184ZM123.817 33.3943C123.02 33.1951 122.909 32.863 122.909 31.6234V23.2557L119.876 23.8977V24.1633C120.806 24.4068 120.983 24.7167 120.983 25.4915V31.6234C120.983 32.7523 120.939 33.1508 120.098 33.3943V33.6821H123.817V33.3943Z" fill="#F5F5F5"/>
<path d="M135.729 33.4164C134.954 33.2172 134.821 32.8409 134.821 31.6234V26.7976C134.821 24.119 133.559 23.2557 131.766 23.2557C130.372 23.2557 128.844 24.2961 128.379 25.5801V23.2557L125.325 23.8977V24.1633C126.254 24.4068 126.431 24.6946 126.431 25.4694V31.6455C126.431 32.7745 126.409 33.1508 125.568 33.3943V33.6821H129.287V33.3943C128.49 33.1951 128.379 32.863 128.379 31.6455V26.2663C128.557 25.4694 129.486 24.3625 130.637 24.3625C132.098 24.3625 132.895 25.3587 132.895 26.864V31.6234C132.895 32.7523 132.851 33.1729 132.01 33.4164V33.6821H135.729V33.4164Z" fill="#F5F5F5"/>
<path d="M144.492 32.7966C145.554 31.2692 144.912 29.4761 142.92 28.2365L140.684 26.8418C138.758 25.6243 138.913 23.5435 141.016 23.5435C143.584 23.5435 144.204 25.3587 144.359 26.6647H144.625V23.9641C144.625 23.9641 143.562 23.2557 141.016 23.2557C138.758 23.2557 138.094 24.5175 138.094 24.5175C137.209 26.0449 137.696 27.3731 139.821 28.7899L142.057 30.1402C143.739 31.247 144.027 33.5935 141.68 33.5935C138.803 33.5935 138.249 31.4463 138.094 29.9852H137.807V32.9958C137.807 32.9958 139.002 33.8813 141.68 33.8813C143.739 33.8813 144.492 32.7966 144.492 32.7966Z" fill="#F5F5F5"/>
<path d="M3.73582 12.3059H3.86312C5.26345 12.3059 6.66378 12.0513 8.36115 11.5421C10.4829 10.9056 12.5621 10.2267 14.9385 9.20823C15.2355 9.08093 15.4901 8.99607 15.6599 8.86876C15.9993 8.61416 16.0842 8.27468 15.9145 7.93521C15.8296 7.76547 15.6174 7.5533 15.3204 7.5533C15.1931 7.5533 15.1082 7.59573 14.9809 7.63817C14.8536 7.6806 14.7263 7.76547 14.599 7.8079C14.4293 7.85034 14.2595 7.97764 14.0898 8.06251L12.9016 8.48685C11.3316 9.0385 9.76149 9.63258 8.19142 10.1418C6.66378 10.651 5.39076 10.9056 4.2026 10.9056H3.77826C3.52365 10.9056 3.26904 10.8632 3.01444 10.8632C2.67496 10.8632 2.33549 10.7359 2.03845 10.5237C1.52924 10.1418 1.27463 9.50528 1.44437 8.99606C1.65654 8.35955 2.08088 7.89277 2.63253 7.72304C2.75983 7.6806 2.88714 7.63817 2.972 7.63817C3.22661 7.63817 3.52365 7.76547 3.52365 8.02007C3.52365 8.06251 3.56608 8.10494 3.56608 8.14738C3.56608 8.23225 3.65095 8.31711 3.69339 8.40198C3.82069 8.61415 4.03286 8.74146 4.24503 8.74146H4.28747C4.58451 8.74146 4.79668 8.57172 4.88155 8.23225C4.92398 8.02007 5.00885 7.85034 4.96641 7.63817C4.79668 6.74705 4.16016 6.1954 3.31148 6.1954H3.22661C2.20819 6.1954 1.40194 6.66218 0.638119 7.63817C0.00160525 8.44442 -0.168132 9.37797 0.171342 10.2691C0.510817 11.1602 1.27463 11.924 2.16575 12.0938C2.5901 12.1786 3.14174 12.3059 3.73582 12.3059Z" fill="#F5F5F5"/>
<path d="M17.5233 3.18257H17.5657C17.7355 3.18257 17.9052 3.05527 18.1174 2.88553L18.1598 2.8431C18.7963 2.29145 19.5177 1.7398 20.2815 1.31546C20.3664 1.27303 20.4513 1.23059 20.4937 1.14572C20.7483 0.933553 20.7907 0.678948 20.7059 0.466777C20.5786 0.169737 20.324 0 20.0694 0H19.9421C19.7299 0.0424337 19.5177 0.127302 19.3055 0.254604C18.669 0.636513 18.0325 1.14572 17.2687 1.78224C17.1414 1.95198 17.0141 2.07928 16.9717 2.20658C16.8444 2.41875 16.8444 2.67336 16.9717 2.88553C17.0565 3.05527 17.2687 3.18257 17.5233 3.18257ZM15.1046 13.3244H15.2319C15.6138 13.3244 16.0805 13.1546 16.5473 13.0273L16.6746 12.9849C17.0565 12.8576 17.4384 12.6878 17.8628 12.5605C18.5842 12.3059 19.348 12.0513 20.1118 11.8392C21.5121 11.4573 22.9549 10.9056 24.3552 10.354C24.9917 10.0994 25.7131 9.84475 26.3921 9.59014C26.8164 9.46284 27.2832 9.25067 27.7075 8.86876C28.047 8.57172 28.1743 8.23225 28.047 7.8079C27.7075 7.5533 26.0526 8.27468 25.5009 8.48685L25.3312 8.52929C23.2519 9.33554 21.1302 10.0569 19.0509 10.7359C18.1598 10.9905 17.2687 11.2875 16.42 11.5846C16.1654 11.6694 15.9532 11.7543 15.7411 11.7967H15.5713C15.3592 11.7967 15.147 11.7543 15.0621 11.5846C14.9348 11.4148 14.8924 11.2026 14.9348 10.948C15.147 10.2267 15.4016 9.50527 15.7835 8.74146C15.9108 8.52929 15.9957 8.31711 15.9957 8.06251C15.9957 7.8079 15.8684 7.5533 15.6986 7.46843C15.5713 7.426 15.444 7.426 15.3592 7.426C15.2319 7.426 15.1046 7.46843 14.9773 7.5533C14.7651 7.72303 14.6378 7.97764 14.468 8.23225C14.0013 9.25067 13.7042 10.0569 13.5345 10.8632C13.4921 11.2026 13.4496 11.4997 13.4496 11.7543C13.4496 12.8151 14.0013 13.3244 15.1046 13.3244Z" fill="#F5F5F5"/>
<path d="M29.4865 12.4757C29.5713 12.4757 29.6986 12.4757 29.8259 12.4757H30.123C30.3776 12.4757 30.6322 12.4332 30.8868 12.3908C31.9052 12.2211 33.0085 11.924 34.0694 11.627C34.9605 11.3724 35.8516 11.1602 36.7003 10.9056C37.6338 10.6086 38.5674 10.3964 39.4585 10.1418C40.6042 9.80231 41.75 9.59014 42.8957 9.2931L43.4049 9.1658C43.7868 9.08093 44.0414 8.99606 44.2536 8.78389C44.4658 8.57172 44.5082 8.35955 44.4233 8.10495C44.3385 7.85034 44.0838 7.6806 43.8292 7.6806C43.7019 7.6806 43.5746 7.72304 43.4473 7.72304C42.5986 7.72304 41.7924 8.14738 40.9861 8.35955C39.2463 8.82633 37.4641 9.1658 35.7243 9.71745C34.1967 10.1842 32.4993 10.651 30.3776 11.0753C30.1654 11.1178 29.9532 11.1602 29.7411 11.1602C29.3167 11.1602 28.8924 11.0329 28.468 10.8207C28.2983 10.7359 28.2134 10.4813 28.2559 10.3115C28.2983 10.1418 28.3832 9.92962 28.5953 9.88718C28.7651 9.84475 28.9348 9.80232 29.0621 9.80232H29.1894C30.5049 9.80232 31.693 9.08093 32.5417 7.97764C32.669 7.80791 32.7963 7.6806 32.8812 7.51086C33.1782 6.95922 33.2207 6.40757 32.9661 5.98323C32.7115 5.55889 32.2447 5.26185 31.6506 5.26185H31.396C30.8019 5.26185 30.2503 5.34672 29.7835 5.60132C28.8075 6.11053 28.0861 6.74705 27.4496 7.51086C27.0253 8.02007 26.7707 8.52929 26.6434 9.08093C26.4312 9.92962 26.5161 10.6934 26.898 11.2875C27.2799 11.8816 28.0013 12.2635 28.8075 12.4332C29.0197 12.4757 29.2319 12.4757 29.4865 12.4757ZM29.9957 8.10495C29.8684 8.10495 29.7411 8.02008 29.6562 7.97764L29.5289 7.89277L29.4865 7.72304C29.4865 7.63817 29.5289 7.46843 29.6138 7.38356C29.9532 7.04409 30.2503 6.83192 30.6322 6.83192H30.6746C30.8444 6.83192 30.9292 6.95922 30.9717 7.00165L31.099 7.12896L31.0565 7.29869C31.0565 7.34113 31.0565 7.42599 30.9717 7.51086C30.7171 7.76547 30.4624 7.97764 30.0805 8.10495H29.9957Z" fill="#F5F5F5"/>
<path d="M43.2312 12.6454C43.3585 12.6454 43.5282 12.603 43.6555 12.4757C43.8253 12.3059 43.995 12.1362 44.2072 11.8816C44.8437 11.1178 45.4378 10.1842 45.947 9.2931C46.1167 8.99606 46.2864 8.69902 46.4562 8.44442L46.8381 7.8079C46.923 7.6806 46.9654 7.59573 47.0078 7.46843C47.0503 7.34113 47.3049 7.08652 47.6019 7.08652C47.8565 7.08652 48.0687 7.29869 48.196 7.46843C49.172 8.78389 50.5299 9.37797 52.0575 9.37797H52.7365C54.1368 9.37797 55.5796 9.37797 57.0223 9.1658C57.6164 9.08093 58.168 8.99606 58.7197 8.99606C58.9743 8.99606 59.5259 8.91119 59.5259 8.91119H59.5684C59.6957 8.91119 59.823 8.95363 59.9503 8.95363C60.2898 8.95363 60.5444 8.82633 60.7565 8.44442C60.8838 8.23225 60.8838 7.97764 60.799 7.76547C60.7141 7.5533 60.5019 7.426 60.2898 7.426H59.9927C59.8654 7.426 59.7381 7.426 59.6108 7.46843C58.168 7.93521 56.598 7.85034 54.8582 7.93521C53.9246 7.97764 53.0759 8.02007 52.2272 8.02007H52.0151C51.1664 8.02007 50.4026 7.72303 49.7236 7.08652C49.1295 6.53488 49.0447 5.81349 49.0447 5.13455V5.00724C49.0447 4.4556 48.7476 4.24343 48.5355 4.15856C48.4506 4.11612 48.3657 4.11612 48.2384 4.11612C48.0263 4.11612 47.8141 4.20099 47.6019 4.41316C47.4322 4.5829 47.3049 4.7102 47.1776 4.87994C47.0078 5.09211 46.8381 5.30428 46.7108 5.51645C46.5835 5.72863 46.4138 5.98323 46.2016 6.1954C46.1591 6.23784 46.1167 6.32271 46.0743 6.40757C45.947 6.66218 45.7772 7.04409 45.3953 7.04409C45.3529 7.04409 45.3105 7.00165 45.3105 7.00165C44.7588 6.91678 44.8013 6.36514 44.8013 6.1954L44.7588 5.64376C44.7588 5.34672 44.4193 5.21941 44.1223 5.21941C43.8253 5.21941 43.6131 5.34672 43.5282 5.64376C43.4858 5.81349 43.4009 6.02567 43.4009 6.15297C43.4009 7.04409 43.0614 7.8079 43.0614 8.65659V8.74146C43.0614 9.42041 42.7644 10.0145 42.5947 10.651C42.4674 11.0753 42.4674 11.4997 42.4674 11.9665C42.4674 12.2635 42.5947 12.4757 42.8493 12.5605C42.9766 12.603 43.1039 12.6454 43.2312 12.6454Z" fill="#F5F5F5"/>
<path d="M59.2269 12.6454C59.3542 12.6454 59.524 12.603 59.6513 12.4757C59.821 12.3059 59.9907 12.1362 60.2029 11.8816C60.8394 11.1178 61.4335 10.1842 61.9427 9.2931C62.1124 8.99606 62.2822 8.69902 62.4519 8.44442L62.8338 7.8079C62.9187 7.6806 62.9611 7.59573 63.0036 7.46843C63.046 7.34113 63.3006 7.08652 63.5976 7.08652C63.8522 7.08652 64.0644 7.29869 64.1917 7.46843C65.1677 8.78389 66.5256 9.37797 68.0532 9.37797H68.7322C70.1325 9.37797 71.5753 9.37797 73.018 9.1658C73.6121 9.08093 74.1638 8.99606 74.7154 8.99606C74.97 8.99606 75.5217 8.91119 75.5217 8.91119H75.5641C75.6914 8.91119 75.8187 8.95363 75.946 8.95363C76.2855 8.95363 76.5401 8.82633 76.7523 8.44442C76.8796 8.23225 76.8796 7.97764 76.7947 7.76547C76.7098 7.5533 76.4977 7.426 76.2855 7.426H75.9884C75.8611 7.426 75.7338 7.426 75.6065 7.46843C74.1638 7.93521 72.5937 7.85034 70.8539 7.93521C69.9203 7.97764 69.0717 8.02007 68.223 8.02007H68.0108C67.1621 8.02007 66.3983 7.72303 65.7194 7.08652C65.1253 6.53488 65.0404 5.81349 65.0404 5.13455V5.00724C65.0404 4.4556 64.7434 4.24343 64.5312 4.15856C64.4463 4.11612 64.3615 4.11612 64.2341 4.11612C64.022 4.11612 63.8098 4.20099 63.5976 4.41316C63.4279 4.5829 63.3006 4.7102 63.1733 4.87994C63.0036 5.09211 62.8338 5.30428 62.7065 5.51645C62.5792 5.72863 62.4095 5.98323 62.1973 6.1954C62.1549 6.23784 62.1124 6.32271 62.07 6.40757C61.9427 6.66218 61.773 7.04409 61.3911 7.04409C61.3486 7.04409 61.3062 7.00165 61.3062 7.00165C60.7545 6.91678 60.797 6.36514 60.797 6.1954L60.7545 5.64376C60.7545 5.34672 60.4151 5.21941 60.118 5.21941C59.821 5.21941 59.6088 5.34672 59.524 5.64376C59.4815 5.81349 59.3966 6.02567 59.3966 6.15297C59.3966 7.04409 59.0572 7.8079 59.0572 8.65659V8.74146C59.0572 9.42041 58.7601 10.0145 58.5904 10.651C58.4631 11.0753 58.4631 11.4997 58.4631 11.9665C58.4631 12.2635 58.5904 12.4757 58.845 12.5605C58.9723 12.603 59.0996 12.6454 59.2269 12.6454Z" fill="#F5F5F5"/>
<path d="M73.8647 12.8151C74.0345 12.8151 74.2042 12.7727 74.4164 12.7303C74.9256 12.603 75.5197 12.4332 76.1562 12.2211C77.1746 11.8816 78.1506 11.3724 79.1266 10.8632L79.2539 10.7783L79.4661 10.651C79.7207 10.4813 80.0177 10.3115 80.5269 10.2691H80.7815L80.824 10.5237C80.9513 11.0753 81.0786 11.4573 81.2907 11.7967C81.6302 12.2635 82.1394 12.4332 82.8608 12.4332C83.8368 12.4332 84.8128 12.2635 85.9585 11.8392C87.2315 11.3724 88.4621 10.7359 89.6079 10.0994C90.4141 9.67501 91.2204 9.25067 92.069 8.86876C92.3661 8.74146 92.451 8.40198 92.4085 8.18981C92.2812 7.85034 92.0266 7.63817 91.6871 7.63817H91.5598C91.3901 7.6806 91.1779 7.76547 90.9233 7.89277C90.3292 8.18981 89.6927 8.48685 88.8865 8.91119C87.868 9.50527 86.7223 10.0994 85.4917 10.5237C84.8128 10.7783 84.049 10.948 83.2851 11.0753H83.1578C82.8608 11.0753 82.6486 10.9905 82.5213 10.7783C82.3516 10.6086 82.3092 10.354 82.394 10.0994C82.5213 9.63258 82.6911 9.12337 82.9032 8.69902C83.0305 8.44442 83.0305 8.14738 82.8608 7.93521C82.7335 7.72303 82.5638 7.59573 82.3092 7.59573C82.2667 7.59573 82.2243 7.59573 82.1819 7.63817H81.9272C81.4605 7.63817 81.121 7.46843 80.7391 7.21383C80.2299 6.87435 79.6358 6.70461 78.9993 6.70461C76.4532 6.70461 74.2042 8.10494 72.5917 10.6086C72.422 10.8632 72.3371 11.1602 72.3371 11.4997C72.3371 12.0513 72.5493 12.3908 73.1009 12.6454C73.3131 12.7303 73.6101 12.8151 73.8647 12.8151ZM74.8832 11.1178C74.7559 11.1178 74.5861 11.0329 74.5013 10.9056C74.4588 10.7783 74.4164 10.6934 74.4164 10.6086C74.4164 10.4813 74.4588 10.354 74.5437 10.2691C75.7743 8.95363 77.0898 8.23225 78.6598 8.10495H78.8296C78.9144 8.10495 79.0417 8.14738 79.169 8.14738C79.2963 8.18981 79.4661 8.31712 79.5085 8.48685C79.5934 8.65659 79.5509 8.86876 79.4661 8.99606L79.2115 9.20823C77.7687 10.0145 76.5805 10.6086 75.4348 11.0329C75.2651 11.0753 75.1378 11.1178 75.0105 11.1178H74.8832Z" fill="#F5F5F5"/>
</svg>
