<svg width="145" height="34" viewBox="0 0 145 34" fill="none" xmlns="http://www.w3.org/2000/svg">
<path d="M79.098 23.3081C78.2216 23.4176 76.9727 24.053 76.162 25.5429V23.2423L73.1384 23.8777V24.1406C74.0367 24.3817 74.2339 24.6884 74.2339 25.4553V31.5244C74.2339 32.6637 74.1901 33.0362 73.3575 33.2772V33.562H77.0603V33.2772C76.2716 33.08 76.162 32.7513 76.162 31.5244V26.0687C76.8412 24.6008 78.3092 24.0749 78.2435 24.4474C78.1778 24.7322 78.2873 25.039 78.4845 25.28C78.9446 25.8058 79.6896 25.8496 80.1935 25.4333C80.7193 24.9951 80.7851 24.2502 80.3469 23.7244C80.0401 23.3738 79.4924 23.2642 79.098 23.3081Z" fill="#191414"/>
<path d="M89.971 28.5008C89.971 32.4665 88.8536 33.4744 87.1885 33.4744C85.5014 33.4744 84.3621 32.4665 84.3621 28.5008C84.3621 24.535 85.5014 23.5272 87.1885 23.5272C88.8536 23.5272 89.971 24.535 89.971 28.5008ZM92.2278 28.5008C92.2278 25.6086 90.5407 23.2423 87.1885 23.2423C83.8581 23.2423 82.1272 25.6086 82.1272 28.5008C82.1272 31.371 83.8581 33.7592 87.1885 33.7592C90.5407 33.7592 92.2278 31.371 92.2278 28.5008Z" fill="#191414"/>
<path d="M102.46 28.8951C102.46 32.3789 101.035 33.4744 99.5675 33.4744C98.0995 33.4744 96.8945 32.4008 96.8945 30.1221V26.8137C96.8945 25.1266 97.8147 23.9654 99.4141 23.9654C101.32 23.9654 102.46 25.4553 102.46 28.8951ZM104.76 28.5884C104.76 25.5867 103.073 23.2423 100.159 23.2423C99.0417 23.2423 97.5518 23.812 96.8945 24.9951V17.3923L93.8709 17.9839V18.2687C94.7911 18.444 94.9883 18.7508 94.9883 19.4957V33.4524C94.9883 33.803 95.9742 33.2772 96.5658 32.6637C97.2888 33.3429 98.3405 33.7592 99.6332 33.7592C102.547 33.7592 104.76 31.9626 104.76 28.5884Z" fill="#191414"/>
<path d="M114.944 28.8951C114.944 32.3789 113.52 33.4744 112.052 33.4744C110.584 33.4744 109.379 32.4008 109.379 30.1221V26.8137C109.379 25.1266 110.299 23.9654 111.899 23.9654C113.805 23.9654 114.944 25.4553 114.944 28.8951ZM117.245 28.5884C117.245 25.5867 115.558 23.2423 112.644 23.2423C111.526 23.2423 110.036 23.812 109.379 24.9951V17.3923L106.355 17.9839V18.2687C107.276 18.444 107.473 18.7508 107.473 19.4957V33.4524C107.473 33.803 108.459 33.2772 109.05 32.6637C109.773 33.3429 110.825 33.7592 112.118 33.7592C115.032 33.7592 117.245 31.9626 117.245 28.5884Z" fill="#191414"/>
<path d="M121.009 21.4238C121.622 21.4238 122.126 20.9199 122.126 20.3064C122.126 19.671 121.622 19.189 121.009 19.189C120.374 19.189 119.892 19.671 119.892 20.3064C119.892 20.9199 120.374 21.4238 121.009 21.4238ZM123.068 33.2772C122.28 33.08 122.17 32.7513 122.17 31.5244V23.2423L119.168 23.8777V24.1406C120.089 24.3817 120.264 24.6884 120.264 25.4553V31.5244C120.264 32.6418 120.22 33.0362 119.388 33.2772V33.562H123.068V33.2772Z" fill="#191414"/>
<path d="M134.859 33.2991C134.092 33.1019 133.96 32.7294 133.96 31.5244V26.748C133.96 24.0968 132.712 23.2423 130.937 23.2423C129.556 23.2423 128.045 24.2721 127.585 25.5429V23.2423L124.561 23.8777V24.1406C125.481 24.3817 125.656 24.6665 125.656 25.4333V31.5463C125.656 32.6637 125.635 33.0362 124.802 33.2772V33.562H128.483V33.2772C127.694 33.08 127.585 32.7513 127.585 31.5463V26.2221C127.76 25.4333 128.68 24.3378 129.819 24.3378C131.265 24.3378 132.054 25.3238 132.054 26.8137V31.5244C132.054 32.6418 132.01 33.0581 131.178 33.2991V33.562H134.859V33.2991Z" fill="#191414"/>
<path d="M143.532 32.6856C144.584 31.1738 143.948 29.3991 141.976 28.1721L139.763 26.7918C137.857 25.5867 138.011 23.5272 140.092 23.5272C142.634 23.5272 143.247 25.3238 143.401 26.6165H143.663V23.9435C143.663 23.9435 142.612 23.2423 140.092 23.2423C137.857 23.2423 137.2 24.4912 137.2 24.4912C136.324 26.003 136.806 27.3176 138.909 28.7199L141.122 30.0564C142.787 31.1519 143.072 33.4744 140.749 33.4744C137.901 33.4744 137.353 31.3491 137.2 29.903H136.915V32.8828C136.915 32.8828 138.098 33.7592 140.749 33.7592C142.787 33.7592 143.532 32.6856 143.532 32.6856Z" fill="#191414"/>
<path d="M4.2159 12.4041H4.3419C5.7279 12.4041 7.1139 12.1521 8.7939 11.6481C10.8939 11.0181 12.9519 10.3461 15.3039 9.33812C15.5979 9.21212 15.8499 9.12812 16.0179 9.00212C16.3539 8.75012 16.4379 8.41412 16.2699 8.07812C16.1859 7.91012 15.9759 7.70012 15.6819 7.70012C15.5559 7.70012 15.4719 7.74212 15.3459 7.78412C15.2199 7.82612 15.0939 7.91012 14.9679 7.95212C14.7999 7.99412 14.6319 8.12012 14.4639 8.20412L13.2879 8.62412C11.7339 9.17012 10.1799 9.75812 8.6259 10.2621C7.1139 10.7661 5.8539 11.0181 4.6779 11.0181H4.2579C4.0059 11.0181 3.7539 10.9761 3.5019 10.9761C3.1659 10.9761 2.8299 10.8501 2.5359 10.6401C2.0319 10.2621 1.7799 9.63212 1.9479 9.12812C2.1579 8.49812 2.5779 8.03612 3.1239 7.86812C3.2499 7.82612 3.3759 7.78412 3.4599 7.78412C3.7119 7.78412 4.0059 7.91012 4.0059 8.16212C4.0059 8.20412 4.0479 8.24612 4.0479 8.28812C4.0479 8.37212 4.1319 8.45612 4.1739 8.54012C4.2999 8.75012 4.5099 8.87612 4.7199 8.87612H4.7619C5.0559 8.87612 5.2659 8.70812 5.3499 8.37212C5.3919 8.16212 5.4759 7.99412 5.4339 7.78412C5.2659 6.90212 4.6359 6.35612 3.7959 6.35612H3.7119C2.7039 6.35612 1.9059 6.81812 1.1499 7.78412C0.519899 8.58212 0.351899 9.50612 0.687899 10.3881C1.0239 11.2701 1.7799 12.0261 2.6619 12.1941C3.0819 12.2781 3.6279 12.4041 4.2159 12.4041Z" fill="black"/>
<path d="M17.8623 3.37412H17.9043C18.0723 3.37412 18.2403 3.24812 18.4503 3.08012L18.4923 3.03812C19.1223 2.49212 19.8363 1.94612 20.5923 1.52612C20.6763 1.48412 20.7603 1.44212 20.8023 1.35812C21.0543 1.14812 21.0963 0.896121 21.0123 0.686121C20.8863 0.392121 20.6343 0.224121 20.3823 0.224121H20.2563C20.0463 0.266121 19.8363 0.35012 19.6263 0.47612C18.9963 0.85412 18.3663 1.35812 17.6103 1.98812C17.4843 2.15612 17.3583 2.28212 17.3163 2.40812C17.1903 2.61812 17.1903 2.87012 17.3163 3.08012C17.4003 3.24812 17.6103 3.37412 17.8623 3.37412ZM15.4683 13.4121H15.5943C15.9723 13.4121 16.4343 13.2441 16.8963 13.1181L17.0223 13.0761C17.4003 12.9501 17.7783 12.7821 18.1983 12.6561C18.9123 12.4041 19.6683 12.1521 20.4243 11.9421C21.8103 11.5641 23.2383 11.0181 24.6243 10.4721C25.2543 10.2201 25.9683 9.96812 26.6403 9.71612C27.0603 9.59012 27.5223 9.38012 27.9423 9.00212C28.2783 8.70812 28.4043 8.37212 28.2783 7.95212C27.9423 7.70012 26.3043 8.41412 25.7583 8.62412L25.5903 8.66612C23.5323 9.46412 21.4323 10.1781 19.3743 10.8501C18.4923 11.1021 17.6103 11.3961 16.7703 11.6901C16.5183 11.7741 16.3083 11.8581 16.0983 11.9001H15.9303C15.7203 11.9001 15.5103 11.8581 15.4263 11.6901C15.3003 11.5221 15.2583 11.3121 15.3003 11.0601C15.5103 10.3461 15.7623 9.63212 16.1403 8.87612C16.2663 8.66612 16.3503 8.45612 16.3503 8.20412C16.3503 7.95212 16.2243 7.70012 16.0563 7.61612C15.9303 7.57412 15.8043 7.57412 15.7203 7.57412C15.5943 7.57412 15.4683 7.61612 15.3423 7.70012C15.1323 7.86812 15.0063 8.12012 14.8383 8.37212C14.3763 9.38012 14.0823 10.1781 13.9143 10.9761C13.8723 11.3121 13.8303 11.6061 13.8303 11.8581C13.8303 12.9081 14.3763 13.4121 15.4683 13.4121Z" fill="black"/>
<path d="M29.703 12.5721C29.787 12.5721 29.913 12.5721 30.039 12.5721H30.333C30.585 12.5721 30.837 12.5301 31.089 12.4881C32.097 12.3201 33.189 12.0261 34.239 11.7321C35.121 11.4801 36.003 11.2701 36.843 11.0181C37.767 10.7241 38.691 10.5141 39.573 10.2621C40.707 9.92612 41.841 9.71612 42.975 9.42212L43.479 9.29612C43.857 9.21212 44.109 9.12812 44.319 8.91812C44.529 8.70812 44.571 8.49812 44.487 8.24612C44.403 7.99412 44.151 7.82612 43.899 7.82612C43.773 7.82612 43.647 7.86812 43.521 7.86812C42.681 7.86812 41.883 8.28812 41.085 8.49812C39.363 8.96012 37.599 9.29612 35.877 9.84212C34.365 10.3041 32.685 10.7661 30.585 11.1861C30.375 11.2281 30.165 11.2701 29.955 11.2701C29.535 11.2701 29.115 11.1441 28.695 10.9341C28.527 10.8501 28.443 10.5981 28.485 10.4301C28.527 10.2621 28.611 10.0521 28.821 10.0101C28.989 9.96812 29.157 9.92612 29.283 9.92612H29.409C30.711 9.92612 31.887 9.21212 32.727 8.12012C32.853 7.95212 32.979 7.82612 33.063 7.65812C33.357 7.11212 33.399 6.56612 33.147 6.14612C32.895 5.72612 32.433 5.43212 31.845 5.43212H31.593C31.005 5.43212 30.459 5.51612 29.997 5.76812C29.031 6.27212 28.317 6.90212 27.687 7.65812C27.267 8.16212 27.015 8.66612 26.889 9.21212C26.679 10.0521 26.763 10.8081 27.141 11.3961C27.519 11.9841 28.233 12.3621 29.031 12.5301C29.241 12.5721 29.451 12.5721 29.703 12.5721ZM30.207 8.24612C30.081 8.24612 29.955 8.16212 29.871 8.12012L29.745 8.03612L29.703 7.86812C29.703 7.78412 29.745 7.61612 29.829 7.53212C30.165 7.19612 30.459 6.98612 30.837 6.98612H30.879C31.047 6.98612 31.131 7.11212 31.173 7.15412L31.299 7.28012L31.257 7.44812C31.257 7.49012 31.257 7.57412 31.173 7.65812C30.921 7.91012 30.669 8.12012 30.291 8.24612H30.207Z" fill="black"/>
<path d="M43.3071 12.7401C43.4331 12.7401 43.6011 12.6981 43.7271 12.5721C43.8951 12.4041 44.0631 12.2361 44.2731 11.9841C44.9031 11.2281 45.4911 10.3041 45.9951 9.42212C46.1631 9.12812 46.3311 8.83412 46.4991 8.58212L46.8771 7.95212C46.9611 7.82612 47.0031 7.74212 47.0451 7.61612C47.0871 7.49012 47.3391 7.23812 47.6331 7.23812C47.8851 7.23812 48.0951 7.44812 48.2211 7.61612C49.1871 8.91812 50.5311 9.50612 52.0431 9.50612H52.7151C54.1011 9.50612 55.5291 9.50612 56.9571 9.29612C57.5451 9.21212 58.0911 9.12812 58.6371 9.12812C58.8891 9.12812 59.4351 9.04412 59.4351 9.04412H59.4771C59.6031 9.04412 59.7291 9.08612 59.8551 9.08612C60.1911 9.08612 60.4431 8.96012 60.6531 8.58212C60.7791 8.37212 60.7791 8.12012 60.6951 7.91012C60.6111 7.70012 60.4011 7.57412 60.1911 7.57412H59.8971C59.7711 7.57412 59.6451 7.57412 59.5191 7.61612C58.0911 8.07812 56.5371 7.99412 54.8151 8.07812C53.8911 8.12012 53.0511 8.16212 52.2111 8.16212H52.0011C51.1611 8.16212 50.4051 7.86812 49.7331 7.23812C49.1451 6.69212 49.0611 5.97812 49.0611 5.30612V5.18012C49.0611 4.63412 48.7671 4.42412 48.5571 4.34012C48.4731 4.29812 48.3891 4.29812 48.2631 4.29812C48.0531 4.29812 47.8431 4.38212 47.6331 4.59212C47.4651 4.76012 47.3391 4.88612 47.2131 5.05412C47.0451 5.26412 46.8771 5.47412 46.7511 5.68412C46.6251 5.89412 46.4571 6.14612 46.2471 6.35612C46.2051 6.39812 46.1631 6.48212 46.1211 6.56612C45.9951 6.81812 45.8271 7.19612 45.4491 7.19612C45.4071 7.19612 45.3651 7.15412 45.3651 7.15412C44.8191 7.07012 44.8611 6.52412 44.8611 6.35612L44.8191 5.81012C44.8191 5.51612 44.4831 5.39012 44.1891 5.39012C43.8951 5.39012 43.6851 5.51612 43.6011 5.81012C43.5591 5.97812 43.4751 6.18812 43.4751 6.31412C43.4751 7.19612 43.1391 7.95212 43.1391 8.79212V8.87612C43.1391 9.54812 42.8451 10.1361 42.6771 10.7661C42.5511 11.1861 42.5511 11.6061 42.5511 12.0681C42.5511 12.3621 42.6771 12.5721 42.9291 12.6561C43.0551 12.6981 43.1811 12.7401 43.3071 12.7401Z" fill="black"/>
<path d="M59.1391 12.7401C59.2651 12.7401 59.4331 12.6981 59.5591 12.5721C59.7271 12.4041 59.8951 12.2361 60.1051 11.9841C60.7351 11.2281 61.3231 10.3041 61.8271 9.42212C61.9951 9.12812 62.1631 8.83412 62.3311 8.58212L62.7091 7.95212C62.7931 7.82612 62.8351 7.74212 62.8771 7.61612C62.9191 7.49012 63.1711 7.23812 63.4651 7.23812C63.7171 7.23812 63.9271 7.44812 64.0531 7.61612C65.0191 8.91812 66.3631 9.50612 67.8751 9.50612H68.5471C69.9331 9.50612 71.3611 9.50612 72.7891 9.29612C73.3771 9.21212 73.9231 9.12812 74.4691 9.12812C74.7211 9.12812 75.2671 9.04412 75.2671 9.04412H75.3091C75.4351 9.04412 75.5611 9.08612 75.6871 9.08612C76.0231 9.08612 76.2751 8.96012 76.4851 8.58212C76.6111 8.37212 76.6111 8.12012 76.5271 7.91012C76.4431 7.70012 76.2331 7.57412 76.0231 7.57412H75.7291C75.6031 7.57412 75.4771 7.57412 75.3511 7.61612C73.9231 8.07812 72.3691 7.99412 70.6471 8.07812C69.7231 8.12012 68.8831 8.16212 68.0431 8.16212H67.8331C66.9931 8.16212 66.2371 7.86812 65.5651 7.23812C64.9771 6.69212 64.8931 5.97812 64.8931 5.30612V5.18012C64.8931 4.63412 64.5991 4.42412 64.3891 4.34012C64.3051 4.29812 64.2211 4.29812 64.0951 4.29812C63.8851 4.29812 63.6751 4.38212 63.4651 4.59212C63.2971 4.76012 63.1711 4.88612 63.0451 5.05412C62.8771 5.26412 62.7091 5.47412 62.5831 5.68412C62.4571 5.89412 62.2891 6.14612 62.0791 6.35612C62.0371 6.39812 61.9951 6.48212 61.9531 6.56612C61.8271 6.81812 61.6591 7.19612 61.2811 7.19612C61.2391 7.19612 61.1971 7.15412 61.1971 7.15412C60.6511 7.07012 60.6931 6.52412 60.6931 6.35612L60.6511 5.81012C60.6511 5.51612 60.3151 5.39012 60.0211 5.39012C59.7271 5.39012 59.5171 5.51612 59.4331 5.81012C59.3911 5.97812 59.3071 6.18812 59.3071 6.31412C59.3071 7.19612 58.9711 7.95212 58.9711 8.79212V8.87612C58.9711 9.54812 58.6771 10.1361 58.5091 10.7661C58.3831 11.1861 58.3831 11.6061 58.3831 12.0681C58.3831 12.3621 58.5091 12.5721 58.7611 12.6561C58.8871 12.6981 59.0131 12.7401 59.1391 12.7401Z" fill="black"/>
<path d="M73.6271 12.9081C73.7951 12.9081 73.9631 12.8661 74.1731 12.8241C74.6771 12.6981 75.2651 12.5301 75.8951 12.3201C76.9031 11.9841 77.8691 11.4801 78.8351 10.9761L78.9611 10.8921L79.1711 10.7661C79.4231 10.5981 79.7171 10.4301 80.2211 10.3881H80.4731L80.5151 10.6401C80.6411 11.1861 80.7671 11.5641 80.9771 11.9001C81.3131 12.3621 81.8171 12.5301 82.5311 12.5301C83.4971 12.5301 84.4631 12.3621 85.5971 11.9421C86.8571 11.4801 88.0751 10.8501 89.2091 10.2201C90.0071 9.80012 90.8051 9.38012 91.6451 9.00212C91.9391 8.87612 92.0231 8.54012 91.9811 8.33012C91.8551 7.99412 91.6031 7.78412 91.2671 7.78412H91.1411C90.9731 7.82612 90.7631 7.91012 90.5111 8.03612C89.9231 8.33012 89.2931 8.62412 88.4951 9.04412C87.4871 9.63212 86.3531 10.2201 85.1351 10.6401C84.4631 10.8921 83.7071 11.0601 82.9511 11.1861H82.8251C82.5311 11.1861 82.3211 11.1021 82.1951 10.8921C82.0271 10.7241 81.9851 10.4721 82.0691 10.2201C82.1951 9.75812 82.3631 9.25412 82.5731 8.83412C82.6991 8.58212 82.6991 8.28812 82.5311 8.07812C82.4051 7.86812 82.2371 7.74212 81.9851 7.74212C81.9431 7.74212 81.9011 7.74212 81.8591 7.78412H81.6071C81.1451 7.78412 80.8091 7.61612 80.4311 7.36412C79.9271 7.02812 79.3391 6.86012 78.7091 6.86012C76.1891 6.86012 73.9631 8.24612 72.3671 10.7241C72.1991 10.9761 72.1151 11.2701 72.1151 11.6061C72.1151 12.1521 72.3251 12.4881 72.8711 12.7401C73.0811 12.8241 73.3751 12.9081 73.6271 12.9081ZM74.6351 11.2281C74.5091 11.2281 74.3411 11.1441 74.2571 11.0181C74.2151 10.8921 74.1731 10.8081 74.1731 10.7241C74.1731 10.5981 74.2151 10.4721 74.2991 10.3881C75.5171 9.08612 76.8191 8.37212 78.3731 8.24612H78.5411C78.6251 8.24612 78.7511 8.28812 78.8771 8.28812C79.0031 8.33012 79.1711 8.45612 79.2131 8.62412C79.2971 8.79212 79.2551 9.00212 79.1711 9.12812L78.9191 9.33812C77.4911 10.1361 76.3151 10.7241 75.1811 11.1441C75.0131 11.1861 74.8871 11.2281 74.7611 11.2281H74.6351Z" fill="black"/>
</svg>
