<svg width="403" height="75" viewBox="0 0 403 75" fill="none" xmlns="http://www.w3.org/2000/svg">
<path d="M21.08 69H21.16C21.64 69 22.12 68.92 22.76 68.68C23.88 68.36 25 67.88 26.28 67.32L30.28 65.4C32.84 64.12 35.56 62.76 38.28 61.64L38.76 61.4C39.56 61.08 40.28 60.76 41.16 60.68C41.72 60.68 42.2 60.44 42.68 59.96C43.16 59.56 43.4 58.84 43.08 58.2C42.84 57.64 42.2 57.56 41.8 57.56H41.64C41.16 57.56 40.6 57.8 40.12 58.04L39.88 58.12C39.24 58.36 38.68 58.68 38.04 58.92C35.4 60.04 32.68 61.24 30.12 62.52C28.68 63.24 27.24 63.96 25.88 64.6L24.92 65.08L24.68 65.16C24.28 65.32 23.88 65.56 23.32 65.56H22.92L22.6 65.48L22.44 65.16C22.2 64.44 22.36 63.72 22.52 63.08C22.6 63 22.6 62.92 22.6 62.84C22.92 61.88 23 61 22.84 60.2C22.68 58.68 21.48 57.56 20.04 57.56C19.8 57.56 19.64 57.56 19.48 57.64C18.92 57.72 18.44 57.88 17.88 58.12L17.56 58.2C15.64 58.84 13.8 59.8 11.96 60.68L7 63.08L6.6 63.32C5.96 63.56 5.4 63.8 4.68 63.8C4.28 63.8 3.96 63.64 3.72 63.32C3.56 63 3.48 62.68 3.64 62.36L3.72 62.12C3.96 61.4 4.2 60.68 4.6 59.96C9.24 50.84 15.64 42.6 23.48 35.64L23.8 35.32C24.2 35.08 24.52 34.76 24.68 34.44C24.92 34.04 24.92 33.64 24.68 33.32C24.52 32.92 24.12 32.68 23.72 32.68H23.64C23.24 32.68 22.84 32.76 22.6 33.08L21.88 33.64C21.16 34.28 20.36 34.92 19.64 35.64C16.84 38.2 14.12 41.16 11.08 45.08C7.16 50.12 4.12 54.76 1.96 59.4C1.56 60.36 1.16 61.32 0.840002 62.44C0.440002 63.64 0.840002 64.52 1.24 65.08C1.88 65.96 2.84 66.52 3.88 66.52H4.12C5.08 66.52 5.96 66.36 6.84 65.96L11.32 63.96C12.12 63.56 12.92 63.16 13.64 62.76C14.6 62.28 15.56 61.88 16.52 61.4C17.16 61.08 17.88 60.84 18.52 60.68C18.68 60.6 18.92 60.6 19 60.6C19.4 60.6 19.64 60.68 19.88 60.92C20.04 61.08 20.2 61.4 20.12 61.88C20.04 62.36 19.96 62.76 19.8 63.08V63.4L19.48 64.44C19.32 65.16 19.08 65.88 19 66.52C18.84 67.24 19 67.8 19.4 68.28C19.72 68.68 20.36 68.92 21.08 69Z" fill="white"/>
<path d="M46.4738 48.76H46.5537C46.8737 48.76 47.1938 48.52 47.5938 48.2L47.6738 48.12C48.8738 47.08 50.2338 46.04 51.6738 45.24C51.8338 45.16 51.9937 45.08 52.0737 44.92C52.5537 44.52 52.6338 44.04 52.4738 43.64C52.2338 43.08 51.7538 42.76 51.2738 42.76H51.0337C50.6337 42.84 50.2338 43 49.8338 43.24C48.6338 43.96 47.4338 44.92 45.9938 46.12C45.7538 46.44 45.5138 46.68 45.4338 46.92C45.1938 47.32 45.1938 47.8 45.4338 48.2C45.5937 48.52 45.9938 48.76 46.4738 48.76ZM41.9137 67.88H42.1538C42.8738 67.88 43.7538 67.56 44.6338 67.32L44.8737 67.24C45.5937 67 46.3138 66.68 47.1138 66.44C48.4738 65.96 49.9138 65.48 51.3538 65.08C53.9938 64.36 56.7138 63.32 59.3538 62.28C60.5538 61.8 61.9138 61.32 63.1938 60.84C63.9938 60.6 64.8738 60.2 65.6738 59.48C66.3138 58.92 66.5538 58.28 66.3138 57.48C65.6738 57 62.5537 58.36 61.5137 58.76L61.1937 58.84C57.2737 60.36 53.2738 61.72 49.3538 63C47.6738 63.48 45.9937 64.04 44.3937 64.6C43.9137 64.76 43.5138 64.92 43.1138 65H42.7938C42.3938 65 41.9938 64.92 41.8338 64.6C41.5938 64.28 41.5137 63.88 41.5938 63.4C41.9938 62.04 42.4738 60.68 43.1938 59.24C43.4338 58.84 43.5938 58.44 43.5938 57.96C43.5938 57.48 43.3537 57 43.0337 56.84C42.7937 56.76 42.5537 56.76 42.3937 56.76C42.1537 56.76 41.9138 56.84 41.6738 57C41.2738 57.32 41.0337 57.8 40.7137 58.28C39.8337 60.2 39.2738 61.72 38.9538 63.24C38.8738 63.88 38.7938 64.44 38.7938 64.92C38.7938 66.92 39.8337 67.88 41.9137 67.88Z" fill="white"/>
<path d="M65.8275 74.68C66.6275 74.68 67.3475 74.28 67.9875 73.56C69.6675 71.72 70.8675 69.56 71.5875 67C71.6675 66.84 71.6675 66.6 71.7475 66.44V66.2V66.04V65.8C71.5875 65 71.1075 64.52 70.3875 64.44H70.3075C69.4275 64.44 69.1075 65.16 68.9475 65.56V65.96C68.8675 66.2 68.8675 66.44 68.7075 66.68C68.6275 67 68.5475 67.24 68.3875 67.56C67.7475 69.24 66.9475 71.24 64.6275 72.04C64.1475 72.28 63.9075 72.84 63.9875 73.32C64.0675 73.96 64.6275 74.44 65.2675 74.6L65.8275 74.68Z" fill="white"/>
<path d="M107.411 48.76H107.491C107.811 48.76 108.131 48.52 108.531 48.2L108.611 48.12C109.811 47.08 111.171 46.04 112.611 45.24C112.771 45.16 112.931 45.08 113.011 44.92C113.491 44.52 113.571 44.04 113.411 43.64C113.171 43.08 112.691 42.76 112.211 42.76H111.971C111.571 42.84 111.171 43 110.771 43.24C109.571 43.96 108.371 44.92 106.931 46.12C106.691 46.44 106.451 46.68 106.371 46.92C106.131 47.32 106.131 47.8 106.371 48.2C106.531 48.52 106.931 48.76 107.411 48.76ZM102.851 67.88H103.091C103.811 67.88 104.691 67.56 105.571 67.32L105.811 67.24C106.531 67 107.251 66.68 108.051 66.44C109.411 65.96 110.851 65.48 112.291 65.08C114.931 64.36 117.651 63.32 120.291 62.28C121.491 61.8 122.851 61.32 124.131 60.84C124.931 60.6 125.811 60.2 126.611 59.48C127.251 58.92 127.491 58.28 127.251 57.48C126.611 57 123.491 58.36 122.451 58.76L122.131 58.84C118.211 60.36 114.211 61.72 110.291 63C108.611 63.48 106.931 64.04 105.331 64.6C104.851 64.76 104.451 64.92 104.051 65H103.731C103.331 65 102.931 64.92 102.771 64.6C102.531 64.28 102.451 63.88 102.531 63.4C102.931 62.04 103.411 60.68 104.131 59.24C104.371 58.84 104.531 58.44 104.531 57.96C104.531 57.48 104.291 57 103.971 56.84C103.731 56.76 103.491 56.76 103.331 56.76C103.091 56.76 102.851 56.84 102.611 57C102.211 57.32 101.971 57.8 101.651 58.28C100.771 60.2 100.211 61.72 99.8913 63.24C99.8113 63.88 99.7312 64.44 99.7312 64.92C99.7312 66.92 100.771 67.88 102.851 67.88Z" fill="white"/>
<path d="M164.605 66.36H164.925C165.565 66.36 166.205 66.28 166.845 66.12C168.445 65.56 170.125 64.84 171.885 64.04C174.205 63 176.525 61.88 178.285 61.08L178.525 61C179.325 60.6 180.205 60.2 181.245 60.12C181.645 60.12 181.965 59.88 182.445 59.4C182.845 59 182.925 58.28 182.685 57.8C182.445 57.4 181.965 57.08 181.405 57.08C181.325 57.08 181.165 57.08 181.085 57.16C180.445 57.32 179.805 57.56 179.085 57.88C177.565 58.6 176.125 59.24 174.685 59.88L169.485 62.28C168.525 62.76 167.565 63.08 166.605 63.4H166.525C166.365 63.48 166.205 63.56 166.045 63.56C165.725 63.56 165.405 63.4 165.245 63.16C165.005 63 164.925 62.68 164.925 62.28C164.925 61.88 164.925 61.4 165.005 60.92C165.085 60.76 165.085 60.6 165.165 60.36C165.245 59.56 165.405 58.84 165.405 58.04V57.64V57C165.325 55.48 164.445 54.6 163.085 54.6C162.925 54.6 162.685 54.6 162.445 54.68C161.325 54.92 160.365 55.24 159.565 55.72C157.965 56.52 156.765 57.24 155.565 57.88C154.605 58.52 153.645 59.08 152.605 59.64C151.485 60.36 150.285 61 149.165 61.72L147.485 62.44L147.405 62.52C147.325 62.6 147.165 62.6 147.005 62.6C146.685 62.6 146.445 62.44 146.205 62.28C146.045 62.04 145.965 61.64 145.965 61.32C146.045 61 146.125 60.68 146.125 60.36C146.285 59.8 146.365 59.16 146.365 58.6C146.285 56.84 145.325 55.8 143.565 55.72H143.085C142.445 55.72 141.805 55.8 141.325 55.88C139.805 56.28 138.605 56.76 137.565 57.24C136.445 57.8 135.325 58.36 134.285 58.92L130.525 60.84C129.885 61.08 129.245 61.4 128.605 61.64L128.365 61.72H128.125C127.805 61.72 127.565 61.64 127.405 61.48C127.165 61.24 127.085 60.84 127.085 60.52C127.165 60.28 127.325 60.04 127.405 59.8C128.285 58.36 129.325 57.08 130.365 55.88C130.685 55.48 131.005 55.08 131.165 54.68C131.325 54.44 131.325 54.04 131.165 53.8C131.005 53.48 130.765 53.24 130.365 53.16H130.045C129.565 53.16 129.245 53.32 128.845 53.64C127.085 55.64 125.805 57.4 124.765 59.16C124.205 60.2 124.045 61.32 124.205 62.6C124.285 63.96 125.085 64.68 126.445 64.76H126.685C127.645 64.76 128.605 64.52 129.565 64.12L133.645 62.12L133.725 62.04C135.645 61.08 137.565 60.04 139.645 59.16L139.885 59.08C140.605 58.76 141.325 58.52 142.205 58.44H142.285C142.685 58.44 143.085 58.6 143.325 58.84C143.565 59.16 143.645 59.48 143.565 59.88L143.325 60.76L143.245 61.32C143.165 61.56 143.085 61.72 143.085 61.96C142.925 62.6 142.765 63.16 142.765 63.8C142.845 65.24 143.565 65.96 144.925 65.96H145.005C146.285 65.96 147.485 65.48 148.525 64.92C150.605 63.8 152.685 62.76 154.605 61.56C156.125 60.6 157.725 59.64 159.245 58.76C159.885 58.44 160.525 58.12 161.165 57.88C161.325 57.8 161.485 57.8 161.565 57.8C162.125 57.8 162.525 58.2 162.605 58.68C162.685 59.4 162.605 60.12 162.445 60.76C162.125 61.96 162.045 63.08 162.205 64.12C162.285 65.48 163.165 66.28 164.605 66.36Z" fill="white"/>
<path d="M206.809 65.96H207.049C209.689 65.96 212.329 65.48 215.529 64.52C219.529 63.32 223.449 62.04 227.929 60.12C228.489 59.88 228.969 59.72 229.289 59.48C229.929 59 230.089 58.36 229.769 57.72C229.609 57.4 229.209 57 228.649 57C228.409 57 228.249 57.08 228.009 57.16C227.769 57.24 227.529 57.4 227.289 57.48C226.969 57.56 226.649 57.8 226.329 57.96L224.089 58.76C221.129 59.8 218.169 60.92 215.209 61.88C212.329 62.84 209.929 63.32 207.689 63.32H206.889C206.409 63.32 205.929 63.24 205.449 63.24C204.809 63.24 204.169 63 203.609 62.6C202.649 61.88 202.169 60.68 202.489 59.72C202.889 58.52 203.689 57.64 204.729 57.32C204.969 57.24 205.209 57.16 205.369 57.16C205.849 57.16 206.409 57.4 206.409 57.88C206.409 57.96 206.489 58.04 206.489 58.12C206.489 58.28 206.649 58.44 206.729 58.6C206.969 59 207.369 59.24 207.769 59.24H207.849C208.409 59.24 208.809 58.92 208.969 58.28C209.049 57.88 209.209 57.56 209.129 57.16C208.809 55.48 207.609 54.44 206.009 54.44H205.849C203.929 54.44 202.409 55.32 200.969 57.16C199.769 58.68 199.449 60.44 200.089 62.12C200.729 63.8 202.169 65.24 203.849 65.56C204.649 65.72 205.689 65.96 206.809 65.96Z" fill="white"/>
<path d="M232.802 48.76H232.882C233.202 48.76 233.522 48.52 233.922 48.2L234.002 48.12C235.202 47.08 236.562 46.04 238.002 45.24C238.162 45.16 238.322 45.08 238.402 44.92C238.882 44.52 238.962 44.04 238.802 43.64C238.562 43.08 238.082 42.76 237.602 42.76H237.362C236.962 42.84 236.562 43 236.162 43.24C234.962 43.96 233.762 44.92 232.322 46.12C232.082 46.44 231.842 46.68 231.762 46.92C231.522 47.32 231.522 47.8 231.762 48.2C231.922 48.52 232.322 48.76 232.802 48.76ZM228.242 67.88H228.482C229.202 67.88 230.082 67.56 230.962 67.32L231.202 67.24C231.922 67 232.642 66.68 233.442 66.44C234.802 65.96 236.242 65.48 237.682 65.08C240.322 64.36 243.042 63.32 245.682 62.28C246.882 61.8 248.242 61.32 249.522 60.84C250.322 60.6 251.202 60.2 252.002 59.48C252.642 58.92 252.882 58.28 252.642 57.48C252.002 57 248.882 58.36 247.842 58.76L247.522 58.84C243.602 60.36 239.602 61.72 235.682 63C234.002 63.48 232.322 64.04 230.722 64.6C230.242 64.76 229.842 64.92 229.442 65H229.122C228.722 65 228.322 64.92 228.162 64.6C227.922 64.28 227.842 63.88 227.922 63.4C228.322 62.04 228.802 60.68 229.522 59.24C229.762 58.84 229.922 58.44 229.922 57.96C229.922 57.48 229.682 57 229.362 56.84C229.122 56.76 228.882 56.76 228.722 56.76C228.482 56.76 228.242 56.84 228.002 57C227.602 57.32 227.362 57.8 227.042 58.28C226.162 60.2 225.602 61.72 225.282 63.24C225.202 63.88 225.122 64.44 225.122 64.92C225.122 66.92 226.162 67.88 228.242 67.88Z" fill="white"/>
<path d="M255.356 66.28C255.516 66.28 255.756 66.28 255.996 66.28H256.556C257.036 66.28 257.516 66.2 257.996 66.12C259.916 65.8 261.996 65.24 263.996 64.68C265.676 64.2 267.356 63.8 268.956 63.32C270.716 62.76 272.476 62.36 274.156 61.88C276.316 61.24 278.476 60.84 280.636 60.28L281.596 60.04C282.316 59.88 282.796 59.72 283.196 59.32C283.596 58.92 283.676 58.52 283.516 58.04C283.356 57.56 282.876 57.24 282.396 57.24C282.156 57.24 281.916 57.32 281.676 57.32C280.076 57.32 278.556 58.12 277.036 58.52C273.756 59.4 270.396 60.04 267.116 61.08C264.236 61.96 261.036 62.84 257.036 63.64C256.636 63.72 256.236 63.8 255.836 63.8C255.036 63.8 254.236 63.56 253.436 63.16C253.116 63 252.956 62.52 253.036 62.2C253.116 61.88 253.276 61.48 253.676 61.4C253.996 61.32 254.316 61.24 254.556 61.24H254.796C257.276 61.24 259.516 59.88 261.116 57.8C261.356 57.48 261.596 57.24 261.756 56.92C262.316 55.88 262.396 54.84 261.916 54.04C261.436 53.24 260.556 52.68 259.436 52.68H258.956C257.836 52.68 256.796 52.84 255.916 53.32C254.076 54.28 252.716 55.48 251.516 56.92C250.716 57.88 250.236 58.84 249.996 59.88C249.596 61.48 249.756 62.92 250.476 64.04C251.196 65.16 252.556 65.88 254.076 66.2C254.476 66.28 254.876 66.28 255.356 66.28ZM256.316 58.04C256.076 58.04 255.836 57.88 255.676 57.8L255.436 57.64L255.356 57.32C255.356 57.16 255.436 56.84 255.596 56.68C256.236 56.04 256.796 55.64 257.516 55.64H257.596C257.916 55.64 258.076 55.88 258.156 55.96L258.396 56.2L258.316 56.52C258.316 56.6 258.316 56.76 258.156 56.92C257.676 57.4 257.196 57.8 256.476 58.04H256.316Z" fill="white"/>
<path d="M281.268 66.6C281.508 66.6 281.828 66.52 282.068 66.28C282.388 65.96 282.708 65.64 283.108 65.16C284.308 63.72 285.428 61.96 286.388 60.28C286.708 59.72 287.028 59.16 287.348 58.68L288.068 57.48C288.228 57.24 288.308 57.08 288.388 56.84C288.468 56.6 288.948 56.12 289.508 56.12C289.988 56.12 290.388 56.52 290.628 56.84C292.468 59.32 295.028 60.44 297.908 60.44H299.188C301.828 60.44 304.548 60.44 307.268 60.04C308.388 59.88 309.428 59.72 310.468 59.72C310.948 59.72 311.988 59.56 311.988 59.56H312.068C312.308 59.56 312.548 59.64 312.788 59.64C313.428 59.64 313.908 59.4 314.308 58.68C314.548 58.28 314.548 57.8 314.388 57.4C314.228 57 313.828 56.76 313.428 56.76H312.868C312.628 56.76 312.388 56.76 312.148 56.84C309.428 57.72 306.468 57.56 303.188 57.72C301.428 57.8 299.828 57.88 298.228 57.88H297.828C296.228 57.88 294.788 57.32 293.508 56.12C292.388 55.08 292.228 53.72 292.228 52.44V52.2C292.228 51.16 291.668 50.76 291.268 50.6C291.108 50.52 290.948 50.52 290.708 50.52C290.308 50.52 289.908 50.68 289.508 51.08C289.188 51.4 288.948 51.64 288.708 51.96C288.388 52.36 288.068 52.76 287.828 53.16C287.588 53.56 287.268 54.04 286.868 54.44C286.788 54.52 286.708 54.68 286.628 54.84C286.388 55.32 286.068 56.04 285.348 56.04C285.268 56.04 285.188 55.96 285.188 55.96C284.148 55.8 284.228 54.76 284.228 54.44L284.148 53.4C284.148 52.84 283.508 52.6 282.948 52.6C282.388 52.6 281.988 52.84 281.828 53.4C281.748 53.72 281.588 54.12 281.588 54.36C281.588 56.04 280.948 57.48 280.948 59.08V59.24C280.948 60.52 280.388 61.64 280.068 62.84C279.828 63.64 279.828 64.44 279.828 65.32C279.828 65.88 280.068 66.28 280.548 66.44C280.788 66.52 281.028 66.6 281.268 66.6Z" fill="white"/>
<path d="M311.424 66.6C311.664 66.6 311.984 66.52 312.224 66.28C312.544 65.96 312.864 65.64 313.264 65.16C314.464 63.72 315.584 61.96 316.544 60.28C316.864 59.72 317.184 59.16 317.504 58.68L318.224 57.48C318.384 57.24 318.464 57.08 318.544 56.84C318.624 56.6 319.104 56.12 319.664 56.12C320.144 56.12 320.544 56.52 320.784 56.84C322.624 59.32 325.184 60.44 328.064 60.44H329.344C331.984 60.44 334.704 60.44 337.424 60.04C338.544 59.88 339.584 59.72 340.624 59.72C341.104 59.72 342.144 59.56 342.144 59.56H342.224C342.464 59.56 342.704 59.64 342.944 59.64C343.584 59.64 344.064 59.4 344.464 58.68C344.704 58.28 344.704 57.8 344.544 57.4C344.384 57 343.984 56.76 343.584 56.76H343.024C342.784 56.76 342.544 56.76 342.304 56.84C339.584 57.72 336.624 57.56 333.344 57.72C331.584 57.8 329.984 57.88 328.384 57.88H327.984C326.384 57.88 324.944 57.32 323.664 56.12C322.544 55.08 322.384 53.72 322.384 52.44V52.2C322.384 51.16 321.824 50.76 321.424 50.6C321.264 50.52 321.104 50.52 320.864 50.52C320.464 50.52 320.064 50.68 319.664 51.08C319.344 51.4 319.104 51.64 318.864 51.96C318.544 52.36 318.224 52.76 317.984 53.16C317.744 53.56 317.424 54.04 317.024 54.44C316.944 54.52 316.864 54.68 316.784 54.84C316.544 55.32 316.224 56.04 315.504 56.04C315.424 56.04 315.344 55.96 315.344 55.96C314.304 55.8 314.384 54.76 314.384 54.44L314.304 53.4C314.304 52.84 313.664 52.6 313.104 52.6C312.544 52.6 312.144 52.84 311.984 53.4C311.904 53.72 311.744 54.12 311.744 54.36C311.744 56.04 311.104 57.48 311.104 59.08V59.24C311.104 60.52 310.544 61.64 310.224 62.84C309.984 63.64 309.984 64.44 309.984 65.32C309.984 65.88 310.224 66.28 310.704 66.44C310.944 66.52 311.184 66.6 311.424 66.6Z" fill="white"/>
<path d="M339.021 66.92C339.341 66.92 339.661 66.84 340.061 66.76C341.021 66.52 342.141 66.2 343.341 65.8C345.261 65.16 347.101 64.2 348.941 63.24L349.181 63.08L349.581 62.84C350.061 62.52 350.621 62.2 351.581 62.12H352.061L352.141 62.6C352.381 63.64 352.621 64.36 353.021 65C353.661 65.88 354.621 66.2 355.981 66.2C357.821 66.2 359.661 65.88 361.821 65.08C364.221 64.2 366.541 63 368.701 61.8C370.221 61 371.741 60.2 373.341 59.48C373.901 59.24 374.061 58.6 373.981 58.2C373.741 57.56 373.261 57.16 372.621 57.16H372.381C372.061 57.24 371.661 57.4 371.181 57.64C370.061 58.2 368.861 58.76 367.341 59.56C365.421 60.68 363.261 61.8 360.941 62.6C359.661 63.08 358.221 63.4 356.781 63.64H356.541C355.981 63.64 355.581 63.48 355.341 63.08C355.021 62.76 354.941 62.28 355.101 61.8C355.341 60.92 355.661 59.96 356.061 59.16C356.301 58.68 356.301 58.12 355.981 57.72C355.741 57.32 355.421 57.08 354.941 57.08C354.861 57.08 354.781 57.08 354.701 57.16H354.221C353.341 57.16 352.701 56.84 351.981 56.36C351.021 55.72 349.901 55.4 348.701 55.4C343.901 55.4 339.661 58.04 336.621 62.76C336.301 63.24 336.141 63.8 336.141 64.44C336.141 65.48 336.541 66.12 337.581 66.6C337.981 66.76 338.541 66.92 339.021 66.92ZM340.941 63.72C340.701 63.72 340.381 63.56 340.221 63.32C340.141 63.08 340.061 62.92 340.061 62.76C340.061 62.52 340.141 62.28 340.301 62.12C342.621 59.64 345.101 58.28 348.061 58.04H348.381C348.541 58.04 348.781 58.12 349.021 58.12C349.261 58.2 349.581 58.44 349.661 58.76C349.821 59.08 349.741 59.48 349.581 59.72L349.101 60.12C346.381 61.64 344.141 62.76 341.981 63.56C341.661 63.64 341.421 63.72 341.181 63.72H340.941Z" fill="white"/>
<path d="M377.424 56.36C377.504 56.36 377.504 56.36 377.584 56.28C378.144 56.2 378.704 55.8 378.624 55.08C378.624 53.48 379.104 52.04 379.584 50.6C379.664 50.36 379.744 50.12 379.824 49.88L380.304 48.6C385.024 36.36 390.624 23.96 396.864 11.72C398.224 9 399.904 5.88 402.144 3C402.464 2.52 402.624 2.12 402.624 1.72001C402.624 1 402.064 0.440002 401.344 0.440002C401.184 0.440002 401.024 0.520001 400.864 0.600005C400.384 0.760003 400.064 1 399.744 1.48C399.264 2.12 398.704 2.84 398.224 3.64C396.544 6.2 395.024 9 393.184 12.6C388.064 22.92 383.264 33.56 378.944 44.2C378.064 46.44 377.184 48.84 376.464 51.16C376.224 51.8 376.064 52.52 375.904 53.08C375.904 53.32 375.824 53.48 375.824 53.64C375.824 54.52 375.904 55 376.144 55.48C376.384 56.04 376.864 56.36 377.424 56.36ZM375.344 72.76C375.744 72.76 376.064 72.6 376.304 72.28C376.544 71.96 376.704 71.64 376.864 71.24C377.664 69.56 378.384 68.12 378.944 66.84C379.024 66.6 379.104 66.36 379.184 66.12V65.96C379.184 65.16 378.864 64.92 378.624 64.76C378.384 64.6 378.144 64.52 377.904 64.52C377.664 64.52 377.424 64.6 377.104 64.76C376.784 65 376.464 65.32 376.224 65.8C375.584 67.24 374.944 68.76 374.384 70.2L374.144 70.68C374.064 70.84 373.984 71 373.984 71.16C373.904 71.8 374.224 72.36 374.864 72.6C375.024 72.68 375.184 72.76 375.344 72.76Z" fill="white"/>
</svg>
