<svg width="22" height="22" viewBox="0 0 22 22" fill="none" xmlns="http://www.w3.org/2000/svg">
<path d="M10.9999 5.27783C7.89509 5.27783 5.32251 7.80606 5.32251 10.9553C5.32251 14.1044 7.85074 16.6327 10.9999 16.6327C14.1491 16.6327 16.6774 14.0601 16.6774 10.9553C16.6774 7.85041 14.1048 5.27783 10.9999 5.27783ZM10.9999 14.5923C9.00396 14.5923 7.36283 12.9512 7.36283 10.9553C7.36283 8.95928 9.00396 7.31815 10.9999 7.31815C12.9959 7.31815 14.637 8.95928 14.637 10.9553C14.637 12.9512 12.9959 14.5923 10.9999 14.5923Z" fill="#F5F5F5"/>
<path d="M16.8991 6.43147C17.6095 6.43147 18.1854 5.85558 18.1854 5.14518C18.1854 4.43478 17.6095 3.85889 16.8991 3.85889C16.1887 3.85889 15.6128 4.43478 15.6128 5.14518C15.6128 5.85558 16.1887 6.43147 16.8991 6.43147Z" fill="#F5F5F5"/>
<path d="M20.2258 1.81855C19.0726 0.620968 17.4315 0 15.5685 0H6.43145C2.57258 0 0 2.57258 0 6.43145V15.5242C0 17.4315 0.620968 19.0726 1.8629 20.2702C3.06048 21.4234 4.65726 22 6.47581 22H15.5242C17.4315 22 19.0282 21.379 20.1815 20.2702C21.379 19.1169 22 17.4758 22 15.5686V6.43145C22 4.56855 21.379 2.97177 20.2258 1.81855ZM20.0484 15.5686C20.0484 16.9436 19.5605 18.0524 18.7621 18.8065C17.9637 19.5605 16.8548 19.9597 15.5242 19.9597H6.47581C5.14516 19.9597 4.03629 19.5605 3.2379 18.8065C2.43952 18.0081 2.04032 16.8992 2.04032 15.5242V6.43145C2.04032 5.10081 2.43952 3.99194 3.2379 3.19355C3.99194 2.43952 5.14516 2.04032 6.47581 2.04032H15.6129C16.9435 2.04032 18.0524 2.43952 18.8508 3.2379C19.6048 4.03629 20.0484 5.14516 20.0484 6.43145V15.5686Z" fill="#F5F5F5"/>
</svg>
