<svg width="170" height="34" viewBox="0 0 170 34" fill="none" xmlns="http://www.w3.org/2000/svg">
<path d="M9.99608 33.6524L3.93475 24.4177V33.6524H1.93713V20.5366H3.76353L9.82486 29.7485V20.5366H11.8111V33.6524H9.99608Z" fill="#252B33"/>
<path d="M24.3445 33.7665C23.7299 33.8016 23.1147 33.7085 22.538 33.4932C21.9613 33.2778 21.4356 32.9449 20.9944 32.5155C20.5533 32.0861 20.2062 31.5697 19.9753 30.999C19.7443 30.4284 19.6346 29.8159 19.653 29.2006V20.5366H21.6392V29.1435C21.6392 29.5003 21.7095 29.8535 21.846 30.1831C21.9825 30.5128 22.1826 30.8123 22.4349 31.0645C22.6872 31.3168 22.9867 31.5169 23.3163 31.6534C23.6459 31.79 23.9992 31.8602 24.3559 31.8602C24.7127 31.8602 25.066 31.79 25.3956 31.6534C25.7252 31.5169 26.0247 31.3168 26.277 31.0645C26.5293 30.8123 26.7294 30.5128 26.8659 30.1831C27.0024 29.8535 27.0727 29.5003 27.0727 29.1435V20.5366H29.0703V29.2348C29.0791 29.849 28.9614 30.4583 28.7245 31.025C28.4875 31.5917 28.1365 32.1035 27.6932 32.5286C27.2499 32.9538 26.7238 33.283 26.1477 33.496C25.5716 33.709 24.9578 33.8011 24.3445 33.7665Z" fill="#252B33"/>
<path d="M40.9764 22.3174V33.6524H38.9788V22.3174H35.3717V20.5366H44.6178V22.3174H40.9764Z" fill="#252B33"/>
<path d="M58.3159 33.6525L55.5535 28.1277H53.0764V33.6525H51.0902V20.5367H56.1813C56.7069 20.4915 57.2362 20.5579 57.7344 20.7315C58.2327 20.9051 58.6886 21.1821 59.0723 21.5442C59.456 21.9063 59.7588 22.3455 59.9609 22.8328C60.163 23.3202 60.2598 23.8448 60.245 24.3722C60.2806 25.1656 60.0393 25.9467 59.5625 26.5818C59.0856 27.2169 58.4028 27.6666 57.631 27.8537L60.6559 33.6525H58.3159ZM56.0329 22.3175H53.0764V26.4269H56.0329C56.3209 26.4573 56.6121 26.4268 56.8876 26.3374C57.163 26.248 57.4166 26.1016 57.6319 25.9079C57.8472 25.7141 58.0193 25.4773 58.1372 25.2127C58.255 24.9482 58.3159 24.6618 58.3159 24.3722C58.3159 24.0825 58.255 23.7962 58.1372 23.5316C58.0193 23.267 57.8472 23.0302 57.6319 22.8364C57.4166 22.6427 57.163 22.4964 56.8876 22.407C56.6121 22.3176 56.3209 22.2871 56.0329 22.3175Z" fill="#252B33"/>
<path d="M67.7675 33.6524V20.5366H69.7308V33.6524H67.7675Z" fill="#252B33"/>
<path d="M82.2867 22.3174V33.6524H80.2435V22.3174H76.6364V20.5366H85.8482V22.3174H82.2867Z" fill="#252B33"/>
<path d="M92.7201 33.6524V20.5366H94.7177V33.6524H92.7201Z" fill="#252B33"/>
<path d="M110.448 32.3625C109.527 33.2471 108.3 33.7411 107.023 33.7411C105.747 33.7411 104.52 33.2471 103.599 32.3625C102.309 31.0727 102.332 29.623 102.332 27.0888C102.332 24.5547 102.332 23.1164 103.599 21.8266C104.52 20.942 105.747 20.448 107.023 20.448C108.3 20.448 109.527 20.942 110.448 21.8266C111.738 23.1164 111.704 24.5661 111.704 27.0888C111.704 29.6115 111.738 31.0727 110.448 32.3625ZM108.941 23.0251C108.685 22.7677 108.381 22.5633 108.046 22.4239C107.711 22.2844 107.352 22.2126 106.989 22.2126C106.626 22.2126 106.267 22.2844 105.932 22.4239C105.597 22.5633 105.293 22.7677 105.037 23.0251C104.387 23.7214 104.261 24.4634 104.261 27.0888C104.261 29.7143 104.387 30.5133 105.037 31.164C105.293 31.4214 105.597 31.6258 105.932 31.7652C106.267 31.9047 106.626 31.9765 106.989 31.9765C107.352 31.9765 107.711 31.9047 108.046 31.7652C108.381 31.6258 108.685 31.4214 108.941 31.164C109.58 30.4677 109.717 29.7257 109.717 27.0888C109.717 24.452 109.58 23.71 108.941 23.0251Z" fill="#252B33"/>
<path d="M127.684 33.6524L121.623 24.4177V33.6524H119.625V20.5366H121.452L127.513 29.7485V20.5366H129.511V33.6524H127.684Z" fill="#252B33"/>
<path d="M137.547 33.6524V20.5366H139.533V33.6524H137.547Z" fill="#252B33"/>
<path d="M151.051 33.7664C150.198 33.8278 149.341 33.7045 148.539 33.4051C147.738 33.1057 147.01 32.6372 146.405 32.0313L147.741 30.7186C148.176 31.1552 148.7 31.4932 149.277 31.7099C149.854 31.9265 150.471 32.0167 151.086 31.9742C152.798 31.9742 153.802 31.2437 153.802 29.9652C153.818 29.7143 153.78 29.4628 153.689 29.2283C153.598 28.9937 153.458 28.7817 153.277 28.6068C152.877 28.2591 152.369 28.0613 151.839 28.0475L150.298 27.8306C149.38 27.7452 148.511 27.3785 147.809 26.7804C147.479 26.4548 147.223 26.0621 147.057 25.6289C146.892 25.1956 146.821 24.732 146.851 24.2691C146.851 21.9862 148.506 20.4223 151.234 20.4223C151.985 20.3747 152.738 20.483 153.445 20.7403C154.152 20.9976 154.798 21.3985 155.343 21.9177L154.076 23.1733C153.692 22.8188 153.24 22.5459 152.748 22.3713C152.255 22.1966 151.733 22.1239 151.211 22.1574C149.67 22.1574 148.825 23.0363 148.825 24.2007C148.813 24.4277 148.851 24.6546 148.936 24.8655C149.021 25.0765 149.151 25.2664 149.316 25.4221C149.744 25.7379 150.248 25.9349 150.777 25.9928L152.273 26.2097C153.173 26.2721 154.032 26.6155 154.727 27.1914C155.088 27.5343 155.371 27.9521 155.554 28.4154C155.737 28.8787 155.817 29.3764 155.788 29.8739C155.766 32.3281 153.802 33.7664 151.051 33.7664Z" fill="#252B33"/>
<path d="M166.381 22.3174V33.6524H164.395V22.3174H160.788V20.5366H170V22.3174H166.381Z" fill="#252B33"/>
<path d="M14.471 14.5777C13.7747 14.5777 13.5464 14.201 13.5464 13.6874C13.7027 12.826 13.9279 11.9786 14.2199 11.1532C14.2199 11.0848 14.2199 11.0505 14.2199 11.0505H14.14C12.8273 11.0733 10.1219 14.5777 9.23157 14.5777C8.82064 14.5777 8.67224 14.2695 8.67224 13.87C8.68697 13.575 8.74071 13.2833 8.83205 13.0025C9.73383 10.3428 13.9231 4.17872 14.471 3.41391C14.4975 3.37478 14.5332 3.34283 14.5751 3.32091C14.6169 3.299 14.6635 3.28781 14.7107 3.28835C14.8018 3.29102 14.8886 3.32763 14.9541 3.39098C15.0195 3.45434 15.059 3.53987 15.0646 3.6308C15.0623 3.69407 15.038 3.75458 14.9961 3.80202C14.4939 4.49833 10.3274 10.651 9.45987 13.2193C9.37666 13.4403 9.3192 13.6701 9.28865 13.9042C9.75666 13.8358 12.5647 10.32 14.1857 10.32C14.7222 10.377 14.9276 10.5939 14.9276 11.0277C14.9276 11.8039 14.2199 12.9911 14.2199 13.5732C14.2143 13.6165 14.2187 13.6605 14.2328 13.7019C14.2469 13.7432 14.2703 13.7807 14.3011 13.8116C14.332 13.8425 14.3696 13.8659 14.4109 13.8799C14.4522 13.894 14.4962 13.8984 14.5395 13.8928C16.1719 13.8928 19.2082 12.0664 20.4296 11.3359C20.4901 11.3254 20.5518 11.3254 20.6123 11.3359C20.7011 11.3418 20.7841 11.382 20.8438 11.448C20.9035 11.5141 20.9351 11.6008 20.9319 11.6897C20.9318 11.7439 20.9168 11.797 20.8886 11.8433C20.8604 11.8896 20.8201 11.9273 20.7721 11.9523C19.4023 12.7399 16.3545 14.5321 14.5738 14.5891L14.471 14.5777Z" fill="#252B33"/>
<path d="M14.4706 14.6806C14.34 14.7009 14.2065 14.6907 14.0805 14.6508C13.9545 14.6109 13.8395 14.5424 13.7444 14.4506C13.6493 14.3589 13.5768 14.2464 13.5325 14.1219C13.4881 13.9974 13.4732 13.8643 13.4889 13.7331C13.5475 13.1047 13.7015 12.4888 13.9455 11.9067C14.0523 11.6739 14.129 11.4284 14.1738 11.1762H14.1053C13.4432 11.1762 12.3245 12.2149 11.3429 13.1396C10.3612 14.0642 9.64203 14.6806 9.23109 14.6806C8.82015 14.6806 8.6261 14.3952 8.6261 13.9158C8.63607 13.6165 8.68992 13.3204 8.78591 13.0368C9.6991 10.3429 13.8884 4.16741 14.4249 3.43685C14.4559 3.3899 14.4984 3.35163 14.5483 3.32567C14.5983 3.2997 14.654 3.28689 14.7103 3.28846C14.8143 3.28842 14.9142 3.32894 14.9888 3.40141C15.0634 3.47389 15.1068 3.5726 15.1098 3.67657C15.1098 3.75066 15.0858 3.82276 15.0413 3.88204C14.5162 4.61259 10.3726 10.731 9.51646 13.2765C9.44192 13.4806 9.38464 13.6907 9.34524 13.9044C9.70647 13.6302 10.0461 13.3287 10.3612 13.0026C11.4456 11.941 13.0779 10.3543 14.1852 10.3543C14.7331 10.3543 14.9728 10.6397 14.9728 11.1077C14.9255 11.6129 14.7944 12.1067 14.5847 12.5688C14.4205 12.9308 14.3127 13.3157 14.2651 13.7103C14.2651 13.8929 14.345 13.9728 14.539 13.9728C16.1371 13.9728 19.105 12.2149 20.3378 11.473H20.4063C20.4666 11.4318 20.5389 11.4117 20.6118 11.4159C20.6628 11.4174 20.7129 11.4289 20.7595 11.4498C20.806 11.4706 20.8479 11.5005 20.8829 11.5376C20.9179 11.5747 20.9452 11.6183 20.9634 11.666C20.9815 11.7137 20.99 11.7644 20.9885 11.8154C20.9871 11.8796 20.9683 11.9421 20.9342 11.9964C20.9 12.0507 20.8517 12.0947 20.7944 12.1236L20.6346 12.2149C19.2306 13.0254 16.2969 14.7148 14.5733 14.7719L14.4706 14.6806ZM14.6646 3.39119C14.6245 3.38975 14.5847 3.39839 14.5488 3.41634C14.5129 3.43429 14.482 3.46097 14.4591 3.49393C13.934 4.22448 9.74476 10.3429 8.84298 13.0711C8.74753 13.343 8.69366 13.6278 8.68317 13.9158C8.68317 14.3381 8.84298 14.5436 9.19685 14.5778C9.55071 14.6121 10.4068 13.813 11.263 13.014C12.3017 12.0437 13.3861 11.0278 14.0939 11.0278H14.1738C14.1738 11.0278 14.2765 11.0278 14.2765 11.1762C14.2331 11.4398 14.1564 11.6968 14.0482 11.941C13.8018 12.5103 13.6477 13.1153 13.5916 13.7331C13.5916 14.3039 13.8884 14.5778 14.4706 14.5778H14.5276C16.2285 14.5208 19.0936 12.8314 20.5433 12.0323L20.7031 11.941C20.7419 11.9188 20.7747 11.8874 20.7986 11.8496C20.8224 11.8118 20.8367 11.7687 20.8401 11.7241C20.8416 11.6866 20.8357 11.6492 20.8228 11.614C20.8099 11.5788 20.7901 11.5465 20.7646 11.5189C20.7392 11.4913 20.7086 11.4691 20.6745 11.4533C20.6404 11.4376 20.6036 11.4288 20.5661 11.4273C20.5133 11.4177 20.4592 11.4177 20.4063 11.4273H20.3492C19.0822 12.1693 16.1143 13.9272 14.4934 13.9386C14.4432 13.9459 14.392 13.9416 14.3438 13.926C14.2955 13.9104 14.2515 13.884 14.2151 13.8487C14.1787 13.8134 14.1509 13.7702 14.1338 13.7225C14.1168 13.6747 14.1109 13.6237 14.1167 13.5733C14.1654 13.1789 14.2731 12.7941 14.4363 12.4318C14.6289 12.0275 14.7598 11.5965 14.8244 11.1534C14.8244 10.731 14.6304 10.5484 14.1395 10.5027C13.0779 10.5027 11.457 12.078 10.384 13.1167C9.74476 13.7331 9.41373 14.0527 9.24251 14.0756H9.23109V13.9843C9.26471 13.7421 9.32599 13.5047 9.41373 13.2765C10.2813 10.6853 14.4249 4.58976 14.95 3.85921C14.9689 3.8395 14.9837 3.81623 14.9935 3.79075C15.0033 3.76527 15.0079 3.7381 15.0071 3.71081C15.0111 3.66581 15.0048 3.62048 14.9887 3.57828C14.9725 3.53608 14.947 3.49812 14.914 3.46729C14.8809 3.43646 14.8413 3.41358 14.7981 3.4004C14.7549 3.38721 14.7092 3.38406 14.6646 3.39119Z" fill="#252B33"/>
<path d="M19.4248 13.4363C19.5716 12.3825 20.1247 11.428 20.9658 10.7766C21.3834 10.385 21.9242 10.1509 22.4954 10.1145C23.0548 10.1145 23.42 10.4341 23.42 10.8679C23.42 11.3017 23.1347 11.7354 22.4269 12.1349C21.9687 12.4061 21.4518 12.5627 20.9202 12.5915C20.7347 12.5977 20.5506 12.5585 20.3837 12.4774C20.199 12.7528 20.0889 13.0714 20.064 13.402C20.064 13.7787 20.3038 13.9157 21.0229 13.9385C23.1803 13.9385 26.582 12.4089 28.6595 11.3701C28.7077 11.3545 28.7597 11.3545 28.8079 11.3701C28.8968 11.3785 28.9795 11.4191 29.0405 11.4843C29.1015 11.5495 29.1365 11.6348 29.1389 11.724C29.138 11.7839 29.119 11.8422 29.0844 11.8911C29.0497 11.94 29.0011 11.9772 28.9449 11.998C26.776 13.1395 23.2374 14.6348 20.9544 14.6234C19.8586 14.5777 19.4248 14.1668 19.4248 13.4363ZM22.0959 11.5756C22.5525 11.3245 22.7466 11.0619 22.7466 10.9135C22.7466 10.7652 22.6552 10.7423 22.4954 10.7423C21.7955 10.8945 21.1771 11.3013 20.7604 11.8838H20.8973C21.3121 11.871 21.7199 11.7739 22.0959 11.5984V11.5756Z" fill="#252B33"/>
<path d="M21.0001 14.6693C19.8586 14.6693 19.3678 14.2584 19.3678 13.4593C19.516 12.388 20.0773 11.4171 20.9316 10.754C21.3596 10.3558 21.9121 10.1179 22.4955 10.0805C22.614 10.0646 22.7344 10.0733 22.8494 10.1061C22.9643 10.139 23.0712 10.1952 23.1634 10.2713C23.2555 10.3474 23.331 10.4417 23.385 10.5483C23.439 10.655 23.4704 10.7716 23.4772 10.8909C23.4341 11.1799 23.3167 11.4528 23.1367 11.6828C22.9566 11.9129 22.72 12.0924 22.4498 12.2037C21.985 12.4788 21.4598 12.6356 20.9202 12.6603C20.7447 12.6639 20.5701 12.6329 20.4066 12.5689C20.2435 12.827 20.1455 13.1208 20.1212 13.4251C20.1212 13.7219 20.2582 13.8931 21.0344 13.9045C23.2146 13.9045 26.7419 12.3064 28.6367 11.3475C28.6927 11.3314 28.752 11.3314 28.808 11.3475C28.9101 11.3557 29.0058 11.4008 29.0772 11.4743C29.1486 11.5478 29.1909 11.6447 29.1961 11.7471C29.1911 11.8162 29.1671 11.8826 29.1269 11.939C29.0866 11.9954 29.0315 12.0396 28.9678 12.0667C27.0158 13.0255 23.3744 14.6693 21.0001 14.6693ZM22.4955 10.1832C21.9359 10.2168 21.4061 10.4472 21.0001 10.8339C20.1887 11.4795 19.6539 12.4103 19.5048 13.4365C19.5048 14.1784 19.9956 14.578 21.0344 14.578C23.3859 14.578 27.0158 12.9342 28.9563 11.9525C29.0039 11.935 29.0453 11.9042 29.0757 11.8637C29.1061 11.8232 29.1241 11.7747 29.1276 11.7242C29.1226 11.6491 29.0913 11.5781 29.039 11.5238C28.9868 11.4695 28.9171 11.4354 28.8422 11.4274C28.8051 11.4153 28.7651 11.4153 28.7281 11.4274C26.8103 12.3863 23.2717 13.9958 21.0572 13.9958C20.4408 13.9958 20.0527 13.8817 20.0527 13.4136C20.0777 13.0724 20.1876 12.7428 20.3723 12.4548C20.5284 12.5309 20.7012 12.5663 20.8746 12.5575C21.3979 12.5312 21.9071 12.3785 22.3585 12.1123C22.6099 12.0068 22.8306 11.8395 23.0002 11.626C23.1698 11.4125 23.2828 11.1597 23.3288 10.8909C23.3744 10.48 23.0092 10.1946 22.4955 10.1832ZM20.8974 12.021H20.6577V11.9525C21.0781 11.3397 21.7139 10.9077 22.4384 10.7426C22.6667 10.7426 22.7466 10.8681 22.7466 10.9709C22.7466 11.0736 22.564 11.4046 22.0617 11.6786C21.7004 11.8693 21.3045 11.9858 20.8974 12.021ZM20.8974 11.9069H20.9545C21.3558 11.8637 21.7441 11.7394 22.096 11.5416C22.5297 11.3019 22.7352 11.0622 22.7352 10.9252C22.7352 10.7882 22.5982 10.7996 22.5297 10.7996C21.8534 10.95 21.256 11.3441 20.8517 11.9069H20.8974Z" fill="#252B33"/>
<path d="M31.9927 14.749C31.9927 13.7673 33.8077 13.0482 36.1249 12.3747H36.239C35.166 11.9866 33.4424 11.9295 33.2483 11.2332V11.062C33.3282 10.3086 34.3213 9.92051 35.7596 9.49816C36.4073 9.2638 37.0826 9.11416 37.7686 9.05298C38.191 9.05298 38.3622 9.05298 38.5905 9.31552C38.6582 9.37405 38.7134 9.4457 38.7526 9.52614C38.7918 9.60658 38.8144 9.69414 38.8188 9.78353C38.7672 10.0953 38.6346 10.3881 38.4343 10.6325C38.234 10.8769 37.9729 11.0644 37.6773 11.1762C37.6142 11.1963 37.5464 11.1963 37.4833 11.1762C37.4338 11.1777 37.3845 11.1694 37.3382 11.1519C37.2919 11.1344 37.2496 11.1079 37.2135 11.074C37.1775 11.04 37.1485 10.9993 37.1282 10.9542C37.1078 10.9091 37.0966 10.8604 37.0952 10.8109C37.0958 10.7376 37.1149 10.6657 37.1509 10.6018C37.1868 10.5379 37.2383 10.4842 37.3006 10.4456C37.5834 10.3039 37.8178 10.0814 37.9741 9.80636H37.7458C36.6277 9.9096 35.5333 10.1909 34.504 10.6397C34.3346 10.7157 34.177 10.8156 34.036 10.9364C34.3213 11.1191 36.6728 11.3246 37.2321 12.0779C39.3699 11.509 41.5385 11.063 43.7272 10.7424C43.7791 10.7393 43.8311 10.7467 43.8801 10.7641C43.9291 10.7815 43.9741 10.8086 44.0125 10.8437C44.0508 10.8789 44.0817 10.9213 44.1033 10.9686C44.1249 11.0159 44.1367 11.0671 44.1382 11.1191C44.1414 11.1729 44.1333 11.2268 44.1145 11.2774C44.0957 11.3279 44.0666 11.374 44.029 11.4126C43.9914 11.4513 43.9462 11.4817 43.8962 11.5019C43.8462 11.5221 43.7926 11.5317 43.7387 11.53C41.6278 11.8505 39.5358 12.2849 37.4719 12.8313C37.3006 14.0756 34.698 15.6166 33.1113 15.6166C32.3465 15.628 32.0612 15.2627 31.9927 14.749ZM36.5587 13.0825C35.5693 13.3683 34.5974 13.7114 33.6478 14.1098C33.1342 14.3723 32.826 14.5892 32.826 14.7262C32.826 14.8632 32.826 14.7833 32.826 14.7833C32.9161 14.8219 33.0133 14.8413 33.1113 14.8404C34.4138 14.6636 35.6154 14.0426 36.513 13.0825H36.5587Z" fill="#252B33"/>
<path d="M42.5745 13.3678C42.7369 12.2668 43.273 11.2553 44.0926 10.5026C44.1662 10.2285 44.3329 9.98855 44.5641 9.82399C44.7953 9.65943 45.0766 9.58052 45.3597 9.60082C45.5311 9.58805 45.7032 9.61125 45.865 9.66891C46.0269 9.72657 46.1749 9.81744 46.2996 9.93567C46.4243 10.0539 46.5229 10.1969 46.589 10.3555C46.6552 10.514 46.6875 10.6847 46.6838 10.8565C46.6821 11.0931 46.6436 11.328 46.5697 11.5528C46.9221 11.5945 47.2764 11.6174 47.6313 11.6213C49.5546 11.5319 51.4527 11.1469 53.2588 10.4798H53.3844C53.6355 10.4798 53.7383 10.651 53.7725 10.8793C53.7739 10.9603 53.7491 11.0396 53.7018 11.1054C53.6545 11.1712 53.5872 11.22 53.51 11.2446C51.6114 11.9197 49.6218 12.3045 47.6084 12.3861C47.1531 12.3912 46.6982 12.353 46.2501 12.2719C45.7364 13.1965 44.6063 14.3951 43.6703 14.3951C43.529 14.4081 43.3865 14.3909 43.2523 14.3448C43.1181 14.2987 42.9951 14.2247 42.8916 14.1276C42.788 14.0305 42.7063 13.9126 42.6516 13.7817C42.5969 13.6507 42.5706 13.5096 42.5745 13.3678ZM45.4624 12.0893C45.022 11.9615 44.6264 11.7123 44.3209 11.3701C43.8138 11.924 43.4701 12.6075 43.3278 13.3449C43.3221 13.3837 43.3255 13.4234 43.3378 13.4606C43.3501 13.4979 43.3709 13.5317 43.3987 13.5595C43.4264 13.5872 43.4603 13.6081 43.4975 13.6204C43.5348 13.6327 43.5744 13.6361 43.6132 13.6303C44.241 13.6075 45.0629 12.7285 45.4624 12.0893ZM45.8962 10.8793C45.9029 10.8121 45.895 10.7443 45.873 10.6805C45.851 10.6167 45.8155 10.5584 45.7689 10.5096C45.7222 10.4608 45.6656 10.4227 45.6029 10.3978C45.5401 10.373 45.4728 10.362 45.4054 10.3656C45.1314 10.3656 44.8803 10.5026 44.8689 10.6967C44.8575 10.8907 45.4396 11.2674 45.8049 11.3816C45.8691 11.2221 45.9002 11.0512 45.8962 10.8793Z" fill="#252B33"/>
<path d="M51.4671 13.9499C51.446 13.8947 51.446 13.8338 51.4671 13.7786C51.9009 12.854 53.088 10.571 53.6588 9.63502C53.6905 9.57765 53.7367 9.52957 53.7928 9.49553C53.8489 9.4615 53.9128 9.44269 53.9784 9.44096C54.0807 9.44618 54.1777 9.48842 54.2512 9.55983C54.3247 9.63123 54.3697 9.72692 54.3779 9.82907C54.3791 9.90163 54.3593 9.97298 54.3208 10.0345C54.1154 10.3998 53.83 10.9021 53.5446 11.45C54.5639 10.5123 55.6859 9.69284 56.8892 9.0072C56.9528 8.99077 57.0196 8.99077 57.0833 9.0072C57.1342 9.00867 57.1844 9.02018 57.2309 9.04106C57.2775 9.06195 57.3194 9.09179 57.3544 9.12889C57.3894 9.166 57.4167 9.20963 57.4348 9.2573C57.4529 9.30497 57.4615 9.35575 57.4599 9.40672C57.4783 9.47785 57.4783 9.55247 57.4599 9.6236C57.2435 9.93408 57.1135 10.2965 57.0833 10.6738C57.0833 11.2902 57.8595 11.5185 58.4302 11.5641H58.9896C60.5396 11.6152 62.0811 11.3148 63.4985 10.6852H63.6697C63.7727 10.6909 63.8698 10.7351 63.9417 10.8092C64.0137 10.8832 64.0551 10.9816 64.0578 11.0847C64.0602 11.1585 64.0395 11.2311 63.9985 11.2925C63.9576 11.3539 63.8985 11.401 63.8295 11.4272C62.323 12.1132 60.6782 12.4414 59.0238 12.386H58.3731C57.323 12.3175 56.307 11.781 56.2956 10.7537C56.2733 10.6329 56.2733 10.5091 56.2956 10.3884C54.6923 11.4042 53.2912 12.7086 52.1634 14.2352C52.131 14.2852 52.0872 14.3268 52.0356 14.3565C51.984 14.3863 51.9261 14.4034 51.8666 14.4065C51.7536 14.3977 51.6484 14.345 51.5738 14.2596C51.4991 14.1743 51.4608 14.0631 51.4671 13.9499Z" fill="#252B33"/>
<path d="M62.3225 13.2994C62.4844 12.1958 63.0251 11.1829 63.8521 10.4343C63.9233 10.1611 64.0878 9.92142 64.3171 9.75674C64.5464 9.59205 64.8261 9.51273 65.1077 9.53252C65.2802 9.52151 65.453 9.54622 65.6155 9.60509C65.778 9.66397 65.9265 9.75575 66.0519 9.87469C66.1773 9.99362 66.2767 10.1372 66.3441 10.2963C66.4114 10.4554 66.4452 10.6268 66.4433 10.7996C66.4351 11.0319 66.3967 11.2621 66.3291 11.4845C66.6771 11.5323 67.0281 11.5552 67.3793 11.553C69.3028 11.4647 71.201 11.0796 73.0069 10.4115H73.1438C73.395 10.4115 73.4863 10.5827 73.5319 10.8224C73.5275 10.9036 73.4991 10.9816 73.4504 11.0466C73.4016 11.1116 73.3347 11.1607 73.258 11.1877C71.3618 11.8571 69.3769 12.2417 67.3679 12.3292C66.9093 12.3321 66.4512 12.2977 65.9981 12.2264C65.4844 13.1396 64.3658 14.3382 63.4183 14.3382C63.2764 14.3495 63.1337 14.3307 62.9995 14.2833C62.8652 14.2358 62.7425 14.1607 62.6392 14.0628C62.5358 13.9648 62.4543 13.8463 62.3997 13.7148C62.3451 13.5833 62.3188 13.4418 62.3225 13.2994ZM65.1648 12.021C64.7258 11.8899 64.3311 11.6412 64.0233 11.3018C63.5193 11.8563 63.1794 12.5401 63.0416 13.2766C63.0358 13.3154 63.0392 13.3551 63.0515 13.3923C63.0638 13.4296 63.0847 13.4634 63.1124 13.4912C63.1402 13.5189 63.174 13.5398 63.2113 13.5521C63.2486 13.5644 63.2882 13.5678 63.327 13.562C64.0233 13.5392 64.8109 12.6602 65.1648 12.021ZM65.61 10.8224C65.6187 10.7533 65.6119 10.6832 65.5901 10.6171C65.5683 10.551 65.532 10.4906 65.4839 10.4403C65.4357 10.39 65.377 10.3511 65.3119 10.3263C65.2469 10.3016 65.1771 10.2917 65.1077 10.2973C64.8338 10.2973 64.5941 10.4343 64.5712 10.6284C64.5484 10.8224 65.1534 11.1991 65.5187 11.3132C65.5919 11.1586 65.6382 10.9926 65.6556 10.8224H65.61Z" fill="#252B33"/>
<path d="M71.1581 13.9615C71.1371 13.9064 71.1371 13.8454 71.1581 13.7903C71.5919 12.8657 72.7677 10.5827 73.3384 9.64667C73.3736 9.58983 73.4222 9.54245 73.4799 9.50863C73.5376 9.47481 73.6026 9.45559 73.6694 9.45261C73.7708 9.45508 73.8676 9.4949 73.9413 9.56444C74.0151 9.63397 74.0605 9.7283 74.069 9.82931C74.0896 9.90013 74.0896 9.97537 74.069 10.0462C73.8635 10.4115 73.5781 10.9023 73.2927 11.4616C74.2912 10.524 75.3943 9.7043 76.5802 9.01885C76.6432 8.99795 76.7113 8.99795 76.7743 9.01885C76.8263 9.02028 76.8774 9.03215 76.9247 9.05375C76.972 9.07534 77.0145 9.10622 77.0497 9.14455C77.0848 9.18288 77.1119 9.22788 77.1293 9.27688C77.1467 9.32588 77.1541 9.37788 77.151 9.42978C77.1509 9.50218 77.1312 9.5732 77.0939 9.63525C76.8808 9.94743 76.7511 10.309 76.7172 10.6854C76.7172 11.3018 77.4934 11.5301 78.0642 11.5872H78.6235C80.4535 11.552 82.2595 11.1644 83.9429 10.4457C83.9995 10.4354 84.0575 10.4354 84.1141 10.4457C84.2163 10.4539 84.3119 10.4989 84.3833 10.5724C84.4548 10.6459 84.497 10.7429 84.5022 10.8452C84.5053 10.9206 84.4851 10.995 84.4442 11.0584C84.4033 11.1217 84.3438 11.1709 84.2739 11.1991C82.5065 11.9248 80.614 12.2971 78.7034 12.2949H78.0528C77.0026 12.215 75.9867 11.6899 75.9753 10.6512C75.9544 10.5303 75.9544 10.4068 75.9753 10.2859C74.3745 11.305 72.9739 12.6089 71.843 14.1327C71.8088 14.1836 71.7631 14.2256 71.7095 14.2554C71.6559 14.2851 71.5961 14.3018 71.5348 14.304C71.4433 14.2956 71.3571 14.2577 71.2891 14.1959C71.2211 14.1341 71.1751 14.0518 71.1581 13.9615Z" fill="#252B33"/>
<path d="M82.573 13.3682C82.8865 12.0661 83.4914 10.8523 84.3423 9.8181C84.3747 9.76813 84.4185 9.72656 84.4701 9.6968C84.5217 9.66703 84.5796 9.64993 84.6391 9.64688C84.7444 9.64359 84.8469 9.68084 84.9255 9.75094C85.004 9.82103 85.0527 9.91863 85.0615 10.0236C85.0615 10.1065 85.0333 10.1871 84.9816 10.2519C84.2612 11.1655 83.712 12.2019 83.3606 13.3111C83.3606 13.4252 83.4405 13.4481 83.5547 13.4481H83.6688C85.6208 13.4481 95.4262 9.9665 98.0631 8.88208H98.2229C98.4854 8.88208 98.5425 9.00764 98.5996 9.25877C98.5995 9.33352 98.5764 9.40644 98.5335 9.46768C98.4907 9.52891 98.4301 9.57553 98.3599 9.60122C95.5175 10.7427 85.8034 14.1672 83.6346 14.1672C82.904 14.2471 82.5844 13.9731 82.573 13.3682Z" fill="#252B33"/>
<path d="M92.6634 22.6481C92.6634 22.5226 92.6634 22.4084 92.6634 22.2828C93.2684 19.3835 97.8115 15.3654 100.243 13.8472L101.384 11.5642C100.448 12.3747 98.4622 13.9499 97.2408 13.9499C96.938 13.9499 96.6477 13.8297 96.4336 13.6156C96.2195 13.4015 96.0993 13.1112 96.0993 12.8084C96.0993 11.667 97.4462 9.88622 97.9485 9.23557C97.9863 9.18737 98.035 9.1488 98.0905 9.123C98.1461 9.09721 98.2069 9.08493 98.2681 9.08717C98.3691 9.08713 98.4661 9.12645 98.5386 9.19678C98.6111 9.26712 98.6533 9.36293 98.6562 9.46387C98.6524 9.5532 98.6248 9.63989 98.5763 9.71499C97.8085 10.597 97.2365 11.6319 96.8983 12.7514C96.8983 13.071 97.0239 13.1281 97.3207 13.1851C98.5535 13.1851 102.012 10.1259 102.617 9.3383C102.648 9.29067 102.691 9.25127 102.74 9.22345C102.79 9.19563 102.846 9.18021 102.903 9.17849C102.955 9.17697 103.007 9.18581 103.056 9.20449C103.105 9.22318 103.15 9.25135 103.188 9.28739C103.227 9.32343 103.257 9.36664 103.279 9.41455C103.3 9.46246 103.312 9.51413 103.314 9.5666C103.326 9.6345 103.326 9.70417 103.314 9.77207C103.005 10.2743 102.069 12.135 101.601 13.071C104.329 11.6867 107.18 10.5594 110.117 9.70358H110.231C110.494 9.70358 110.573 9.8748 110.608 10.1259C110.615 10.2083 110.593 10.2906 110.545 10.3577C110.497 10.4249 110.426 10.4723 110.345 10.4912C107.065 11.4158 103.904 12.7222 100.928 14.3837C98.6448 18.8127 95.7112 23.7668 93.7935 23.7782C93.6424 23.7883 93.491 23.766 93.3493 23.7128C93.2076 23.6596 93.079 23.5767 92.9719 23.4696C92.8649 23.3626 92.782 23.2339 92.7288 23.0923C92.6756 22.9506 92.6533 22.7991 92.6634 22.6481ZM99.5123 15.2969C97.6403 16.6667 93.9533 20.1825 93.4738 22.4312V22.6367C93.4738 22.9221 93.6222 23.0476 93.8391 23.0362C95.0834 23.0362 97.3892 19.2693 99.5009 15.2969H99.5123Z" fill="#252B33"/>
<path d="M84.9922 7.9228C84.9901 7.84318 85.0132 7.76494 85.0583 7.69931C85.1035 7.63368 85.1682 7.58404 85.2433 7.55752L85.757 7.35205H85.894C85.998 7.35502 86.0967 7.39842 86.1691 7.47303C86.2416 7.54763 86.2821 7.64756 86.2821 7.75157C86.2842 7.83309 86.2581 7.91283 86.2081 7.97731C86.1582 8.04179 86.0876 8.08705 86.0081 8.10544L85.5287 8.32232H85.3917C85.3393 8.32232 85.2873 8.31199 85.2388 8.29191C85.1904 8.27183 85.1463 8.2424 85.1092 8.2053C85.0721 8.1682 85.0427 8.12416 85.0226 8.07569C85.0025 8.02722 84.9922 7.97526 84.9922 7.9228Z" fill="#252B33"/>
<path d="M99.4098 4.64689L95.0378 4.54416C95.8255 3.18578 96.8072 1.27949 97.3208 0.571759C97.3794 0.495847 97.4151 0.404744 97.4236 0.309216C97.4095 0.218459 97.3617 0.136343 97.2898 0.0792263C97.2179 0.0221094 97.1271 -0.00581698 97.0355 0.00101158C96.9713 0.00238198 96.9088 0.0211631 96.8545 0.0553443C96.8002 0.0895254 96.7562 0.137821 96.7273 0.195066C96.2136 0.982697 95.0721 2.98031 94.1931 4.55557H85.1753C85.0724 4.55557 84.9737 4.59646 84.9009 4.66925C84.8281 4.74203 84.7872 4.84075 84.7872 4.94368C84.7872 5.04661 84.8281 5.14533 84.9009 5.21811C84.9737 5.2909 85.0724 5.33179 85.1753 5.33179H92.5266H93.7023L90.5175 11.473C89.3839 13.596 88.3591 15.7753 87.4469 18.0024V18.1736C87.4557 18.2776 87.5048 18.374 87.5837 18.4423C87.6626 18.5105 87.7651 18.5452 87.8693 18.5389C87.9448 18.5423 88.0194 18.5207 88.0813 18.4773C88.1433 18.434 88.1891 18.3713 88.2117 18.2992C90.0273 13.8323 92.1558 9.49908 94.5812 5.33179C98.8276 5.33179 98.1199 5.33179 99.3869 5.43452C99.4344 5.43455 99.4814 5.42503 99.5251 5.40654C99.5687 5.38805 99.6083 5.36096 99.6413 5.32688C99.6743 5.2928 99.7001 5.25243 99.7172 5.20817C99.7343 5.16391 99.7423 5.11667 99.7408 5.06925C99.7479 4.97032 99.7179 4.87228 99.6567 4.79422C99.5956 4.71616 99.5075 4.66364 99.4098 4.64689Z" fill="#252B33"/>
<path d="M13.6725 6.18772L9.62017 6.08498C10.3393 4.81792 11.2639 3.06002 11.7091 2.39796C11.7639 2.32523 11.7957 2.23777 11.8004 2.14683C11.7864 2.06213 11.7411 1.9858 11.6734 1.93294C11.6058 1.88009 11.5207 1.85458 11.4351 1.86145C11.3758 1.86453 11.3183 1.88299 11.2683 1.91501C11.2183 1.94703 11.1774 1.99151 11.1498 2.04409C10.6818 2.77465 9.60875 4.62387 8.79829 6.0964H0.419721C0.322843 6.0964 0.229934 6.13488 0.161431 6.20338C0.0929283 6.27189 0.0544434 6.3648 0.0544434 6.46168C0.0544434 6.55855 0.0929283 6.65146 0.161431 6.71997C0.229934 6.78847 0.322843 6.82695 0.419721 6.82695H8.41018C8.41018 6.82695 6.37832 10.6624 6.12719 11.1532C5.19495 12.8731 4.37146 14.6497 3.66157 16.4726V16.6324C3.66586 16.6804 3.67962 16.7272 3.70207 16.7699C3.72451 16.8126 3.7552 16.8504 3.79234 16.8812C3.82949 16.9119 3.87236 16.9351 3.91849 16.9492C3.96461 16.9633 4.01308 16.9681 4.06109 16.9634C4.12965 16.9621 4.19636 16.9409 4.2531 16.9024C4.30984 16.8639 4.35417 16.8098 4.38071 16.7465C5.70891 13.3027 7.33206 9.98004 9.23206 6.81554C13.1816 6.81554 12.5196 6.81554 13.6953 6.91827C13.7861 6.91827 13.8732 6.88219 13.9374 6.81797C14.0017 6.75375 14.0377 6.66665 14.0377 6.57582C14.0409 6.52597 14.0337 6.47601 14.0168 6.42902C13.9998 6.38203 13.9734 6.33902 13.9392 6.30265C13.9049 6.26627 13.8636 6.2373 13.8177 6.21754C13.7719 6.19777 13.7224 6.18762 13.6725 6.18772Z" fill="#252B33"/>
<path d="M4.00371 16.9979C3.8959 16.9989 3.79107 16.9626 3.70693 16.8952C3.66282 16.8622 3.62733 16.819 3.60348 16.7693C3.57964 16.7196 3.56813 16.6649 3.56995 16.6098V16.4386L4.09503 15.2058C4.77993 13.5849 4.77993 13.5849 5.12238 12.9228C5.2936 12.5918 5.55615 12.0895 6.03557 11.1192C6.26387 10.6626 7.98753 7.40937 8.31856 6.87287H7.25697H0.408008C0.327278 6.87013 0.249028 6.84429 0.182536 6.79842C0.116045 6.75256 0.0640999 6.68859 0.0328616 6.6141C0.0016233 6.5396 -0.0075985 6.45772 0.00628965 6.37814C0.0201778 6.29857 0.0565938 6.22465 0.111219 6.16514C0.149676 6.1253 0.19579 6.09363 0.246792 6.07206C0.297793 6.05048 0.35263 6.03943 0.408008 6.03958H8.76375C9.58562 4.54422 10.6244 2.72925 11.0467 2.0101C11.0766 1.95114 11.1223 1.90171 11.1788 1.86741C11.2353 1.83312 11.3003 1.81532 11.3664 1.81605C11.4627 1.80951 11.5578 1.84022 11.6322 1.90182C11.7065 1.96342 11.7544 2.05122 11.7659 2.14708C11.7599 2.24482 11.7285 2.33929 11.6746 2.42104C11.4006 2.83198 10.944 3.66527 10.4646 4.54422L9.63128 6.03958L13.6037 6.1309C13.6597 6.13226 13.7148 6.14506 13.7657 6.1685C13.8166 6.19195 13.8621 6.22555 13.8995 6.26725C13.937 6.30894 13.9655 6.35784 13.9833 6.41095C14.0011 6.46406 14.0079 6.52026 14.0032 6.57608C14.0032 6.67901 13.9623 6.77773 13.8895 6.85052C13.8167 6.9233 13.718 6.96419 13.6151 6.96419H13.0101C12.4964 6.96419 12.1882 6.96419 9.17468 6.8957C8.59252 7.95729 8.15875 8.74492 7.80489 9.37274C6.43747 11.7389 5.26545 14.2128 4.3005 16.7696C4.27254 16.8438 4.22254 16.9076 4.15724 16.9525C4.09194 16.9974 4.01447 17.0212 3.93522 17.0208L4.00371 16.9979ZM8.46696 6.72448V6.78155C8.46696 6.78155 6.4351 10.617 6.18397 11.1078C5.70454 12.0781 5.442 12.5803 5.27077 12.9114C4.92832 13.5849 4.92832 13.5849 4.24343 15.1944L3.71834 16.4158V16.5756C3.71965 16.6136 3.72958 16.6508 3.74738 16.6844C3.76517 16.718 3.79037 16.7472 3.82108 16.7696C3.88709 16.8192 3.96685 16.8471 4.04937 16.8495C4.10675 16.8504 4.16296 16.8333 4.21006 16.8005C4.25717 16.7677 4.2928 16.721 4.31192 16.6669C5.28582 14.1046 6.46144 11.6236 7.82772 9.24718C8.18158 8.61936 8.62677 7.83172 9.22034 6.7473C12.2567 6.7473 12.5763 6.74731 13.09 6.8158H13.6836C13.7593 6.8158 13.8319 6.78573 13.8854 6.73221C13.9389 6.67869 13.969 6.60611 13.969 6.53042C13.9721 6.48751 13.9665 6.44442 13.9525 6.40373C13.9385 6.36304 13.9165 6.32558 13.8877 6.2936C13.859 6.26163 13.824 6.23579 13.785 6.21764C13.746 6.19949 13.7038 6.1894 13.6608 6.18797L9.51713 6.09665V6.01675C9.79109 5.53732 10.0993 4.97799 10.3961 4.44149C10.8755 3.56254 11.3321 2.72925 11.6061 2.31831C11.6555 2.25657 11.6835 2.18046 11.686 2.10142C11.6703 2.03507 11.6322 1.97614 11.5781 1.93456C11.5241 1.89299 11.4573 1.87129 11.3892 1.87313C11.3395 1.87381 11.291 1.88798 11.2488 1.91412C11.2065 1.94026 11.1722 1.97738 11.1495 2.02152C10.6815 2.75208 9.63128 4.57847 8.79799 6.07382H0.419422C0.378955 6.07345 0.33884 6.08137 0.301542 6.09707C0.264245 6.11277 0.230554 6.13594 0.202538 6.16514C0.174196 6.19142 0.151487 6.22319 0.135789 6.25851C0.120091 6.29383 0.111733 6.33197 0.111219 6.37061C0.106211 6.41334 0.110553 6.45665 0.123944 6.49754C0.137335 6.53842 0.159455 6.57591 0.188772 6.6074C0.218089 6.63889 0.253901 6.66362 0.293727 6.6799C0.333554 6.69617 0.376443 6.70359 0.419422 6.70165H7.26839H8.5012L8.46696 6.72448Z" fill="#252B33"/>
</svg>
