<svg width="174" height="27" viewBox="0 0 174 27" fill="none" xmlns="http://www.w3.org/2000/svg">
<path d="M5.83 0.189941L12.12 14.1899L10.7 17.3299H9.46L3 3.04994C2.42 1.69994 1.22 0.409941 0 0.409941V0.189941H5.83ZM5.38 17.1099V17.3299H0V17.1099C0.683438 17.0729 1.32826 16.7814 1.80759 16.2928C2.28691 15.8042 2.56602 15.154 2.59 14.4699H2.78C2.79956 15.1571 3.07858 15.8114 3.56094 16.3011C4.0433 16.7909 4.69323 17.0799 5.38 17.1099ZM14.06 0.189941H22.83V0.409941C22.1477 0.445029 21.5039 0.736504 21.0274 1.22602C20.5508 1.71554 20.2767 2.36698 20.26 3.04994V14.4699C20.2767 15.1529 20.5508 15.8043 21.0274 16.2939C21.5039 16.7834 22.1477 17.0749 22.83 17.1099V17.3299H14.06V17.1099C14.7468 17.0799 15.3967 16.7909 15.8791 16.3011C16.3614 15.8114 16.6404 15.1571 16.66 14.4699V3.04994C16.6404 2.36279 16.3614 1.70853 15.8791 1.21875C15.3967 0.728966 14.7468 0.439991 14.06 0.409941V0.189941Z" fill="#252B33"/>
<path d="M28.6098 10.2001C28.6098 13.7801 30.1898 16.3001 32.8598 16.3001C33.7341 16.2823 34.5667 15.9234 35.1798 15.3001L35.3498 15.4401C34.8762 16.0623 34.2555 16.5571 33.5433 16.88C32.8312 17.2029 32.0499 17.3438 31.2698 17.2901C28.0798 17.2901 25.0098 15.2901 25.0098 11.4601C24.9748 9.95041 25.5371 8.4879 26.5745 7.39056C27.6119 6.29322 29.0406 5.64976 30.5498 5.6001C33.7198 5.6001 35.8598 7.8601 35.8598 11.4601H32.4998C32.4998 8.7901 32.1098 5.8201 30.5498 5.8201C28.9898 5.8201 28.6098 8.6401 28.6098 10.2001Z" fill="#252B33"/>
<path d="M39 10.5799C39 7.99991 41.11 5.89991 44.64 5.65991V5.99991C43.18 6.50991 42.64 8.58991 42.64 10.6299C42.64 12.6699 43.22 14.7899 44.64 15.2699V15.5799C41.11 15.2899 39 13.1999 39 10.5799ZM52.1 22.7299C52.0469 23.3864 51.8259 24.0182 51.4581 24.5646C51.0903 25.111 50.5882 25.5536 50 25.8499L49.9 25.6799C50.0994 25.5182 50.2642 25.318 50.3844 25.0912C50.5047 24.8644 50.578 24.6157 50.6 24.3599C50.6 22.7999 45.92 21.9099 43.04 21.3599C41.69 21.0699 40.04 20.6399 40.04 18.4799C40.0824 17.9711 40.2253 17.4758 40.4605 17.0227C40.6957 16.5695 41.0184 16.1675 41.41 15.8399L41.57 15.9899C41.3981 16.2932 41.3313 16.6447 41.38 16.9899C41.65 18.1399 46.01 18.6399 48.99 19.3899C51.36 19.9999 52.1 21.2199 52.1 22.7299ZM46.27 26.5199V26.7599C45.8685 26.8395 45.4591 26.873 45.05 26.8599C42.82 26.8599 40.22 25.9899 40.22 24.0999V24.0499C40.2385 23.7282 40.375 23.4247 40.6033 23.1972C40.8316 22.9698 41.1356 22.8345 41.4574 22.8172C41.7792 22.7999 42.096 22.9017 42.3474 23.1033C42.5988 23.3049 42.767 23.5921 42.82 23.9099C42.8452 24.32 42.9588 24.7199 43.153 25.082C43.3472 25.4441 43.6175 25.7599 43.9452 26.0078C44.2728 26.2557 44.6503 26.4298 45.0515 26.5182C45.4528 26.6066 45.8685 26.6072 46.27 26.5199ZM52.1 5.25991H51.94C51.74 4.38991 51.1 3.99991 50 3.99991C49.2998 3.97678 48.6041 4.11966 47.9698 4.41686C47.3354 4.71406 46.7804 5.15715 46.35 5.70991C49.69 6.03991 51.7 8.07991 51.7 10.5999C51.7 13.1199 49.56 15.2899 46 15.5299V15.2199C47.47 14.7399 48 12.6499 48 10.5799C48 8.50991 47.5 6.45991 46 5.99991V5.65991C46.31 4.05991 47.85 1.65991 49.72 1.65991C52.8 1.67991 52.1 5.25991 52.1 5.25991Z" fill="#252B33"/>
<path d="M58.46 0.189941H67.22V0.409941C66.5365 0.446991 65.8917 0.738484 65.4124 1.22706C64.9331 1.71564 64.6539 2.36592 64.63 3.04994V17.3299H58.46V17.1099C59.1369 17.0676 59.7734 16.7729 60.2436 16.2841C60.7139 15.7954 60.9838 15.148 61 14.4699V3.04994C60.9838 2.37187 60.7139 1.72451 60.2436 1.23574C59.7734 0.74696 59.1369 0.452296 58.46 0.409941V0.189941ZM72.67 13.2699H72.89V17.3299H67.7V17.1099C68.8023 16.9915 69.8502 16.57 70.7275 15.8922C71.6048 15.2143 72.2772 14.3067 72.67 13.2699Z" fill="#252B33"/>
<path d="M81.3801 17.1101V17.3301H79.0801C76.9901 17.3301 76.0801 16.5901 76.0801 14.8601C76.0801 12.3401 79.5901 10.8601 81.3401 10.5101V10.7301C80.3401 11.3301 79.7101 12.7301 79.7101 14.8301C79.6601 16.5401 80.6901 17.1101 81.3801 17.1101ZM76.5101 8.38014C76.5101 8.0716 76.6016 7.76999 76.773 7.51345C76.9444 7.25691 77.188 7.05696 77.4731 6.93888C77.7581 6.82081 78.0718 6.78992 78.3744 6.85011C78.677 6.9103 78.955 7.05888 79.1732 7.27705C79.3913 7.49522 79.5399 7.77319 79.6001 8.0758C79.6603 8.37841 79.6294 8.69207 79.5113 8.97712C79.3933 9.26218 79.1933 9.50581 78.9368 9.67723C78.6802 9.84864 78.3786 9.94014 78.0701 9.94014C77.6563 9.94014 77.2595 9.77578 76.967 9.48322C76.6744 9.19067 76.5101 8.79387 76.5101 8.38014ZM85.0001 21.6001C84.6586 21.6191 84.317 21.564 83.9988 21.4385C83.6807 21.3129 83.3934 21.1201 83.1569 20.873C82.9203 20.626 82.74 20.3307 82.6284 20.0074C82.5167 19.6841 82.4764 19.3405 82.5101 19.0001V9.60014C82.5101 5.86014 80.5701 5.86014 80.5701 5.86014V5.64014C84.8401 5.64014 85.8701 8.26014 85.8701 10.8501V19.8501C85.8701 20.4101 86.1101 20.6701 86.4201 20.6701C86.5155 20.6668 86.6084 20.6382 86.6892 20.5873C86.7701 20.5363 86.8359 20.4648 86.8801 20.3801L87.0701 20.4501C87.0701 20.4501 86.8801 21.6001 85.0001 21.6001Z" fill="#252B33"/>
<path d="M96.4 17.1099V17.3299H89.29V17.1099C90.51 17.1099 91.16 16.5099 91.16 14.9999V9.57986C91.16 8.08986 90.51 7.12986 89.29 7.24986V6.99986L94.52 5.60986V14.9999C94.52 16.5099 95.15 17.1099 96.4 17.1099ZM104.1 23.9299V24.1199H102.25C101.808 24.1225 101.37 24.0374 100.961 23.8695C100.552 23.7016 100.181 23.4542 99.8682 23.1417C99.5557 22.8291 99.3083 22.4577 99.1404 22.0488C98.9725 21.64 98.8874 21.2018 98.89 20.7599V8.89986C98.89 5.80986 98.05 5.68986 96.78 5.99986V5.77986C97.0858 5.69163 97.4019 5.64455 97.72 5.63986C100.57 5.63986 102.25 6.63986 102.25 10.2199V21.8199C102.25 23.3099 102.88 23.9299 104.1 23.9299Z" fill="#252B33"/>
<path d="M106 10.5799C106 7.98991 108.11 5.89991 111.64 5.65991V5.99991C110.18 6.50991 109.64 8.58991 109.64 10.6299C109.64 12.6699 110.22 14.7899 111.64 15.2699V15.5799C108.08 15.2899 106 13.1999 106 10.5799ZM119.1 22.7299C119.044 23.3894 118.818 24.0233 118.445 24.57C118.072 25.1166 117.564 25.5575 116.97 25.8499L116.87 25.6799C117.069 25.5182 117.234 25.318 117.354 25.0912C117.475 24.8644 117.548 24.6157 117.57 24.3599C117.57 22.7999 112.89 21.9099 110.01 21.3599C108.66 21.0699 107.01 20.6399 107.01 18.4799C107.052 17.972 107.193 17.4773 107.427 17.0243C107.66 16.5712 107.981 16.1687 108.37 15.8399L108.54 15.9899C108.368 16.2932 108.301 16.6447 108.35 16.9899C108.61 18.1399 112.98 18.6399 115.96 19.3899C118.33 19.9999 119.07 21.2199 119.07 22.7299H119.1ZM113.27 26.5199V26.7599C112.868 26.8395 112.459 26.873 112.05 26.8599C109.82 26.8599 107.22 25.9899 107.22 24.0999V24.0499C107.239 23.7282 107.375 23.4247 107.603 23.1972C107.832 22.9698 108.136 22.8345 108.457 22.8172C108.779 22.7999 109.096 22.9017 109.347 23.1033C109.599 23.3049 109.767 23.5921 109.82 23.9099C109.846 24.3169 109.959 24.7136 110.151 25.0732C110.344 25.4328 110.611 25.7469 110.935 25.9943C111.259 26.2417 111.633 26.4167 112.031 26.5073C112.428 26.598 112.841 26.6023 113.24 26.5199H113.27ZM119.1 5.25991H118.94C118.74 4.34991 118.1 3.93991 116.94 3.93991C116.24 3.91678 115.544 4.05966 114.91 4.35686C114.275 4.65406 113.72 5.09715 113.29 5.64991C116.63 5.97991 118.64 8.01991 118.64 10.5399C118.64 13.0599 116.53 15.2499 113 15.4899V15.1799C114.47 14.6999 115 12.6099 115 10.5399C115 8.46991 114.43 6.41991 113 5.90991V5.65991C113.31 4.05991 114.85 1.65991 116.72 1.65991C119.77 1.67991 119.07 5.25991 119.07 5.25991H119.1Z" fill="#252B33"/>
<path d="M131.24 13.6801C131.235 14.359 131.039 15.0228 130.675 15.5957C130.311 16.1687 129.793 16.6276 129.18 16.9201L129.08 16.7301C129.229 16.6434 129.351 16.5171 129.432 16.3653C129.513 16.2134 129.551 16.042 129.54 15.8701C129.54 14.7401 126.44 13.5401 123.97 12.4301C123.324 12.1636 122.771 11.7118 122.382 11.1317C121.992 10.5515 121.783 9.86902 121.78 9.17014C121.78 8.667 121.898 8.17083 122.124 7.72116C122.349 7.27149 122.677 6.88077 123.08 6.58014L123.3 6.79014C122.79 8.16014 123.9 8.71014 124.67 9.05014L129.1 11.0501C130.43 11.6701 131.24 12.2901 131.24 13.6801ZM126.34 17.1101V17.3301C125.05 17.3301 123.94 16.5901 123.13 16.5901C122.58 16.5901 122.46 17.3301 122.46 17.3301H122.26V13.1101H122.46C122.46 13.1101 123.73 17.1101 126.34 17.1101ZM126.54 5.86014H126.44V5.64014C127.88 5.64014 130.55 6.64014 130.55 8.28014C130.552 8.43641 130.522 8.59142 130.464 8.7363C130.405 8.88118 130.318 9.0131 130.209 9.12454C130.099 9.23597 129.969 9.32472 129.825 9.38574C129.681 9.44675 129.527 9.47883 129.37 9.48014C128.995 9.48057 128.634 9.33639 128.362 9.07755C128.09 8.81871 127.928 8.46509 127.91 8.09014C127.9 7.96368 127.9 7.83659 127.91 7.71014C127.964 7.49661 127.969 7.2739 127.926 7.058C127.883 6.8421 127.793 6.63839 127.662 6.46149C127.531 6.2846 127.363 6.13893 127.169 6.03495C126.975 5.93098 126.76 5.87127 126.54 5.86014Z" fill="#252B33"/>
<path d="M138.18 5.64H140.94V6.74L138.18 6.05V14.42C138.18 15.42 138.73 16.08 139.59 16.08C140.041 16.0377 140.461 15.8313 140.77 15.5L140.94 15.58C140.669 16.0843 140.273 16.5103 139.789 16.8169C139.306 17.1234 138.752 17.3001 138.18 17.33C137.721 17.3599 137.26 17.2894 136.831 17.1233C136.401 16.9573 136.013 16.6997 135.694 16.3686C135.374 16.0374 135.13 15.6405 134.979 15.2056C134.828 14.7706 134.774 14.3081 134.82 13.85V3.94C134.82 2.45 134.17 1.49 132.94 1.61V1.39L138.18 0V5.64Z" fill="#252B33"/>
<path d="M149.24 5.65991V5.99991C147.78 6.50991 147.24 8.58991 147.24 11.5499C147.24 14.5099 147.82 16.5499 149.24 17.0699V17.3599C146.12 17.0699 143.6 14.8799 143.6 11.5499C143.586 10.0265 144.168 8.55787 145.222 7.45748C146.275 6.35709 147.717 5.71202 149.24 5.65991ZM156.24 11.4999C156.236 13.0053 155.65 14.4507 154.604 15.5337C153.558 16.6166 152.134 17.2531 150.63 17.3099V16.9999C152.07 16.4899 152.63 14.3999 152.63 11.4799C152.63 8.55991 152.06 6.47991 150.63 5.92991V5.65991C152.144 5.71179 153.578 6.3499 154.631 7.43954C155.683 8.52918 156.271 9.98509 156.27 11.4999H156.24Z" fill="#252B33"/>
<path d="M165.41 17.1099V17.3299H158.31V17.1099C159.53 17.1099 160.18 16.5099 160.18 14.9999V9.57986C160.18 8.08986 159.53 7.12986 158.31 7.24986V6.99986L163.54 5.60986V14.9999C163.54 16.5099 164.16 17.1099 165.41 17.1099ZM173.11 23.9299V24.1199H171.27C170.828 24.1225 170.39 24.0374 169.981 23.8695C169.572 23.7016 169.201 23.4542 168.888 23.1417C168.576 22.8291 168.328 22.4577 168.16 22.0488C167.993 21.64 167.907 21.2018 167.91 20.7599V8.89986C167.91 5.80986 167.07 5.68986 165.79 5.99986V5.77986C166.096 5.69276 166.412 5.6457 166.73 5.63986C169.59 5.63986 171.27 6.63986 171.27 10.2199V21.8199C171.27 23.3099 171.89 23.9299 173.11 23.9299Z" fill="#252B33"/>
</svg>
