<svg width="157" height="41" viewBox="0 0 157 41" fill="none" xmlns="http://www.w3.org/2000/svg">
<path d="M13.8092 16.8859V3.69551L8.86588 10.9386H7.1695L2.24563 3.69551V16.8859H0V0.0493164H2.47409L8.01526 8.17935L13.5613 0.0493164H16.0402V16.8859H13.8092Z" fill="#252B33"/>
<path d="M19.8022 16.8859V0.0493164H28.8966V2.33065H21.975V7.44518H26.6218V9.51957H21.975V14.6095H28.8966V16.8859H19.8022Z" fill="#252B33"/>
<path d="M38.6083 2.20254V16.8859H36.4113V2.20254H32.3915V0.0493164H42.6329V2.20254H38.6083Z" fill="#252B33"/>
<path d="M55.0424 16.8859L52.996 10.9731H47.8L45.7536 16.8859H43.3816L49.1512 0.0739746H51.6448L57.4144 16.8859H55.0424ZM50.4004 3.34077L48.4999 8.8347H52.2718L50.4004 3.34077Z" fill="#252B33"/>
<path d="M68.2295 0.684975C68.9129 1.08633 69.4718 1.67345 69.8433 2.37996C70.2242 3.12177 70.4164 3.94829 70.4022 4.78448C70.4056 5.42338 70.2833 6.05655 70.0425 6.647C69.8085 7.21845 69.4798 7.74507 69.0704 8.20402C69.6807 8.65668 70.1755 9.25053 70.5137 9.93616C70.8518 10.6218 71.0236 11.3794 71.0147 12.1459C71.021 12.9813 70.8061 13.8031 70.3925 14.5257C69.9783 15.243 69.3891 15.8402 68.6816 16.2601C67.9813 16.69 67.1767 16.9136 66.3582 16.9056H60.9142V0.0247182H65.7749C66.6363 0.0204086 67.4835 0.248272 68.2295 0.684975ZM63.1112 2.30605V7.31711H65.7846C66.1061 7.32322 66.4252 7.26105 66.7216 7.13461C67.0179 7.00817 67.2849 6.82025 67.5053 6.58294C67.7355 6.34651 67.9163 6.06529 68.0365 5.75622C68.1568 5.44715 68.2142 5.11661 68.2052 4.78448C68.2145 4.45729 68.1586 4.13156 68.0408 3.82678C67.9231 3.522 67.7459 3.24442 67.5199 3.01066C67.2936 2.77901 67.0229 2.59694 66.7244 2.47573C66.4259 2.35453 66.106 2.29678 65.7846 2.30605H63.1112ZM63.1112 9.59352V14.6095H66.3582C66.6788 14.6163 66.9974 14.5554 67.2936 14.4307C67.5898 14.306 67.8572 14.1202 68.0788 13.8852C68.3071 13.6554 68.4868 13.381 68.6071 13.0786C68.7275 12.7762 68.7859 12.4521 68.7788 12.1261C68.7835 11.7975 68.7241 11.4712 68.604 11.1659C68.4839 10.8607 68.3054 10.5825 68.0788 10.3474C67.8584 10.1101 67.5915 9.92217 67.2951 9.79573C66.9988 9.66929 66.6796 9.60712 66.3582 9.61323L63.1112 9.59352Z" fill="#252B33"/>
<path d="M79.3313 16.3684C78.3328 15.942 77.4287 15.3171 76.6725 14.5305C75.1127 12.9356 74.239 10.7798 74.2422 8.53398C74.2302 7.41781 74.4384 6.31048 74.8546 5.27704C75.7122 3.23528 77.3142 1.60787 79.3265 0.734078C80.3398 0.293297 81.4318 0.0685531 82.5345 0.073821C83.6418 0.0694602 84.7384 0.294126 85.7571 0.734078C87.774 1.59594 89.3788 3.22268 90.229 5.26719C90.6557 6.30371 90.8754 7.41574 90.8754 8.53891C90.8754 9.66208 90.6557 10.7741 90.229 11.8106C89.383 13.8603 87.7773 15.4916 85.7571 16.3536C84.7384 16.7844 83.6456 17.0063 82.5418 17.0063C81.438 17.0063 80.3451 16.7844 79.3265 16.3536L79.3313 16.3684ZM80.2014 2.84789C79.4718 3.15462 78.8106 3.60706 78.2571 4.17826C77.6921 4.7494 77.2444 5.42843 76.9399 6.17607C76.6353 6.92371 76.48 7.72513 76.483 8.53398C76.4842 9.36361 76.6495 10.1846 76.969 10.9484C77.3543 11.8795 77.9598 12.7003 78.7319 13.3382C79.504 13.9762 80.4191 14.4117 81.3965 14.6065C82.3739 14.8012 83.3836 14.7492 84.3365 14.455C85.2894 14.1607 86.1562 13.6333 86.8605 12.9193C87.416 12.3546 87.857 11.685 88.1583 10.9484C88.6317 9.81719 88.7611 8.56848 88.5299 7.36229C88.2987 6.1561 87.7174 5.04738 86.8605 4.17826C86.3062 3.60809 85.6452 3.1558 84.9162 2.84789C83.42 2.22395 81.7413 2.22395 80.2451 2.84789H80.2014Z" fill="#252B33"/>
<path d="M94.3799 16.8859V0.0493164H96.5283V14.6095H101.52V16.8859H94.3799Z" fill="#252B33"/>
<path d="M105.02 16.8859V0.0493164H107.115V16.8859H105.02Z" fill="#252B33"/>
<path d="M119.203 3.62156C118.929 3.19547 118.544 2.85446 118.09 2.6361C117.558 2.40693 116.982 2.29927 116.404 2.32075C115.271 2.32075 114.484 2.56219 114.032 3.05492C113.806 3.30779 113.633 3.60362 113.522 3.92511C113.411 4.2466 113.365 4.58731 113.385 4.92729C113.369 5.32167 113.437 5.71491 113.584 6.08028C113.714 6.37188 113.921 6.62105 114.182 6.79966C114.786 7.16235 115.469 7.36566 116.17 7.39094C116.968 7.45231 117.758 7.58421 118.533 7.78512C119.124 7.94308 119.69 8.18528 120.214 8.50451C121.43 9.28302 122.042 10.4754 122.042 12.1507C122.044 12.7788 121.915 13.4002 121.663 13.9738C121.414 14.5502 121.059 15.0735 120.618 15.516C120.082 16.0419 119.438 16.4408 118.732 16.6838C118.004 16.9365 117.241 17.0647 116.472 17.0632C114.921 17.1417 113.403 16.5963 112.248 15.5456C111.312 14.5533 110.74 13.2668 110.624 11.8994L110.678 11.8748H112.875C112.937 12.6131 113.241 13.3089 113.74 13.8506C114.466 14.498 115.413 14.8322 116.379 14.7819C117.27 14.8296 118.15 14.5709 118.878 14.0477C119.17 13.8287 119.407 13.5416 119.568 13.2107C119.729 12.8798 119.809 12.5146 119.801 12.1458C119.808 11.833 119.762 11.5213 119.665 11.2244C119.563 10.9475 119.386 10.7051 119.155 10.5247C118.586 10.0862 117.531 9.81024 115.981 9.69198C114.43 9.57373 113.2 9.09085 112.384 8.29756C111.959 7.85346 111.631 7.32419 111.42 6.74376C111.209 6.16334 111.12 5.54459 111.159 4.92729C111.131 4.28009 111.235 3.634 111.463 3.02891C111.691 2.42382 112.039 1.87257 112.486 1.40921C113.419 0.469735 114.717 0 116.379 0C118.115 0 119.461 0.532148 120.428 1.59644C121.313 2.61402 121.855 3.89142 121.974 5.24264H119.728C119.675 4.66934 119.496 4.11543 119.203 3.62156Z" fill="#252B33"/>
<path d="M139.331 16.8859V3.69551L134.388 10.9386H132.696L127.768 3.69551V16.8859H125.522V0.0493164H127.991L133.537 8.17935L139.083 0.0493164H141.582V16.8859H139.331Z" fill="#252B33"/>
<path d="M49.9338 40.8966V27.6865L44.9905 34.9247H43.2941L38.3994 27.6865V40.8966H36.1246V24.0403H38.5987L44.1399 32.1654L49.6859 24.0403H52.1843V40.8966H49.9338Z" fill="#252B33"/>
<path d="M67.3448 40.8966L65.2936 34.9838H60.1024L58.0512 40.8966H55.6792L61.4488 24.0896H63.9472L69.7168 40.8966H67.3448ZM62.7029 27.3318L60.8072 32.8257H64.5742L62.7029 27.3318Z" fill="#252B33"/>
<path d="M80.7796 40.8966L75.4086 34.6734V40.8966H73.2115V24.0649H75.4086V30.4704L80.6776 24.0649H83.594L76.5606 32.5941L83.7495 40.8966H80.7796Z" fill="#252B33"/>
<path d="M87.2493 40.8966V24.0403H96.3387V26.3167H89.4366V31.4312H94.0785V33.5056H89.4366V38.5955H96.3387V40.8966H87.2493Z" fill="#252B33"/>
<path d="M103.946 40.3545C102.945 39.9318 102.039 39.3083 101.282 38.5215C100.515 37.7396 99.9038 36.8143 99.4837 35.7967C99.0516 34.7601 98.8317 33.6454 98.8372 32.5201C98.8295 31.4035 99.0461 30.297 99.474 29.2681C99.8941 28.2481 100.509 27.3222 101.282 26.5433C102.047 25.769 102.951 25.1501 103.946 24.7202C104.959 24.281 106.051 24.0579 107.154 24.0649C108.261 24.0588 109.357 24.2818 110.376 24.7202C112.391 25.5844 113.993 27.2106 114.843 29.2533C115.273 30.289 115.495 31.4013 115.495 32.525C115.495 33.6487 115.273 34.761 114.843 35.7967C114.425 36.8152 113.814 37.7409 113.045 38.5215C112.279 39.297 111.373 39.916 110.376 40.3446C109.357 40.7739 108.265 40.9948 107.161 40.9948C106.058 40.9948 104.965 40.7739 103.946 40.3446V40.3545ZM104.816 26.834C103.711 27.303 102.769 28.0936 102.108 29.1058C101.447 30.118 101.097 31.3062 101.102 32.5201C101.104 33.3513 101.269 34.1738 101.588 34.9394C102.045 36.0615 102.82 37.0209 103.815 37.696C104.81 38.3711 105.981 38.7315 107.178 38.7315C108.376 38.7315 109.546 38.3711 110.541 37.696C111.536 37.0209 112.311 36.0615 112.768 34.9394C113.087 34.1739 113.253 33.3513 113.254 32.5201C113.256 31.7117 113.101 30.9108 112.798 30.1634C112.494 29.4159 112.048 28.7366 111.485 28.1644C110.928 27.5977 110.267 27.1459 109.54 26.834C108.044 26.2101 106.366 26.2101 104.869 26.834H104.816Z" fill="#252B33"/>
<path d="M125.133 40.8473H122.611L116.87 24.0107H119.242L123.884 37.5559L128.531 24.0107H130.879L125.133 40.8473Z" fill="#252B33"/>
<path d="M134.252 40.8966V24.0403H143.341V26.3167H136.425V31.4312H141.067V33.5056H136.425V38.5955H143.341V40.8966H134.252Z" fill="#252B33"/>
<path d="M157 40.8964H154.054L149.286 35.1512V40.8964H147.089V24.0648H151.357C152.055 24.0602 152.747 24.1988 153.391 24.4723C154.035 24.7458 154.618 25.1485 155.104 25.6563C155.584 26.1778 155.964 26.7841 156.227 27.4449C156.495 28.1164 156.63 28.8345 156.626 29.5587C156.63 30.2416 156.512 30.9196 156.276 31.5592C156.047 32.1732 155.71 32.7394 155.279 33.2296C154.844 33.718 154.328 34.125 153.753 34.4318C153.186 34.7333 152.567 34.9207 151.93 34.9837L157 40.8964ZM149.286 26.3412V32.7713H151.357C151.77 32.7723 152.179 32.6867 152.557 32.52C152.934 32.3604 153.275 32.1254 153.56 31.8291C153.844 31.5327 154.067 31.1812 154.215 30.7955C154.376 30.4038 154.457 29.9831 154.453 29.5587C154.459 28.7084 154.136 27.8894 153.554 27.2774C153.267 26.9917 152.929 26.7642 152.557 26.6073C152.18 26.4366 151.77 26.3492 151.357 26.3511L149.286 26.3412Z" fill="#252B33"/>
</svg>
