<svg width="112" height="53" viewBox="0 0 112 53" fill="none" xmlns="http://www.w3.org/2000/svg">
<path d="M0.70459 8.70664C1.96411 8.02873 3.1114 7.36709 4.32976 6.84677C4.77496 6.65666 5.3274 7.18823 5.25258 7.74356C5.17651 8.27013 5.02936 8.78544 4.91089 9.31701C5.23263 9.42582 5.34362 9.1369 5.50698 8.98431C6.54827 8.00747 7.66064 7.15946 9.08976 6.82426C9.99982 6.60734 10.9518 6.64497 11.842 6.93307C13.1614 7.35082 13.8647 8.43398 13.942 9.99867C14.0667 12.5364 14.0667 15.0742 14.0667 17.6132C14.0667 19.0241 14.3511 19.4206 15.6779 19.8871C15.85 19.9471 16.0134 20.0347 15.9997 20.2148C15.9834 20.4262 15.7727 20.3399 15.6467 20.3399C13.8809 20.3449 12.1155 20.3449 10.3505 20.3399C10.2757 20.3399 10.1797 20.3574 10.1373 20.2348C10.1709 19.9534 10.4316 20.0159 10.6074 19.9534C11.3943 19.6707 11.9979 19.1342 12.0303 18.2999C12.1263 15.8672 12.2236 13.422 11.9867 11.0005C11.7796 8.88675 10.5588 8.09877 8.46249 8.48526C6.92113 8.77168 5.56809 9.37954 5.15531 11.1043C5.02779 11.7121 4.98124 12.3341 5.01689 12.9542C5.05929 14.33 5.0967 15.7058 4.99444 17.0717C4.9402 17.5683 4.95911 18.0702 5.05056 18.5613C5.19522 19.2192 5.54938 19.637 6.21905 19.7808C6.40001 19.8211 6.57401 19.8881 6.73532 19.9797C6.77612 20.0079 6.80992 20.0451 6.83413 20.0885C6.85834 20.1318 6.87232 20.1802 6.87499 20.2298C6.87499 20.3611 6.72909 20.3474 6.62558 20.3474C4.87971 20.3474 3.13384 20.3474 1.38797 20.3474C1.27075 20.3474 1.1211 20.3687 1.0999 20.1935C1.07995 20.0372 1.20715 19.9909 1.32188 19.9359C2.83705 19.2004 3.08521 18.6739 2.93556 16.8966C2.80463 15.1331 2.80088 13.3624 2.92434 11.5984C2.95572 11.1209 2.93018 10.6414 2.84827 10.17C2.71109 9.40706 2.22474 9.03058 1.52016 8.86673C1.28946 8.8092 1.04628 8.77168 0.70459 8.70664Z" fill="#252B33"/>
<path d="M103.149 20.3474C101.221 20.3474 99.3725 20.3474 97.5256 20.3474C97.3922 20.3474 97.1852 20.4237 97.144 20.2461C97.0879 20.0072 97.3323 20.0247 97.4757 19.9772C98.502 19.6332 98.9585 18.8752 98.9585 17.8371C98.9585 15.7108 98.7801 13.5846 98.9585 11.472C99.0832 9.94237 98.5769 9.09561 97.2126 8.64534C97.1802 8.63409 97.1615 8.58281 97.0879 8.4915C98.2314 7.92241 99.3538 7.34581 100.495 6.80924C100.838 6.64789 101.324 7.29203 101.275 7.82735C101.247 8.05401 101.203 8.27843 101.143 8.49901C101.092 8.71664 101.027 8.93176 100.936 9.26572C101.618 8.75791 102.183 8.28513 102.799 7.88989C104.135 7.03188 105.564 6.43402 107.198 6.72044C108.831 7.00686 109.817 8.1588 109.941 9.8123C110.127 12.1399 110.066 14.4713 110.066 16.8015C110.066 17.3618 110.052 17.9197 110.157 18.48C110.302 19.2542 110.747 19.697 111.493 19.8496C111.725 19.8959 112.03 19.9146 111.991 20.1873C111.955 20.4975 111.617 20.3411 111.431 20.3436C109.81 20.3574 108.189 20.3536 106.568 20.3436C106.42 20.3436 106.194 20.4399 106.141 20.2185C106.099 20.0272 106.289 19.9246 106.451 19.8846C107.872 19.5406 108.144 18.5513 108.091 17.2343C108.011 15.2593 108.077 13.2781 108.051 11.3007C108.039 10.4477 107.811 9.64094 107.158 9.04183C106.31 8.26512 105.261 8.34767 104.261 8.54153C102.016 8.96554 101.061 10.2038 101.037 12.5064C101.019 14.2937 101.065 16.0811 100.996 17.8721C100.949 19.1366 101.31 19.5607 102.394 19.8308C102.691 19.8984 102.949 19.9909 103.149 20.3474Z" fill="#252B33"/>
<path d="M111.415 46.114C111.202 46.4517 110.916 46.4592 110.616 46.4592C109.016 46.4592 107.416 46.4592 105.816 46.4592C105.649 46.4592 105.388 46.5617 105.346 46.2991C105.303 46.0364 105.565 46.0489 105.735 46.0002C106.704 45.69 107.187 45.0959 107.195 44.0715C107.212 41.8852 107.237 39.6939 107.174 37.5101C107.11 35.3263 105.792 34.3182 103.653 34.7196C103.102 34.8206 102.567 34.9969 102.063 35.2437C100.977 35.779 100.461 36.6758 100.31 37.8615C100.194 38.7796 100.335 39.6876 100.31 40.5994C100.273 41.7251 100.23 42.8508 100.236 43.9677C100.244 45.2122 100.705 45.7475 101.843 45.9814C101.987 46.0114 102.293 45.8563 102.263 46.1628C102.237 46.4254 101.957 46.3866 101.752 46.3866H96.6972C96.4915 46.3866 96.2757 46.4067 96.1436 46.1365C96.3531 45.9339 96.6424 46.0177 96.8856 45.9426C97.7448 45.67 98.2037 45.1634 98.2099 44.2729C98.2286 41.7714 98.2311 39.2699 98.2024 36.7684C98.19 35.7578 97.6126 35.1749 96.6075 34.9948C96.4653 34.9698 96.2333 35.0811 96.2034 34.8485C96.1822 34.6746 96.3381 34.5533 96.5139 34.5083C97.5914 34.2319 98.5566 33.7103 99.5193 33.1712C99.7525 33.0461 100.069 32.8435 100.327 33.0974C100.557 33.3226 100.584 33.6402 100.536 33.9729C100.466 34.452 100.264 34.921 100.366 35.4526C101.589 34.5558 102.825 33.7653 104.188 33.2012C105.741 32.5634 107.189 32.826 108.149 33.8816C108.731 34.5245 108.996 35.3125 109.056 36.1593C109.22 38.4869 109.205 40.8208 109.17 43.1509C109.137 45.3548 109.26 45.5611 111.415 46.114Z" fill="#252B33"/>
<path d="M17.041 7.22686C17.2684 7.08511 17.5315 7.01135 17.7992 7.01423C18.6722 6.97171 19.5451 6.94544 20.4081 6.8729C20.8819 6.83287 21.054 6.94419 21.049 7.46825C21.0266 10.2374 21.0403 13.0066 21.0565 15.7758C21.0608 16.1913 21.1071 16.6054 21.1949 17.0115C21.4443 18.1534 22.2163 18.7863 23.3823 18.8764C24.4822 18.9614 25.5197 18.7275 26.551 18.3761C27.6148 18.0083 28.2632 17.3817 28.3156 16.1735C28.4141 13.9221 28.3779 11.6833 28.338 9.43819C28.3218 8.51013 27.8392 7.93729 27.1209 7.47576C26.9341 7.3585 26.7904 7.18328 26.7119 6.97671C27.7794 6.97671 28.8456 6.97671 29.9131 6.97671C30.1213 6.97671 30.1787 7.15432 30.2385 7.30816C30.3514 7.6214 30.4034 7.95339 30.3919 8.28625C30.3919 11.3268 30.3994 14.3662 30.3845 17.4067C30.3845 18.7826 30.8097 19.7194 32.2451 19.8832C32.361 19.897 32.5207 19.9107 32.4521 20.0984C32.4263 20.1782 32.3746 20.2472 32.3052 20.2941C32.2358 20.341 32.1527 20.3633 32.0692 20.3573C31.4881 20.3573 30.9057 20.3785 30.3233 20.3573C29.741 20.336 29.0189 20.6199 28.6523 20.2322C28.3181 19.8782 28.5812 19.159 28.55 18.6062C28.5426 18.4811 28.5363 18.3561 28.5251 18.1584C27.5769 18.8422 26.5808 19.4567 25.5447 19.997C24.547 20.5361 23.5157 20.9301 22.3422 20.76C20.5328 20.4986 19.3044 19.1465 19.161 17.3117C18.9889 15.2117 19.0263 13.1054 19.0787 11.0104C19.1211 9.34438 19.0176 7.85224 17.041 7.22686Z" fill="#252B33"/>
<path d="M94.7171 33.2724C93.1395 34.0779 92.7717 35.6163 92.1993 37.0672C91.2303 39.5224 90.1516 41.9338 89.1103 44.359C88.3322 46.1751 87.6376 48.0287 86.7147 49.7785C86.1523 50.8442 85.3792 51.6809 84.1321 51.9323C82.8165 52.195 82.072 51.4921 82.2416 50.1638C82.2877 49.8011 82.5271 49.7886 82.7653 49.771C83.3863 49.7321 84.0022 49.6341 84.6047 49.4784C86.1012 49.0706 86.9342 48.0375 87.2348 46.5454C87.3124 46.1322 87.2597 45.7051 87.0839 45.3234C85.7537 42.2299 84.4235 39.1355 83.0933 36.0403C82.7516 35.2423 82.3014 34.5394 81.6043 34.0041C81.3661 33.8215 81.1641 33.5938 80.8262 33.2749H86.085C86.2097 33.2749 86.3406 33.2937 86.3656 33.4538C86.3759 33.5158 86.3625 33.5796 86.3281 33.6322C86.2936 33.6848 86.2407 33.7225 86.1798 33.7377C86.0837 33.7764 85.989 33.819 85.8954 33.8627C84.7506 34.4143 84.6708 34.5657 85.1472 35.7239C86.1997 38.2992 87.2759 40.8645 88.4032 43.5798C88.6863 42.992 88.9295 42.5304 89.1353 42.0514C90.0697 39.8734 90.9975 37.6925 91.9187 35.5087C92.3452 34.4944 92.2529 34.328 91.2316 33.9528C90.9597 33.8527 90.4746 33.8465 90.5345 33.4713C90.5968 33.0685 91.0532 33.2887 91.3238 33.2811C92.4537 33.2574 93.586 33.2724 94.7171 33.2724Z" fill="#252B33"/>
<path d="M16.1035 33.3677C17.8357 33.3677 19.5304 33.3677 21.2239 33.3677C21.3212 33.3677 21.4484 33.3464 21.4733 33.4815C21.4983 33.6166 21.4147 33.6754 21.3187 33.7216C21.1142 33.8229 20.9022 33.9118 20.6952 34.0131C19.9569 34.3795 19.8309 34.6259 20.1228 35.3989C20.528 36.4683 20.9658 37.5252 21.4209 38.5746C22.128 40.193 22.6967 41.8728 23.6033 43.5363C24.0485 42.4982 24.4563 41.5614 24.859 40.622C25.5798 38.9373 26.3069 37.2588 27.0177 35.5715C27.4916 34.4458 27.418 34.297 26.2695 33.9155C25.9976 33.8255 25.7021 33.7754 25.626 33.3827H29.9532C28.6127 33.9468 28.1301 34.9736 27.7086 36.0881C26.4615 39.3963 24.9588 42.592 23.5933 45.8589C23.0271 47.201 22.4909 48.5543 21.8025 49.8401C21.2364 50.8982 20.4308 51.6637 19.2324 51.9364C18.0339 52.209 17.3368 51.6124 17.2982 50.4117C17.2832 49.9239 17.5089 49.7863 17.9043 49.765C18.5044 49.7247 19.1001 49.634 19.685 49.4936C20.7575 49.251 21.4534 48.6006 21.916 47.5987C22.3787 46.5969 22.4148 45.7376 21.9459 44.702C20.5318 41.6001 19.2286 38.4482 17.8843 35.3138C17.6262 34.7135 17.1248 34.337 16.6497 33.938C16.4677 33.7792 16.2257 33.6841 16.1035 33.3677Z" fill="#252B33"/>
<path d="M38.1048 3.98877C38.1559 4.9531 38.2121 5.79736 38.2383 6.64287C38.2482 6.98932 38.3206 7.11065 38.7109 7.04811C39.529 6.92303 40.3582 6.85549 41.1825 6.77044C41.4419 6.74293 41.7387 6.64537 41.8185 7.05061C41.8934 7.42584 41.8647 7.78605 41.4669 7.94615C41.2096 8.02674 40.942 8.06889 40.6725 8.07122C40.2173 8.10624 39.7559 8.08123 39.3007 8.14877C38.5687 8.26009 38.257 8.57277 38.2507 9.30947C38.2258 11.8923 38.2008 14.4763 38.2507 17.0579C38.2782 18.3224 39.0576 18.859 40.3133 18.6613C40.7224 18.5976 41.1489 18.585 41.5367 18.4537C42.0293 18.2861 42.2612 18.4937 42.4845 18.9265C41.3334 19.1767 40.4006 19.8133 39.3905 20.2811C37.6309 21.0941 36.3103 20.2811 36.2355 18.3461C36.1258 15.5382 36.2442 12.7303 36.248 9.92234C36.248 8.4477 36.2293 8.3664 34.8338 7.96116C34.128 7.75728 34.1242 7.75228 34.6405 7.26074C35.7654 6.20385 36.884 5.14697 38.1048 3.98877Z" fill="#252B33"/>
<path d="M66.8593 4.08618C67.0888 4.78785 67.0227 5.42949 67.0501 6.05987C67.0938 7.03796 67.0875 7.05046 68.0129 6.98543C68.6738 6.93915 69.3322 6.86035 69.9907 6.78655C70.275 6.75654 70.598 6.64397 70.6554 7.09674C70.7028 7.47197 70.6953 7.82468 70.2551 7.96226C69.7562 8.11861 69.2275 8.08734 68.71 8.09484C67.3781 8.12986 67.0551 8.4388 67.0489 9.7721C67.0377 12.0622 67.0327 14.3524 67.0489 16.6425C67.0601 18.2872 67.7585 18.8788 69.3547 18.6437C69.7837 18.5786 70.2102 18.4911 70.6354 18.4048C70.7975 18.3723 70.9247 18.391 70.9971 18.5549C71.0694 18.7187 70.9696 18.82 70.8287 18.8951C69.6839 19.5205 68.609 20.2897 67.2933 20.5473C66.3318 20.7362 65.626 20.3384 65.298 19.4054C65.1205 18.8723 65.0361 18.3125 65.0486 17.7506C65.0561 14.9815 65.0561 12.2123 65.0486 9.44315C65.0486 8.27995 64.7855 8.01729 63.6307 7.99728C63.4287 7.99728 63.1755 8.04606 63.087 7.80592C63.0072 7.58829 63.2416 7.48948 63.3701 7.36816C64.5149 6.285 65.6634 5.20936 66.8593 4.08618Z" fill="#252B33"/>
<path d="M43.9395 8.5777C45.0992 7.93482 46.133 7.3207 47.2429 6.85042C47.5073 6.73785 47.7903 6.55524 48.0585 6.78413C48.3266 7.01301 48.253 7.36447 48.1832 7.65965C47.9762 8.48515 47.7392 9.30314 47.5197 10.1261C47.4748 10.2987 47.3626 10.5176 47.5995 10.6189C47.8153 10.7115 47.8552 10.4626 47.9512 10.3475C48.7643 9.37569 49.4477 8.30254 50.3406 7.39199C51.196 6.51646 52.2111 6.31884 53.3709 6.59526C53.7064 6.67531 53.8697 6.81789 53.8398 7.18687C53.8049 7.70343 53.9994 8.35382 53.7537 8.70778C53.4869 9.09051 52.8372 8.71779 52.3595 8.68527C49.4639 8.49515 48.1358 10.5902 48.0984 12.7302C48.0659 14.5826 48.0797 16.4362 48.0809 18.2885C48.0809 19.1353 48.3952 19.5218 49.2332 19.7394C49.4739 19.802 49.7195 19.8482 49.9577 19.9158C50.0724 19.9483 50.2071 19.9883 50.1909 20.1559C50.1747 20.3235 50.0276 20.3198 49.9066 20.321C49.4489 20.321 48.9925 20.321 48.5348 20.321C47.1631 20.321 45.7913 20.321 44.4196 20.321C44.2799 20.321 44.0455 20.4248 44.0255 20.1697C44.0143 19.9958 44.1739 19.8858 44.3522 19.8445C44.3927 19.8343 44.4323 19.821 44.4707 19.8045C46.0545 19.2254 46.0794 19.1891 46.0794 17.4756C46.0794 15.4556 46.0794 13.4356 46.0794 11.4157C46.0712 10.9796 46.0337 10.5446 45.9672 10.1136C45.8849 9.52077 45.416 9.26562 44.9458 9.03048C44.6515 8.88664 44.351 8.76156 43.9395 8.5777Z" fill="#252B33"/>
<path d="M37.8774 34.5919C39.2741 34.2454 40.4102 33.6976 41.5463 33.156C41.9378 32.9696 42.0451 33.1085 42.0813 33.485C42.1648 34.2492 41.9441 34.9683 41.7982 35.6988C41.718 36.0088 41.704 36.3323 41.757 36.6481C42.4229 35.7801 42.9966 34.9733 43.6276 34.2191C44.5916 33.0747 45.7975 32.5206 47.3251 32.8321C47.6331 32.8946 47.7466 33.0122 47.7341 33.3211C47.7154 33.7776 47.7167 34.2367 47.7341 34.6969C47.7454 34.9846 47.6369 35.0309 47.3675 35.0121C46.6704 34.9621 45.987 34.807 45.2675 34.9496C43.6825 35.2635 42.4579 36.4267 42.2421 38.0152C41.9441 40.2102 42.1174 42.4203 42.1261 44.6229C42.1261 45.3071 42.5526 45.6348 43.3944 45.8736C43.6737 45.9512 44.2087 45.9024 44.1651 46.1926C44.109 46.5678 43.6114 46.3577 43.3146 46.3614C41.5774 46.3827 39.8391 46.3714 38.0633 46.2739C38.37 46.0888 38.6706 45.8987 38.9836 45.7186C39.7879 45.272 40.1446 44.6041 40.1334 43.6723C40.1047 41.5911 40.0972 39.5086 40.1334 37.4273C40.1521 36.4267 39.8179 35.6963 38.9225 35.231C38.6144 35.0647 38.3276 34.8683 37.8774 34.5919Z" fill="#252B33"/>
<path d="M61.7315 20.3461H55.9951C55.8941 20.3461 55.7644 20.3461 55.7656 20.2085C55.7656 20.0959 55.8679 20.0359 55.9751 20.0109C57.413 19.6769 57.7622 18.6476 57.7385 17.3268C57.7048 15.3694 57.6574 13.4094 57.7385 11.4545C57.7896 10.1637 57.3718 9.2757 56.1722 8.78165C56.0358 8.71106 55.9042 8.63168 55.7781 8.54401C56.8331 7.8586 57.8096 7.16818 58.9282 6.73417C59.4557 6.5303 59.649 6.92804 59.6826 7.35955C59.7238 7.87736 59.7101 8.40018 59.7101 8.92049C59.7101 11.8372 59.7101 14.7527 59.6926 17.6695C59.6851 18.8327 60.0405 19.6769 61.2427 19.8571C61.4734 19.8958 61.633 20.0497 61.7315 20.3461Z" fill="#252B33"/>
<path d="M79.019 20.3598C77.0238 20.3598 75.1445 20.3598 73.2602 20.3598C73.1355 20.3598 72.9397 20.4324 72.9272 20.1985C72.9185 20.0446 73.0419 19.9946 73.1704 19.9671C74.6307 19.6556 74.9537 18.6288 74.9237 17.3017C74.8788 15.283 74.9025 13.263 74.9 11.2431C74.9 9.45826 74.5085 9.01174 72.6753 8.7766C72.9397 8.45766 73.2839 8.32758 73.5807 8.14372C74.2042 7.76849 74.8277 7.38701 75.4512 7.03555C76.1857 6.62781 76.8155 6.99678 76.8729 7.86605C76.9053 8.36635 76.9015 8.86665 76.9015 9.36695C76.9015 12.1774 76.9015 14.9878 76.8841 17.7983C76.8754 18.9627 77.3243 19.7094 78.408 19.8695C78.6449 19.897 78.6374 19.9296 79.019 20.3598Z" fill="#252B33"/>
<path d="M59.7712 1.07559C59.7562 1.53962 58.9494 2.72158 58.665 2.70157C58.2198 2.66155 57.3332 1.58465 57.3394 1.08935C57.3456 0.534015 57.918 -0.0013061 58.4992 0.0036969C59.2424 0.00744916 59.7899 0.47273 59.7712 1.07559Z" fill="#252B33"/>
<path d="M77.0037 1.04689C77.0037 1.4809 76.2131 2.69663 75.9263 2.70539C75.516 2.71664 74.592 1.62599 74.5808 1.11693C74.5683 0.572854 75.1444 0.00251232 75.7031 1.08194e-05C76.4688 -0.00249068 77.005 0.429018 77.0037 1.04689Z" fill="#252B33"/>
<path d="M79.0043 36.5885C77.5876 32.94 74.0236 31.8293 70.7987 34.0394C70.2712 34.4021 69.7749 34.8111 69.2037 35.2451C69.0354 34.6786 69.0403 34.1795 69.0403 33.6817V27.3642C69.0494 27.114 69.0452 26.8635 69.0279 26.6137C68.9605 25.9696 68.6538 25.7895 68.0552 26.0271C67.085 26.4098 66.2095 26.9764 65.293 27.4617C65.1683 27.5255 64.98 27.5618 64.9824 27.7281C64.9824 27.9295 65.1757 27.9783 65.3379 28.0171C66.646 28.2935 67.0762 29.3066 67.0675 30.5411C67.0413 33.8743 67.0476 37.2076 67.0476 40.5408C67.0291 41.2899 67.0687 42.0393 67.166 42.7822C67.2925 43.706 67.696 44.5695 68.3229 45.2582C68.9498 45.9468 69.7706 46.4281 70.6765 46.6382C72.4822 47.0835 74.1956 46.7633 75.7831 45.8765C79.0267 44.0604 80.3723 40.1106 79.0043 36.5885ZM77.4056 40.2469C77.4118 43.2312 75.9615 45.2136 73.4075 45.7965C72.6771 45.9701 71.9146 45.9528 71.1928 45.7465C69.9794 45.395 69.2922 44.542 69.1638 43.2775C68.9892 41.5564 69.0478 39.8292 69.0117 38.1056C68.9705 36.1044 69.9632 35.0275 72.3924 34.7586C74.9239 34.4797 76.8294 36.2032 77.2659 38.8861C77.3457 39.3876 77.433 39.8792 77.4056 40.2469Z" fill="#252B33"/>
<path d="M14.3922 37.9953C14.0405 36.2105 13.2998 34.6271 11.6786 33.6177C9.8966 32.5121 7.51349 32.7297 5.61798 34.1518C5.14535 34.5057 4.68144 34.871 4.06665 35.3438C4.06665 34.517 4.06665 33.8604 4.06665 33.2037C4.06665 31.1012 4.07912 28.9987 4.04794 26.8974C4.03298 25.9056 3.67383 25.703 2.80089 26.1382C1.96412 26.551 1.14731 27.0062 0.325503 27.449C0.190822 27.5216 -0.0336479 27.5516 0.0124929 27.7705C0.0499044 27.9481 0.239455 27.9943 0.39409 28.0556C1.70598 28.5759 2.09506 29.1638 2.09257 30.6097C2.08592 33.4147 2.08176 36.2205 2.0801 39.0272C2.0801 40.0891 2.05641 41.1535 2.1013 42.2116C2.18984 44.2766 3.45684 45.9639 5.35984 46.5592C7.02215 47.0821 8.64955 46.8669 10.2071 46.1678C11.7218 45.4791 12.9598 44.2968 13.7196 42.813C14.4794 41.3293 14.7165 39.6314 14.3922 37.9953ZM11.953 42.8845C11.1549 44.967 8.58595 46.3354 6.41983 45.8276C4.9109 45.4736 4.19385 44.538 4.10406 42.6531C4.0467 41.4312 4.09284 40.2042 4.09284 38.9797H3.99432C3.99432 38.5845 3.94943 38.1842 4.0018 37.7965C4.32728 35.38 7.08575 34.0042 9.45889 35.0373C11.186 35.7878 11.9255 37.2411 12.271 38.9634C12.5446 40.2738 12.4342 41.6357 11.953 42.8845Z" fill="#252B33"/>
<path d="M56.9379 32.661C52.9573 32.7335 49.7935 35.8066 49.7711 39.9466C49.7524 43.6988 52.6393 46.8982 56.6735 46.9295C58.5648 46.9318 60.3814 46.1891 61.7321 44.8613C63.0828 43.5335 63.8596 41.7268 63.8952 39.8303C63.9114 35.9267 60.7277 32.5922 56.9379 32.661ZM56.4042 45.1522C53.7442 44.2391 52.4647 42.1141 51.714 39.5814C51.3536 38.3644 51.613 37.1787 52.1979 36.088C53.0359 34.5233 55.0012 33.7316 56.7384 34.1994C59.6926 34.9936 62.092 38.1605 62.092 41.2649C62.092 44.3692 59.4407 46.1928 56.4042 45.1522Z" fill="#252B33"/>
<path d="M88.0952 6.60161C87.1487 6.59832 86.2108 6.78229 85.3353 7.143C84.4598 7.5037 83.6638 8.03406 82.9929 8.7037C82.322 9.37335 81.7893 10.1691 81.4254 11.0455C81.0616 11.9219 80.8736 12.8616 80.8723 13.8109C80.8424 17.6357 83.9575 20.8352 87.7311 20.8539C91.6094 20.8739 94.9565 17.602 94.974 13.7609C94.9914 9.81604 91.91 6.60786 88.0952 6.60161ZM87.776 19.1729C84.6359 18.2886 82.7878 14.8578 82.6818 12.6828C82.5496 9.95862 84.1583 8.07124 87.0003 7.97743C88.7661 8.07624 90.2327 9.10311 91.4411 10.554C92.4087 11.7108 93.0185 13.1257 93.1957 14.6252C93.5598 17.597 91.0121 20.0772 87.776 19.1667V19.1729Z" fill="#252B33"/>
</svg>
