<svg width="24" height="56" viewBox="0 0 24 56" fill="none" xmlns="http://www.w3.org/2000/svg">
<path d="M6.88751 6.08305C6.36584 6.30031 5.47466 6.62618 4.32264 8.42937V5.97443L0.49707 6.84344V7.21276C1.38825 7.66899 1.58388 7.99487 1.58388 8.73353V13.5565C1.58388 14.6862 1.56214 15.577 0.714432 15.8377V16.207H5.21382V15.8377C4.43132 15.6204 4.32264 14.7731 4.32264 13.5565V9.03768C5.12688 7.73417 6.01806 7.51692 6.01806 7.75589C6.01806 8.14695 6.19195 8.51628 6.51799 8.82043C7.21355 9.40701 8.21342 9.32011 8.80029 8.64663C9.38717 7.99487 9.32196 6.95206 8.64814 6.36548C8.16995 5.97443 7.34397 5.88753 6.88751 6.08305Z" fill="#F5F5F5"/>
<path d="M16.9906 16.0332C15.7516 16.0332 14.404 15.1425 14.404 12.4051V9.64599C14.404 8.1035 15.1865 6.88689 16.6646 6.88689C18.4469 6.88689 19.2512 8.0166 19.2512 11.4926C19.2512 14.8166 18.5773 16.0332 16.9906 16.0332ZM17.7514 5.97443C16.708 5.97443 15.0995 6.51756 14.404 7.82107V0L10.6002 0.803832V1.17316C11.4913 1.49904 11.7087 1.82492 11.7087 2.56357V16.0984C11.7087 16.446 13.0563 15.968 13.8388 15.2945C14.5561 16.0115 15.7082 16.4025 17.0123 16.4025C20.0554 16.4025 22.3594 14.8166 22.3594 11.3188C22.3594 7.88625 20.1858 5.97443 17.7514 5.97443Z" fill="#F5F5F5"/>
<path d="M10.9107 31.1008V26.821C10.9107 24.1922 9.86732 23.5187 8.1719 23.5187C6.80252 23.5187 5.08536 24.5181 4.58543 25.8433V23.5187L0.781594 24.3877V24.7571C1.67278 25.235 1.8684 25.474 1.8684 26.2344V31.1443C1.8684 32.2523 1.84667 33.143 1.02069 33.382V33.7513H5.47661V33.382C4.71584 33.1647 4.58543 32.3392 4.58543 31.1443V26.8644C4.58543 25.9954 5.58529 25.083 6.433 25.083C7.51981 25.083 8.19363 25.8433 8.19363 26.8861V31.1008C8.19363 32.2088 8.15016 33.143 7.32419 33.382V33.7513H11.8018V33.382C11.0193 33.1865 10.9107 32.2957 10.9107 31.1008Z" fill="#F5F5F5"/>
<path d="M19.7369 28.1245L17.5416 26.7558C15.6505 25.5609 16.2591 23.8881 17.672 23.8881C19.9108 23.8881 20.6064 25.8433 20.8889 26.6037H21.2584V24.1705C21.2584 24.1705 20.1716 23.5187 17.672 23.5187C15.4984 23.5187 14.6724 24.605 14.6724 24.605C13.4769 26.1692 14.042 27.929 16.1504 29.2107L18.3458 30.536C19.9977 31.6222 19.7369 33.5775 18.1936 33.5775C15.6505 33.5775 14.9549 31.0574 14.6289 30.2101H14.2594V32.9475C14.2594 32.9475 15.5636 33.9468 18.1936 33.9468C20.4107 33.9468 21.2367 32.7737 21.2367 32.7737C22.3235 31.2095 21.6714 29.3194 19.7369 28.1245Z" fill="#F5F5F5"/>
<path d="M9.56013 53.0019C9.06019 53.7189 7.34304 54.3054 6.25623 54.0665C4.75643 53.7406 3.49573 52.6978 3.49573 50.3515C3.49573 46.6147 5.60414 45.9412 6.38664 45.9412C7.25609 45.9412 7.73429 46.3106 7.53866 46.3975C7.21262 46.5713 6.95178 46.8537 6.86484 47.2665C6.64748 48.0269 7.10394 48.8307 7.88644 49.0262C8.66894 49.2435 9.45145 48.7438 9.66881 47.9834C9.82096 47.462 9.6036 46.8537 9.23409 46.5278C8.86457 46.2019 7.92991 45.5719 6.38664 45.5719C2.66976 45.5719 0.75697 48.2441 0.75697 50.7425C0.75697 53.2844 2.69149 56 5.53893 56C8.25596 56 9.56013 54.3054 9.86443 53.1975L9.56013 53.0019Z" fill="#F5F5F5"/>
<path d="M17.5808 45.5719C14.2769 45.5719 12.4076 47.9182 12.4076 50.786C12.4076 53.632 14.2769 56 17.5808 56C20.9064 56 22.754 53.632 22.754 50.786C22.754 47.9182 20.9064 45.5719 17.5808 45.5719ZM17.5808 55.6307C16.0158 55.6307 15.6028 54.7182 15.6028 50.786C15.6028 46.8537 16.0158 45.9412 17.5808 45.9412C19.1458 45.9412 19.537 46.8537 19.537 50.786C19.537 54.7182 19.1458 55.6307 17.5808 55.6307Z" fill="#F5F5F5"/>
<line y1="39.9569" x2="23.7122" y2="39.9569" stroke="#F5F5F5" stroke-width="0.915208"/>
</svg>
