<svg width="438" height="134" viewBox="0 0 438 134" fill="none" xmlns="http://www.w3.org/2000/svg">
<path d="M32.7001 28.7999V30.4999C43.6 30.4999 37.4001 45.5999 37.4001 45.5999L31.9001 59.1999L22.0001 37.9999C22.0001 37.9999 18.3001 30.4999 23.9001 30.4999V28.7999H0.300049V30.4999C2.10005 30.4999 4.70005 30.4999 7.10005 35.7999C7.10005 35.7999 8.00005 37.4999 25.7001 75.8999H27.3L39.2001 45.9999C45.6001 30.5999 49.9001 30.4999 52.2001 30.4999V28.7999H32.7001Z" fill="#252B33"/>
<path d="M72.2461 13.0999C72.2461 9.29991 69.1461 6.2999 65.3461 6.2999C61.5461 6.2999 58.5461 9.29991 58.5461 13.0999C58.5461 16.8999 61.5461 19.8999 65.3461 19.8999C69.1461 19.8999 72.2461 16.8999 72.2461 13.0999ZM72.5461 62.7999V27.8999L55.0461 31.8999V33.5999C59.1461 35.7999 60.1461 37.1999 60.1461 40.5999V62.7999C60.1461 67.8999 59.9461 72.0999 56.1461 73.2999V74.9999H76.6461V73.2999C73.0461 72.2999 72.5461 68.3999 72.5461 62.7999Z" fill="#252B33"/>
<path d="M111.269 74.1999C106.169 74.1999 100.469 70.8999 99.5688 60.6999V42.3999C100.269 36.3999 103.869 31.5999 109.869 31.5999C117.969 31.5999 121.769 37.0999 121.769 53.1999C121.769 68.3999 118.569 74.1999 111.269 74.1999ZM114.769 27.8999C110.069 27.8999 102.769 30.0999 99.5688 35.9999V27.8999L82.1688 31.8999V33.5999C86.1688 35.0999 87.1688 35.7999 87.1688 39.1999V90.0999C87.1688 95.1999 86.9688 98.6999 83.1688 99.7999V101.5H103.669V99.7999C100.169 98.8999 99.5688 95.6999 99.5688 90.0999V72.7999C102.669 74.7999 106.869 75.8999 111.469 75.8999C125.469 75.8999 136.069 68.3999 136.069 52.2999C136.069 36.5999 126.069 27.8999 114.769 27.8999Z" fill="#252B33"/>
<path d="M228.188 28.7999V30.4999C239.288 30.4999 233.488 45.5999 233.488 45.5999L228.388 58.8999L217.988 36.9999C217.988 36.9999 214.288 30.4999 220.588 30.4999V28.7999H196.888V30.4999C198.588 30.4999 200.988 30.4999 203.288 34.7999C203.288 34.7999 203.688 35.4999 206.688 42.0999L200.288 58.8999L189.888 36.9999C189.888 36.9999 186.488 30.4999 192.388 30.4999V28.7999H168.788V30.4999C170.388 30.4999 172.888 30.4999 175.088 34.7999C175.088 34.7999 176.488 37.4999 194.188 75.8999H195.888L207.688 44.1999L222.288 75.8999H223.888L235.388 45.9999C240.988 30.6999 245.988 30.4999 247.788 30.4999V28.7999H228.188Z" fill="#252B33"/>
<path d="M261.422 49.2999C261.422 39.6999 265.522 29.5999 271.422 29.5999C276.922 29.5999 281.022 36.6999 281.022 49.2999H261.422ZM271.922 27.8999C258.122 27.8999 248.522 37.9999 248.522 52.0999C248.522 63.7999 257.522 75.8999 270.622 75.8999C284.022 75.8999 289.922 67.9999 291.522 62.7999L289.822 61.8999C287.322 66.5999 279.322 68.5999 273.922 67.3999C267.222 65.8999 262.222 60.7999 261.422 50.9999H293.222C293.222 35.3999 286.422 27.8999 271.922 27.8999Z" fill="#252B33"/>
<path d="M313.863 49.2999C313.863 39.6999 317.963 29.5999 323.863 29.5999C329.363 29.5999 333.463 36.6999 333.463 49.2999H313.863ZM324.363 27.8999C310.563 27.8999 300.963 37.9999 300.963 52.0999C300.963 63.7999 309.963 75.8999 323.063 75.8999C336.463 75.8999 342.363 67.9999 343.963 62.7999L342.263 61.8999C339.763 66.5999 331.763 68.5999 326.363 67.3999C319.663 65.8999 314.663 60.7999 313.863 50.9999H345.663C345.663 35.3999 338.863 27.8999 324.363 27.8999Z" fill="#252B33"/>
<path d="M368.305 62.8999V0.399902L350.805 4.0999V5.7999C354.805 7.2999 355.805 8.7999 355.805 12.2999V62.8999C355.805 67.9999 355.605 72.1999 351.805 73.2999V74.9999H372.405V73.2999C368.805 72.3999 368.305 68.3999 368.305 62.8999ZM395.005 68.2999C395.005 68.2999 394.805 68.2999 380.005 47.3999C393.305 30.9999 403.505 30.6999 405.305 30.4999V28.7999H381.005V30.4999C394.005 30.0999 379.705 44.5999 379.705 44.5999L370.305 54.7999C370.305 54.7999 372.905 58.7999 375.905 63.1999C382.605 73.1999 383.505 74.9999 390.405 74.9999H404.505V73.2999C402.805 73.1999 398.305 72.8999 395.005 68.2999Z" fill="#252B33"/>
<path d="M225.12 112.2C225.44 112.2 225.76 112.16 226 112.04L226.36 111.96C226.8 111.8 227.28 111.64 227.72 111.44L229.8 110.48C230.24 110.24 230.72 110.04 231.2 109.8C231.24 109.8 231.32 109.76 231.4 109.72C231.68 109.56 231.96 109.4 232.44 109.4H232.72C232.72 109.4 232.8 109.88 232.8 109.96L232.92 110.52C233.16 111.52 233.92 112.16 234.88 112.16C235.08 112.16 235.32 112.12 235.52 112.08C236 111.92 236.48 111.72 236.92 111.52L239.16 110.44C239.76 110.16 240.28 110 240.8 109.92L241 109.88C241.8 109.76 242.6 109.68 243.44 109.68H243.72C244.36 109.68 245.08 109.64 245.88 109.6C247.28 109.48 248.68 109.36 250.04 109.28L250.2 109.24C250.96 109.2 251.76 109.12 252.56 109.04C252.92 109 253.16 108.88 253.36 108.68C253.52 108.52 253.56 108.36 253.56 108.2C253.52 108 253.44 107.88 253.32 107.76C253.2 107.68 253.12 107.68 252.96 107.68H252.72C252.52 107.72 252.36 107.72 252.16 107.76L251.28 107.88L250.36 107.96C249.08 108.08 247.76 108.2 246.44 108.24C245.84 108.28 245.28 108.32 244.68 108.32C243.36 108.4 242 108.44 240.68 108.56C240.16 108.6 239.76 108.68 239.4 108.84C238.4 109.32 237.4 109.84 236.24 110.4C235.96 110.52 235.68 110.68 235.36 110.76C235.24 110.8 235.12 110.8 235 110.8C234.76 110.8 234.56 110.72 234.4 110.56C234.28 110.44 234.16 110.2 234.2 109.8C234.2 109.68 234.36 108.48 234.36 108.2C234.32 107.72 234 107.48 233.52 107.48H233.48C233.24 107.48 233.08 107.52 232.92 107.6C232.76 107.64 232.64 107.72 232.48 107.76C232.36 107.84 232.2 107.88 232.04 107.96L230.56 108.68C229.64 109.12 228.64 109.6 227.68 110.04C227.16 110.28 226.56 110.52 225.92 110.72L225.84 110.76C225.72 110.8 225.52 110.88 225.32 110.88C225.12 110.88 224.96 110.8 224.8 110.64C224.48 110.28 224.68 109.88 224.8 109.64L224.84 109.48C224.92 109.36 224.96 109.2 225.04 109.08C225.16 108.88 225.24 108.72 225.28 108.52C225.32 108.16 225.2 107.96 224.92 107.8C224.84 107.76 224.72 107.72 224.64 107.72C224.48 107.72 224.32 107.8 224.2 108C223.68 108.76 223.2 109.68 223.24 110.76C223.28 111.56 223.76 112.08 224.52 112.16C224.72 112.16 224.92 112.2 225.12 112.2Z" fill="#252B33"/>
<path d="M250.018 112.96C250.178 112.96 250.338 112.92 250.538 112.88C251.018 112.76 251.578 112.6 252.178 112.4C253.138 112.08 254.058 111.6 254.978 111.12L255.098 111.04L255.298 110.92C255.538 110.76 255.818 110.6 256.298 110.56H256.538L256.578 110.8C256.698 111.32 256.818 111.68 257.018 112C257.338 112.44 257.818 112.6 258.498 112.6C259.418 112.6 260.338 112.44 261.418 112.04C262.618 111.6 263.778 111 264.858 110.4C265.618 110 266.378 109.6 267.178 109.24C267.458 109.12 267.538 108.8 267.498 108.6C267.378 108.28 267.138 108.08 266.818 108.08H266.698C266.538 108.12 266.338 108.2 266.098 108.32C265.538 108.6 264.938 108.88 264.178 109.28C263.218 109.84 262.138 110.4 260.978 110.8C260.338 111.04 259.618 111.2 258.898 111.32H258.778C258.498 111.32 258.298 111.24 258.178 111.04C258.018 110.88 257.978 110.64 258.058 110.4C258.178 109.96 258.338 109.48 258.538 109.08C258.658 108.84 258.658 108.56 258.498 108.36C258.378 108.16 258.218 108.04 257.978 108.04C257.938 108.04 257.898 108.04 257.858 108.08H257.618C257.178 108.08 256.858 107.92 256.498 107.68C256.018 107.36 255.458 107.2 254.858 107.2C252.458 107.2 250.338 108.52 248.818 110.88C248.658 111.12 248.578 111.4 248.578 111.72C248.578 112.24 248.778 112.56 249.298 112.8C249.498 112.88 249.778 112.96 250.018 112.96ZM250.978 111.36C250.858 111.36 250.698 111.28 250.618 111.16C250.578 111.04 250.538 110.96 250.538 110.88C250.538 110.76 250.578 110.64 250.658 110.56C251.818 109.32 253.058 108.64 254.538 108.52H254.698C254.778 108.52 254.898 108.56 255.018 108.56C255.138 108.6 255.298 108.72 255.338 108.88C255.418 109.04 255.378 109.24 255.298 109.36L255.058 109.56C253.698 110.32 252.578 110.88 251.498 111.28C251.338 111.32 251.218 111.36 251.098 111.36H250.978Z" fill="#252B33"/>
<path d="M269.018 103.88H269.058C269.218 103.88 269.378 103.76 269.578 103.6L269.618 103.56C270.218 103.04 270.898 102.52 271.618 102.12C271.698 102.08 271.778 102.04 271.818 101.96C272.058 101.76 272.098 101.52 272.018 101.32C271.898 101.04 271.658 100.88 271.418 100.88H271.298C271.098 100.92 270.898 101 270.698 101.12C270.098 101.48 269.498 101.96 268.778 102.56C268.658 102.72 268.538 102.84 268.498 102.96C268.378 103.16 268.378 103.4 268.498 103.6C268.578 103.76 268.778 103.88 269.018 103.88ZM266.738 113.44H266.858C267.218 113.44 267.658 113.28 268.098 113.16L268.218 113.12C268.578 113 268.938 112.84 269.338 112.72C270.018 112.48 270.738 112.24 271.458 112.04C272.778 111.68 274.138 111.16 275.458 110.64C276.058 110.4 276.738 110.16 277.378 109.92C277.778 109.8 278.218 109.6 278.618 109.24C278.938 108.96 279.058 108.64 278.938 108.24C278.618 108 277.058 108.68 276.538 108.88L276.378 108.92C274.418 109.68 272.418 110.36 270.458 111C269.618 111.24 268.778 111.52 267.978 111.8C267.738 111.88 267.538 111.96 267.338 112H267.178C266.978 112 266.778 111.96 266.698 111.8C266.578 111.64 266.538 111.44 266.578 111.2C266.778 110.52 267.018 109.84 267.378 109.12C267.498 108.92 267.578 108.72 267.578 108.48C267.578 108.24 267.458 108 267.298 107.92C267.178 107.88 267.058 107.88 266.978 107.88C266.858 107.88 266.738 107.92 266.618 108C266.418 108.16 266.298 108.4 266.138 108.64C265.698 109.6 265.418 110.36 265.258 111.12C265.218 111.44 265.178 111.72 265.178 111.96C265.178 112.96 265.698 113.44 266.738 113.44Z" fill="#252B33"/>
<path d="M266.255 133.48C266.255 133.48 266.295 133.48 266.295 133.44C266.535 133.44 266.735 133.36 266.815 133.16C267.055 132.8 267.255 132.4 267.495 131.88C272.455 121.8 278.455 109.96 285.415 99.0399L285.495 98.8799H285.655C286.215 98.8799 286.735 98.8799 287.295 98.8799H288.375H288.815C291.775 98.9199 294.815 98.9599 297.775 99.1599C298.695 99.2399 299.695 99.2799 300.655 99.2799H301.575H301.775C301.975 99.2399 302.175 99.2399 302.375 99.1999C302.575 99.1599 302.815 98.9199 302.815 98.6799C302.815 98.4799 302.615 98.1599 302.415 98.1199C302.295 98.0799 302.095 98.0399 301.975 98.0399C301.455 97.9999 300.935 97.9999 300.415 97.9599C299.095 97.8799 297.735 97.8399 296.415 97.7999C295.335 97.7599 294.255 97.7199 293.175 97.7199C291.415 97.6399 289.615 97.5999 287.815 97.5999H286.895H286.335L286.615 97.1199L289.095 93.3999C289.255 93.1999 289.375 92.9599 289.535 92.7599C289.575 92.6399 289.615 92.4799 289.495 92.2399C289.375 91.9999 289.175 91.8799 288.935 91.8799C288.815 91.8799 288.695 91.9199 288.575 92.0399C288.295 92.2799 288.095 92.5999 287.895 92.8399C286.895 94.3199 285.855 95.8799 284.855 97.4399L284.735 97.5999H283.655H282.575C281.655 97.5999 280.735 97.6399 279.815 97.6799H279.455L275.935 97.7999C275.295 97.7999 274.655 97.8399 274.015 97.8799C272.895 97.9199 271.775 97.9999 270.695 98.0399C270.415 98.0399 270.175 98.0399 269.895 98.0799C269.575 98.1199 269.255 98.1599 268.935 98.1599C268.455 98.1599 266.455 98.1999 265.935 98.3999C265.815 98.4399 265.695 98.5199 265.575 98.5999C265.495 98.6399 265.295 98.8399 265.415 99.2399C265.455 99.4799 265.615 99.5999 265.855 99.6399H266.095C266.135 99.6399 266.215 99.6399 266.295 99.6799C266.415 99.6399 266.535 99.6399 266.655 99.6399L267.775 99.5199C269.135 99.4399 270.495 99.3199 271.895 99.2799C273.775 99.1599 275.495 99.0799 277.175 99.0399C278.095 98.9999 278.975 98.9999 279.855 98.9999L280.695 98.9599C281.495 98.9599 282.295 98.9599 283.095 98.9199H283.895L283.615 99.3999C277.335 109.4 271.975 119.76 265.855 132.24V132.32C265.735 132.48 265.655 132.64 265.655 132.8C265.655 133 265.695 133.16 265.815 133.28C265.935 133.4 266.095 133.48 266.255 133.48Z" fill="#252B33"/>
<path d="M285.194 114.04H285.394C285.474 114.04 285.554 114.04 285.594 114H285.794C286.874 113.84 287.834 113.48 288.554 113.16C289.994 112.52 291.434 111.92 292.874 111.32L294.354 110.68L294.794 110.48C295.034 110.4 295.274 110.28 295.514 110.2C295.674 110.12 295.874 110.04 295.994 109.92C296.314 109.68 296.394 109.2 296.154 108.88C296.034 108.68 295.914 108.6 295.714 108.6C295.594 108.6 295.394 108.68 295.234 108.8C295.154 108.8 295.114 108.84 295.034 108.88C294.874 109 294.674 109.12 294.474 109.2C292.834 109.92 291.194 110.64 289.554 111.32L287.634 112.12C286.994 112.4 286.394 112.6 285.754 112.68C285.554 112.72 285.394 112.72 285.274 112.72C284.954 112.72 284.754 112.64 284.594 112.48C284.354 112.24 284.354 111.88 284.394 111.36C284.474 110.72 284.714 110.16 284.994 109.52C285.914 107.52 287.114 105.8 288.274 104.2C290.434 101.2 292.514 98.9199 294.754 96.9999C294.874 96.9199 294.954 96.8399 294.994 96.7599C295.114 96.6399 295.194 96.4399 295.154 96.2799C295.114 96.1199 295.034 95.9999 294.874 95.8799C294.754 95.7999 294.634 95.7599 294.554 95.7599C294.434 95.7599 294.314 95.7999 294.194 95.8799C293.714 96.0799 293.354 96.4399 292.994 96.7999L292.954 96.8399C289.914 99.7199 287.274 103.04 285.034 106.64C284.474 107.6 283.954 108.56 283.554 109.56C283.234 110.36 283.074 111.12 283.034 112C282.994 112.6 283.154 113.08 283.514 113.44C283.874 113.84 284.514 114.04 285.194 114.04Z" fill="#252B33"/>
<path d="M298.315 103.88H298.355C298.515 103.88 298.675 103.76 298.875 103.6L298.915 103.56C299.515 103.04 300.195 102.52 300.915 102.12C300.995 102.08 301.075 102.04 301.115 101.96C301.355 101.76 301.395 101.52 301.315 101.32C301.195 101.04 300.955 100.88 300.715 100.88H300.595C300.395 100.92 300.195 101 299.995 101.12C299.395 101.48 298.795 101.96 298.075 102.56C297.955 102.72 297.835 102.84 297.795 102.96C297.675 103.16 297.675 103.4 297.795 103.6C297.875 103.76 298.075 103.88 298.315 103.88ZM296.035 113.44H296.155C296.515 113.44 296.955 113.28 297.395 113.16L297.515 113.12C297.875 113 298.235 112.84 298.635 112.72C299.315 112.48 300.035 112.24 300.755 112.04C302.075 111.68 303.435 111.16 304.755 110.64C305.355 110.4 306.035 110.16 306.675 109.92C307.075 109.8 307.515 109.6 307.915 109.24C308.235 108.96 308.355 108.64 308.235 108.24C307.915 108 306.355 108.68 305.835 108.88L305.675 108.92C303.715 109.68 301.715 110.36 299.755 111C298.915 111.24 298.075 111.52 297.275 111.8C297.035 111.88 296.835 111.96 296.635 112H296.475C296.275 112 296.075 111.96 295.995 111.8C295.875 111.64 295.835 111.44 295.875 111.2C296.075 110.52 296.315 109.84 296.675 109.12C296.795 108.92 296.875 108.72 296.875 108.48C296.875 108.24 296.755 108 296.595 107.92C296.475 107.88 296.355 107.88 296.275 107.88C296.155 107.88 296.035 107.92 295.915 108C295.715 108.16 295.595 108.4 295.435 108.64C294.995 109.6 294.715 110.36 294.555 111.12C294.515 111.44 294.475 111.72 294.475 111.96C294.475 112.96 294.995 113.44 296.035 113.44Z" fill="#252B33"/>
<path d="M305.461 115.96C306.141 116.04 306.741 116 307.261 115.84C309.381 115.16 310.661 114.08 311.381 112.4C311.541 111.92 311.901 111.64 312.341 111.56C312.421 111.56 312.461 111.52 312.541 111.52L312.741 111.44L314.061 111.16C315.981 110.72 317.901 110.24 319.821 109.8C320.301 109.72 320.701 109.64 321.181 109.68C321.381 109.72 321.581 109.68 321.821 109.6C322.101 109.48 322.301 109.2 322.261 108.92C322.221 108.6 321.981 108.36 321.661 108.32C321.541 108.28 321.421 108.32 321.341 108.32C321.221 108.32 321.101 108.36 320.981 108.36C320.661 108.4 320.341 108.44 320.021 108.52C318.261 108.92 316.541 109.28 314.821 109.68L313.141 110.08L312.101 110.32C311.981 110.36 311.821 110.36 311.701 110.32C311.501 110.32 311.341 110.2 311.221 110.04C310.821 109.6 310.021 109.24 309.501 108.76C309.341 108.6 309.341 108.36 309.461 108.16C309.701 107.76 310.421 107.92 310.861 107.92C311.061 107.88 311.221 107.8 311.341 107.6C311.421 107.44 311.421 107.2 311.301 107C311.181 106.8 311.021 106.68 310.821 106.64C310.741 106.64 310.701 106.64 310.661 106.6C309.541 106.44 308.421 106.68 307.221 107.36C307.181 107.4 307.101 107.44 307.061 107.52C306.701 107.84 306.821 108.68 307.141 109C307.301 109.16 307.501 109.28 307.661 109.4C307.781 109.44 307.901 109.48 308.061 109.56C308.181 109.6 308.301 109.64 308.421 109.72L308.501 109.76C309.261 110.04 309.541 110 309.741 110.6C309.701 110.76 309.621 111 309.221 111.16L308.541 111.4C308.421 111.44 308.261 111.48 308.141 111.56C306.981 111.96 306.061 112.36 305.261 112.84C304.821 113.08 304.381 113.36 304.101 113.8C303.861 114.12 303.781 114.48 303.861 114.8C303.941 115.12 304.141 115.4 304.501 115.64C304.781 115.8 305.101 115.88 305.381 115.92L305.461 115.96ZM306.221 114.68L306.101 114.56C306.061 114.52 305.941 114.44 305.901 114.28C305.901 114.08 305.981 113.88 306.141 113.8C306.901 113.32 307.701 113 308.501 112.8C308.581 112.76 308.621 112.76 308.661 112.76C308.821 112.8 308.981 112.92 309.061 113.08C309.141 113.28 309.021 113.52 308.901 113.6C308.221 114.2 307.421 114.56 306.621 114.68C306.541 114.68 306.461 114.68 306.381 114.68H306.221Z" fill="#252B33"/>
<path d="M309.536 133.48C309.536 133.48 309.576 133.48 309.576 133.44C309.816 133.44 310.016 133.36 310.096 133.16C310.336 132.8 310.536 132.4 310.776 131.88C315.736 121.8 321.736 109.96 328.696 99.0399L328.776 98.8799H328.936C329.496 98.8799 330.016 98.8799 330.576 98.8799H331.656H332.096C335.056 98.9199 338.096 98.9599 341.056 99.1599C341.976 99.2399 342.976 99.2799 343.936 99.2799H344.856H345.056C345.256 99.2399 345.456 99.2399 345.656 99.1999C345.856 99.1599 346.096 98.9199 346.096 98.6799C346.096 98.4799 345.896 98.1599 345.696 98.1199C345.576 98.0799 345.376 98.0399 345.256 98.0399C344.736 97.9999 344.216 97.9999 343.696 97.9599C342.376 97.8799 341.016 97.8399 339.696 97.7999C338.616 97.7599 337.536 97.7199 336.456 97.7199C334.696 97.6399 332.896 97.5999 331.096 97.5999H330.176H329.616L329.896 97.1199L332.376 93.3999C332.536 93.1999 332.656 92.9599 332.816 92.7599C332.856 92.6399 332.896 92.4799 332.776 92.2399C332.656 91.9999 332.456 91.8799 332.216 91.8799C332.096 91.8799 331.976 91.9199 331.856 92.0399C331.576 92.2799 331.376 92.5999 331.176 92.8399C330.176 94.3199 329.136 95.8799 328.136 97.4399L328.016 97.5999H326.936H325.856C324.936 97.5999 324.016 97.6399 323.096 97.6799H322.736L319.216 97.7999C318.576 97.7999 317.936 97.8399 317.296 97.8799C316.176 97.9199 315.056 97.9999 313.976 98.0399C313.696 98.0399 313.456 98.0399 313.176 98.0799C312.856 98.1199 312.536 98.1599 312.216 98.1599C311.736 98.1599 309.736 98.1999 309.216 98.3999C309.096 98.4399 308.976 98.5199 308.856 98.5999C308.776 98.6399 308.576 98.8399 308.696 99.2399C308.736 99.4799 308.896 99.5999 309.136 99.6399H309.376C309.416 99.6399 309.496 99.6399 309.576 99.6799C309.696 99.6399 309.816 99.6399 309.936 99.6399L311.056 99.5199C312.416 99.4399 313.776 99.3199 315.176 99.2799C317.056 99.1599 318.776 99.0799 320.456 99.0399C321.376 98.9999 322.256 98.9999 323.136 98.9999L323.976 98.9599C324.776 98.9599 325.576 98.9599 326.376 98.9199H327.176L326.896 99.3999C320.616 109.4 315.256 119.76 309.136 132.24V132.32C309.016 132.48 308.936 132.64 308.936 132.8C308.936 133 308.976 133.16 309.096 133.28C309.216 133.4 309.376 133.48 309.536 133.48Z" fill="#252B33"/>
<path d="M336.516 115.96C337.196 116.04 337.796 116 338.316 115.84C340.436 115.16 341.716 114.08 342.436 112.4C342.596 111.92 342.956 111.64 343.396 111.56C343.476 111.56 343.516 111.52 343.596 111.52L343.796 111.44L345.116 111.16C347.036 110.72 348.956 110.24 350.876 109.8C351.356 109.72 351.756 109.64 352.236 109.68C352.436 109.72 352.636 109.68 352.876 109.6C353.156 109.48 353.356 109.2 353.316 108.92C353.276 108.6 353.036 108.36 352.716 108.32C352.596 108.28 352.476 108.32 352.396 108.32C352.276 108.32 352.156 108.36 352.036 108.36C351.716 108.4 351.396 108.44 351.076 108.52C349.316 108.92 347.596 109.28 345.876 109.68L344.196 110.08L343.156 110.32C343.036 110.36 342.876 110.36 342.756 110.32C342.556 110.32 342.396 110.2 342.276 110.04C341.876 109.6 341.076 109.24 340.556 108.76C340.396 108.6 340.396 108.36 340.516 108.16C340.756 107.76 341.476 107.92 341.916 107.92C342.116 107.88 342.276 107.8 342.396 107.6C342.476 107.44 342.476 107.2 342.356 107C342.236 106.8 342.076 106.68 341.876 106.64C341.796 106.64 341.756 106.64 341.716 106.6C340.596 106.44 339.476 106.68 338.276 107.36C338.236 107.4 338.156 107.44 338.116 107.52C337.756 107.84 337.876 108.68 338.196 109C338.356 109.16 338.556 109.28 338.716 109.4C338.836 109.44 338.956 109.48 339.116 109.56C339.236 109.6 339.356 109.64 339.476 109.72L339.556 109.76C340.316 110.04 340.596 110 340.796 110.6C340.756 110.76 340.676 111 340.276 111.16L339.596 111.4C339.476 111.44 339.316 111.48 339.196 111.56C338.036 111.96 337.116 112.36 336.316 112.84C335.876 113.08 335.436 113.36 335.156 113.8C334.916 114.12 334.836 114.48 334.916 114.8C334.996 115.12 335.196 115.4 335.556 115.64C335.836 115.8 336.156 115.88 336.436 115.92L336.516 115.96ZM337.276 114.68L337.156 114.56C337.116 114.52 336.996 114.44 336.956 114.28C336.956 114.08 337.036 113.88 337.196 113.8C337.956 113.32 338.756 113 339.556 112.8C339.636 112.76 339.676 112.76 339.716 112.76C339.876 112.8 340.036 112.92 340.116 113.08C340.196 113.28 340.076 113.52 339.956 113.6C339.276 114.2 338.476 114.56 337.676 114.68C337.596 114.68 337.516 114.68 337.436 114.68H337.276Z" fill="#252B33"/>
<path d="M347.311 119.88C347.471 119.88 347.671 119.8 347.751 119.72C347.911 119.56 348.031 119.36 348.151 119.16C349.111 117.52 350.191 116 351.551 114.2C351.951 113.68 352.351 113.2 352.831 112.72C352.991 112.56 353.191 112.36 353.351 112.16C353.551 111.92 353.791 111.8 354.071 111.8C354.231 111.8 354.391 111.84 354.551 111.92C355.511 112.4 356.591 112.64 357.911 112.64C358.231 112.64 358.551 112.6 358.911 112.6C360.391 112.6 361.871 112.2 363.311 111.76C364.911 111.28 366.511 110.76 368.071 110.36C368.671 110.2 369.351 110.08 369.951 109.8C370.031 109.76 370.071 109.76 370.151 109.76C370.231 109.76 370.351 109.72 370.431 109.68C370.671 109.56 370.791 109.28 370.751 109C370.711 108.76 370.471 108.52 370.191 108.52H370.031C369.791 108.52 369.511 108.56 369.191 108.68C367.791 109.2 366.311 109.48 364.831 109.92C363.711 110.24 362.551 110.44 361.471 110.88L361.271 110.96C361.151 111 361.071 111 360.951 111C360.791 111 360.671 110.92 360.511 110.84L360.391 110.76V110.64C360.391 110.28 360.551 110.08 360.711 109.92L360.791 109.84C361.151 109.48 361.311 109 361.511 108.56C361.671 108.2 361.671 107.8 361.631 107.36C361.591 106.76 361.191 106.4 360.591 106.24C360.431 106.2 360.311 106.24 360.191 106.24C359.711 106.24 359.191 106.36 358.671 106.64C357.591 107.24 356.271 107.68 355.031 108.92C354.991 108.96 354.911 109 354.831 109.08C354.591 109.32 354.351 109.56 353.951 109.56H353.631V109.28C353.631 108.88 353.711 108.56 353.911 108.36C353.951 108.32 353.991 108.24 354.031 108.16C354.231 107.76 354.471 107.36 354.711 106.96C354.911 106.6 355.071 106.2 355.311 105.8C355.431 105.6 355.551 105.36 355.591 105.12C355.631 104.96 355.591 104.76 355.511 104.64C355.391 104.48 355.191 104.4 354.991 104.4H354.911C354.671 104.4 354.511 104.56 354.391 104.84C354.311 105.04 354.191 105.16 354.111 105.32L353.391 106.68C351.351 110.4 349.071 114.4 347.031 118.48C346.911 118.72 346.791 118.92 346.711 119.16C346.631 119.4 346.791 119.68 346.991 119.8C347.071 119.84 347.191 119.88 347.311 119.88ZM357.231 110.32C357.191 110.32 357.151 110.28 357.111 110.28C357.031 110.28 356.951 110.24 356.831 110.24C356.711 110.24 356.591 110.08 356.511 109.92C356.431 109.76 356.511 109.52 356.631 109.4C357.471 108.56 358.431 107.72 359.431 107.72C359.471 107.72 359.551 107.68 359.631 107.68C359.751 107.68 359.951 107.76 360.071 107.92C360.191 108.08 360.151 108.36 360.071 108.52C359.551 109.6 358.551 110.32 357.311 110.32H357.231Z" fill="#252B33"/>
<path d="M371.623 112.64C371.703 112.64 371.823 112.64 371.943 112.64H372.223C372.463 112.64 372.703 112.6 372.943 112.56C373.903 112.4 374.943 112.12 375.943 111.84C376.783 111.6 377.623 111.4 378.423 111.16C379.303 110.88 380.183 110.68 381.023 110.44C382.103 110.12 383.183 109.92 384.263 109.64L384.743 109.52C385.103 109.44 385.343 109.36 385.543 109.16C385.743 108.96 385.783 108.76 385.703 108.52C385.623 108.28 385.383 108.12 385.143 108.12C385.023 108.12 384.903 108.16 384.783 108.16C383.983 108.16 383.223 108.56 382.463 108.76C380.823 109.2 379.143 109.52 377.503 110.04C376.063 110.48 374.463 110.92 372.463 111.32C372.263 111.36 372.063 111.4 371.863 111.4C371.463 111.4 371.063 111.28 370.663 111.08C370.503 111 370.423 110.76 370.463 110.6C370.503 110.44 370.583 110.24 370.783 110.2C370.943 110.16 371.103 110.12 371.223 110.12H371.343C372.583 110.12 373.703 109.44 374.503 108.4C374.623 108.24 374.743 108.12 374.823 107.96C375.103 107.44 375.143 106.92 374.903 106.52C374.663 106.12 374.223 105.84 373.663 105.84H373.423C372.863 105.84 372.343 105.92 371.903 106.16C370.983 106.64 370.303 107.24 369.703 107.96C369.303 108.44 369.063 108.92 368.943 109.44C368.743 110.24 368.823 110.96 369.183 111.52C369.543 112.08 370.223 112.44 370.983 112.6C371.183 112.64 371.383 112.64 371.623 112.64ZM372.103 108.52C371.983 108.52 371.863 108.44 371.783 108.4L371.663 108.32L371.623 108.16C371.623 108.08 371.663 107.92 371.743 107.84C372.063 107.52 372.343 107.32 372.703 107.32H372.743C372.903 107.32 372.983 107.44 373.023 107.48L373.143 107.6L373.103 107.76C373.103 107.8 373.103 107.88 373.023 107.96C372.783 108.2 372.543 108.4 372.183 108.52H372.103Z" fill="#252B33"/>
<path d="M387.74 112.48H387.86C389.18 112.48 390.5 112.24 392.1 111.76C394.1 111.16 396.06 110.52 398.3 109.56C398.58 109.44 398.82 109.36 398.98 109.24C399.3 109 399.38 108.68 399.22 108.36C399.14 108.2 398.94 108 398.66 108C398.54 108 398.46 108.04 398.34 108.08C398.22 108.12 398.1 108.2 397.98 108.24C397.82 108.28 397.66 108.4 397.5 108.48L396.38 108.88C394.9 109.4 393.42 109.96 391.94 110.44C390.5 110.92 389.3 111.16 388.18 111.16H387.78C387.54 111.16 387.3 111.12 387.06 111.12C386.74 111.12 386.42 111 386.14 110.8C385.66 110.44 385.42 109.84 385.58 109.36C385.78 108.76 386.18 108.32 386.7 108.16C386.82 108.12 386.94 108.08 387.02 108.08C387.26 108.08 387.54 108.2 387.54 108.44C387.54 108.48 387.58 108.52 387.58 108.56C387.58 108.64 387.66 108.72 387.7 108.8C387.82 109 388.02 109.12 388.22 109.12H388.26C388.54 109.12 388.74 108.96 388.82 108.64C388.86 108.44 388.94 108.28 388.9 108.08C388.74 107.24 388.14 106.72 387.34 106.72H387.26C386.3 106.72 385.54 107.16 384.82 108.08C384.22 108.84 384.06 109.72 384.38 110.56C384.7 111.4 385.42 112.12 386.26 112.28C386.66 112.36 387.18 112.48 387.74 112.48Z" fill="#252B33"/>
<path d="M400.737 103.88H400.777C400.937 103.88 401.097 103.76 401.297 103.6L401.337 103.56C401.937 103.04 402.617 102.52 403.337 102.12C403.417 102.08 403.497 102.04 403.537 101.96C403.777 101.76 403.817 101.52 403.737 101.32C403.617 101.04 403.377 100.88 403.137 100.88H403.017C402.817 100.92 402.617 101 402.417 101.12C401.817 101.48 401.217 101.96 400.497 102.56C400.377 102.72 400.257 102.84 400.217 102.96C400.097 103.16 400.097 103.4 400.217 103.6C400.297 103.76 400.497 103.88 400.737 103.88ZM398.457 113.44H398.577C398.937 113.44 399.377 113.28 399.817 113.16L399.937 113.12C400.297 113 400.657 112.84 401.057 112.72C401.737 112.48 402.457 112.24 403.177 112.04C404.497 111.68 405.857 111.16 407.177 110.64C407.777 110.4 408.457 110.16 409.097 109.92C409.497 109.8 409.937 109.6 410.337 109.24C410.657 108.96 410.777 108.64 410.657 108.24C410.337 108 408.777 108.68 408.257 108.88L408.097 108.92C406.137 109.68 404.137 110.36 402.177 111C401.337 111.24 400.497 111.52 399.697 111.8C399.457 111.88 399.257 111.96 399.057 112H398.897C398.697 112 398.497 111.96 398.417 111.8C398.297 111.64 398.257 111.44 398.297 111.2C398.497 110.52 398.737 109.84 399.097 109.12C399.217 108.92 399.297 108.72 399.297 108.48C399.297 108.24 399.177 108 399.017 107.92C398.897 107.88 398.777 107.88 398.697 107.88C398.577 107.88 398.457 107.92 398.337 108C398.137 108.16 398.017 108.4 397.857 108.64C397.417 109.6 397.137 110.36 396.977 111.12C396.937 111.44 396.897 111.72 396.897 111.96C396.897 112.96 397.417 113.44 398.457 113.44Z" fill="#252B33"/>
<path d="M408.534 112.96C408.694 112.96 408.854 112.92 409.054 112.88C409.534 112.76 410.094 112.6 410.694 112.4C411.654 112.08 412.574 111.6 413.494 111.12L413.614 111.04L413.814 110.92C414.054 110.76 414.334 110.6 414.814 110.56H415.054L415.094 110.8C415.214 111.32 415.334 111.68 415.534 112C415.854 112.44 416.334 112.6 417.014 112.6C417.934 112.6 418.854 112.44 419.934 112.04C421.134 111.6 422.294 111 423.374 110.4C424.134 110 424.894 109.6 425.694 109.24C425.974 109.12 426.054 108.8 426.014 108.6C425.894 108.28 425.654 108.08 425.334 108.08H425.214C425.054 108.12 424.854 108.2 424.614 108.32C424.054 108.6 423.454 108.88 422.694 109.28C421.734 109.84 420.654 110.4 419.494 110.8C418.854 111.04 418.134 111.2 417.414 111.32H417.294C417.014 111.32 416.814 111.24 416.694 111.04C416.534 110.88 416.494 110.64 416.574 110.4C416.694 109.96 416.854 109.48 417.054 109.08C417.174 108.84 417.174 108.56 417.014 108.36C416.894 108.16 416.734 108.04 416.494 108.04C416.454 108.04 416.414 108.04 416.374 108.08H416.134C415.694 108.08 415.374 107.92 415.014 107.68C414.534 107.36 413.974 107.2 413.374 107.2C410.974 107.2 408.854 108.52 407.334 110.88C407.174 111.12 407.094 111.4 407.094 111.72C407.094 112.24 407.294 112.56 407.814 112.8C408.014 112.88 408.294 112.96 408.534 112.96ZM409.494 111.36C409.374 111.36 409.214 111.28 409.134 111.16C409.094 111.04 409.054 110.96 409.054 110.88C409.054 110.76 409.094 110.64 409.174 110.56C410.334 109.32 411.574 108.64 413.054 108.52H413.214C413.294 108.52 413.414 108.56 413.534 108.56C413.654 108.6 413.814 108.72 413.854 108.88C413.934 109.04 413.894 109.24 413.814 109.36L413.574 109.56C412.214 110.32 411.094 110.88 410.014 111.28C409.854 111.32 409.734 111.36 409.614 111.36H409.494Z" fill="#252B33"/>
<path d="M425.976 114.04H426.176C426.256 114.04 426.336 114.04 426.376 114H426.576C427.656 113.84 428.616 113.48 429.336 113.16C430.776 112.52 432.216 111.92 433.656 111.32L435.136 110.68L435.576 110.48C435.816 110.4 436.056 110.28 436.296 110.2C436.456 110.12 436.656 110.04 436.776 109.92C437.096 109.68 437.176 109.2 436.936 108.88C436.816 108.68 436.696 108.6 436.496 108.6C436.376 108.6 436.176 108.68 436.016 108.8C435.936 108.8 435.896 108.84 435.816 108.88C435.656 109 435.456 109.12 435.256 109.2C433.616 109.92 431.976 110.64 430.336 111.32L428.416 112.12C427.776 112.4 427.176 112.6 426.536 112.68C426.336 112.72 426.176 112.72 426.056 112.72C425.736 112.72 425.536 112.64 425.376 112.48C425.136 112.24 425.136 111.88 425.176 111.36C425.256 110.72 425.496 110.16 425.776 109.52C426.696 107.52 427.896 105.8 429.056 104.2C431.216 101.2 433.296 98.9199 435.536 96.9999C435.656 96.9199 435.736 96.8399 435.776 96.7599C435.896 96.6399 435.976 96.4399 435.936 96.2799C435.896 96.1199 435.816 95.9999 435.656 95.8799C435.536 95.7999 435.416 95.7599 435.336 95.7599C435.216 95.7599 435.096 95.7999 434.976 95.8799C434.496 96.0799 434.136 96.4399 433.776 96.7999L433.736 96.8399C430.696 99.7199 428.056 103.04 425.816 106.64C425.256 107.6 424.736 108.56 424.336 109.56C424.016 110.36 423.856 111.12 423.816 112C423.776 112.6 423.936 113.08 424.296 113.44C424.656 113.84 425.296 114.04 425.976 114.04Z" fill="#252B33"/>
</svg>
